<svg xmlns="http://www.w3.org/2000/svg" xmlns:xlink="http://www.w3.org/1999/xlink" width="1080" zoomAndPan="magnify" viewBox="0 0 810 60" height="80" preserveAspectRatio="xMidYMid meet" version="1.0"><defs><g/><clipPath id="19ae73dba9"><path d="M 735 11.273438 L 776.238281 11.273438 L 776.238281 51.023438 L 735 51.023438 Z M 735 11.273438 " clip-rule="nonzero"/></clipPath></defs><g clip-path="url(#19ae73dba9)"><path fill="#000000" d="M 775.957031 30.160156 L 772.820312 46.804688 C 772.363281 49.246094 770.25 51.019531 767.800781 51.019531 L 750.40625 51.019531 C 749.535156 51.019531 748.695312 50.789062 747.960938 50.363281 C 747.460938 50.070312 747.15625 49.53125 747.15625 48.949219 L 747.15625 28.597656 C 747.15625 27.972656 747.507812 27.398438 748.0625 27.132812 C 748.601562 26.871094 749.117188 26.566406 749.601562 26.21875 C 750.347656 25.683594 751.738281 24.683594 752.578125 22.890625 C 752.882812 22.242188 753.1875 21.234375 753.3125 16.800781 C 753.355469 15.316406 753.363281 13.816406 753.34375 12.351562 C 753.335938 12.035156 753.558594 11.761719 753.863281 11.707031 C 753.871094 11.707031 753.886719 11.703125 753.90625 11.699219 C 755.15625 11.433594 757.527344 11.269531 759.359375 13.175781 C 760.96875 14.847656 761.109375 17.175781 761.121094 17.628906 C 761.121094 17.632812 761.121094 17.640625 761.121094 17.644531 L 761.121094 24.613281 L 771.4375 24.613281 C 772.8125 24.613281 774.105469 25.230469 774.984375 26.308594 C 775.859375 27.382812 776.214844 28.789062 775.957031 30.160156 Z M 742.800781 26.800781 C 742.703125 26.789062 742.605469 26.78125 742.503906 26.78125 L 737.515625 26.78125 C 736.136719 26.78125 735.011719 27.976562 735.011719 29.445312 L 735.011719 47.207031 C 735.011719 48.605469 736.03125 49.753906 737.320312 49.863281 C 737.417969 49.875 737.515625 49.878906 737.613281 49.878906 L 742.601562 49.878906 C 743.984375 49.878906 745.105469 48.6875 745.105469 47.21875 L 745.105469 29.453125 C 745.105469 28.058594 744.089844 26.910156 742.800781 26.800781 Z M 742.800781 26.800781 " fill-opacity="1" fill-rule="nonzero"/></g><g fill="#000000" fill-opacity="1"><g transform="translate(383.389807, 10.940317)"><g/></g></g><g fill="#000000" fill-opacity="1"><g transform="translate(35.864378, 49.622702)"><g><path d="M 3.40625 0 L 11 -8.84375 C 10.5625 -8.59375 9.945312 -8.46875 9.15625 -8.46875 C 8.238281 -8.46875 7.3125 -8.660156 6.375 -9.046875 C 5.4375 -9.429688 4.554688 -9.984375 3.734375 -10.703125 C 2.910156 -11.421875 2.238281 -12.375 1.71875 -13.5625 C 1.195312 -14.75 0.9375 -16.0625 0.9375 -17.5 C 0.9375 -18.957031 1.210938 -20.265625 1.765625 -21.421875 C 2.316406 -22.578125 3.054688 -23.492188 3.984375 -24.171875 C 4.910156 -24.847656 5.925781 -25.363281 7.03125 -25.71875 C 8.132812 -26.070312 9.289062 -26.25 10.5 -26.25 C 13.394531 -26.25 15.832031 -25.40625 17.8125 -23.71875 C 19.789062 -22.03125 20.78125 -19.957031 20.78125 -17.5 C 20.78125 -15.414062 20.488281 -13.703125 19.90625 -12.359375 C 19.320312 -11.015625 18.257812 -9.300781 16.71875 -7.21875 L 10.65625 0 Z M 14.6875 -17.5 C 14.6875 -18.625 14.320312 -19.554688 13.59375 -20.296875 C 12.863281 -21.035156 11.925781 -21.40625 10.78125 -21.40625 C 9.632812 -21.40625 8.6875 -21.035156 7.9375 -20.296875 C 7.1875 -19.554688 6.8125 -18.625 6.8125 -17.5 C 6.8125 -16.351562 7.191406 -15.398438 7.953125 -14.640625 C 8.710938 -13.878906 9.65625 -13.5 10.78125 -13.5 C 11.863281 -13.5 12.785156 -13.878906 13.546875 -14.640625 C 14.304688 -15.398438 14.6875 -16.351562 14.6875 -17.5 Z M 14.6875 -17.5 "/></g></g></g><g fill="#000000" fill-opacity="1"><g transform="translate(58.953324, 49.622702)"><g><path d="M 3.40625 0 L 11 -8.84375 C 10.5625 -8.59375 9.945312 -8.46875 9.15625 -8.46875 C 8.238281 -8.46875 7.3125 -8.660156 6.375 -9.046875 C 5.4375 -9.429688 4.554688 -9.984375 3.734375 -10.703125 C 2.910156 -11.421875 2.238281 -12.375 1.71875 -13.5625 C 1.195312 -14.75 0.9375 -16.0625 0.9375 -17.5 C 0.9375 -18.957031 1.210938 -20.265625 1.765625 -21.421875 C 2.316406 -22.578125 3.054688 -23.492188 3.984375 -24.171875 C 4.910156 -24.847656 5.925781 -25.363281 7.03125 -25.71875 C 8.132812 -26.070312 9.289062 -26.25 10.5 -26.25 C 13.394531 -26.25 15.832031 -25.40625 17.8125 -23.71875 C 19.789062 -22.03125 20.78125 -19.957031 20.78125 -17.5 C 20.78125 -15.414062 20.488281 -13.703125 19.90625 -12.359375 C 19.320312 -11.015625 18.257812 -9.300781 16.71875 -7.21875 L 10.65625 0 Z M 14.6875 -17.5 C 14.6875 -18.625 14.320312 -19.554688 13.59375 -20.296875 C 12.863281 -21.035156 11.925781 -21.40625 10.78125 -21.40625 C 9.632812 -21.40625 8.6875 -21.035156 7.9375 -20.296875 C 7.1875 -19.554688 6.8125 -18.625 6.8125 -17.5 C 6.8125 -16.351562 7.191406 -15.398438 7.953125 -14.640625 C 8.710938 -13.878906 9.65625 -13.5 10.78125 -13.5 C 11.863281 -13.5 12.785156 -13.878906 13.546875 -14.640625 C 14.304688 -15.398438 14.6875 -16.351562 14.6875 -17.5 Z M 14.6875 -17.5 "/></g></g></g><g fill="#000000" fill-opacity="1"><g transform="translate(82.04227, 49.622702)"><g><path d="M 5.4375 -6.6875 C 6.4375 -6.6875 7.285156 -6.335938 7.984375 -5.640625 C 8.679688 -4.941406 9.03125 -4.09375 9.03125 -3.09375 C 9.03125 -2.113281 8.679688 -1.273438 7.984375 -0.578125 C 7.285156 0.117188 6.4375 0.46875 5.4375 0.46875 C 4.457031 0.46875 3.617188 0.117188 2.921875 -0.578125 C 2.222656 -1.273438 1.875 -2.113281 1.875 -3.09375 C 1.875 -4.09375 2.222656 -4.941406 2.921875 -5.640625 C 3.617188 -6.335938 4.457031 -6.6875 5.4375 -6.6875 Z M 5.4375 -6.6875 "/></g></g></g><g fill="#000000" fill-opacity="1"><g transform="translate(94.508429, 49.622702)"><g><path d="M 3.40625 0 L 11 -8.84375 C 10.5625 -8.59375 9.945312 -8.46875 9.15625 -8.46875 C 8.238281 -8.46875 7.3125 -8.660156 6.375 -9.046875 C 5.4375 -9.429688 4.554688 -9.984375 3.734375 -10.703125 C 2.910156 -11.421875 2.238281 -12.375 1.71875 -13.5625 C 1.195312 -14.75 0.9375 -16.0625 0.9375 -17.5 C 0.9375 -18.957031 1.210938 -20.265625 1.765625 -21.421875 C 2.316406 -22.578125 3.054688 -23.492188 3.984375 -24.171875 C 4.910156 -24.847656 5.925781 -25.363281 7.03125 -25.71875 C 8.132812 -26.070312 9.289062 -26.25 10.5 -26.25 C 13.394531 -26.25 15.832031 -25.40625 17.8125 -23.71875 C 19.789062 -22.03125 20.78125 -19.957031 20.78125 -17.5 C 20.78125 -15.414062 20.488281 -13.703125 19.90625 -12.359375 C 19.320312 -11.015625 18.257812 -9.300781 16.71875 -7.21875 L 10.65625 0 Z M 14.6875 -17.5 C 14.6875 -18.625 14.320312 -19.554688 13.59375 -20.296875 C 12.863281 -21.035156 11.925781 -21.40625 10.78125 -21.40625 C 9.632812 -21.40625 8.6875 -21.035156 7.9375 -20.296875 C 7.1875 -19.554688 6.8125 -18.625 6.8125 -17.5 C 6.8125 -16.351562 7.191406 -15.398438 7.953125 -14.640625 C 8.710938 -13.878906 9.65625 -13.5 10.78125 -13.5 C 11.863281 -13.5 12.785156 -13.878906 13.546875 -14.640625 C 14.304688 -15.398438 14.6875 -16.351562 14.6875 -17.5 Z M 14.6875 -17.5 "/></g></g></g><g fill="#000000" fill-opacity="1"><g transform="translate(117.597374, 49.622702)"><g><path d="M 2.640625 -15.671875 C 1.359375 -16.828125 0.71875 -18.300781 0.71875 -20.09375 C 0.71875 -21.882812 1.382812 -23.359375 2.71875 -24.515625 C 4.050781 -25.671875 5.707031 -26.25 7.6875 -26.25 C 9.625 -26.25 11.25 -25.671875 12.5625 -24.515625 C 13.875 -23.359375 14.53125 -21.882812 14.53125 -20.09375 C 14.53125 -18.300781 13.890625 -16.828125 12.609375 -15.671875 C 11.328125 -14.515625 9.6875 -13.9375 7.6875 -13.9375 C 5.601562 -13.9375 3.921875 -14.515625 2.640625 -15.671875 Z M 24.71875 -25.78125 L 9.71875 0 L 6.03125 0 L 21.03125 -25.78125 Z M 5.578125 -22.171875 C 5.023438 -21.617188 4.75 -20.925781 4.75 -20.09375 C 4.75 -19.257812 5.015625 -18.578125 5.546875 -18.046875 C 6.078125 -17.515625 6.769531 -17.25 7.625 -17.25 C 8.4375 -17.25 9.109375 -17.515625 9.640625 -18.046875 C 10.171875 -18.578125 10.4375 -19.257812 10.4375 -20.09375 C 10.4375 -20.925781 10.164062 -21.617188 9.625 -22.171875 C 9.082031 -22.722656 8.414062 -23 7.625 -23 C 6.8125 -23 6.128906 -22.722656 5.578125 -22.171875 Z M 18.125 -1.265625 C 16.789062 -2.421875 16.125 -3.894531 16.125 -5.6875 C 16.125 -7.476562 16.765625 -8.953125 18.046875 -10.109375 C 19.328125 -11.265625 21.007812 -11.84375 23.09375 -11.84375 C 25.09375 -11.84375 26.734375 -11.265625 28.015625 -10.109375 C 29.296875 -8.953125 29.9375 -7.476562 29.9375 -5.6875 C 29.9375 -3.894531 29.28125 -2.421875 27.96875 -1.265625 C 26.65625 -0.109375 25.03125 0.46875 23.09375 0.46875 C 21.113281 0.46875 19.457031 -0.109375 18.125 -1.265625 Z M 20.953125 -7.734375 C 20.421875 -7.203125 20.15625 -6.519531 20.15625 -5.6875 C 20.15625 -4.851562 20.429688 -4.160156 20.984375 -3.609375 C 21.535156 -3.054688 22.21875 -2.78125 23.03125 -2.78125 C 23.820312 -2.78125 24.488281 -3.054688 25.03125 -3.609375 C 25.570312 -4.160156 25.84375 -4.851562 25.84375 -5.6875 C 25.84375 -6.519531 25.578125 -7.203125 25.046875 -7.734375 C 24.515625 -8.265625 23.84375 -8.53125 23.03125 -8.53125 C 22.175781 -8.53125 21.484375 -8.265625 20.953125 -7.734375 Z M 20.953125 -7.734375 "/></g></g></g><g fill="#000000" fill-opacity="1"><g transform="translate(149.809427, 49.622702)"><g/></g></g><g fill="#000000" fill-opacity="1"><g transform="translate(159.901084, 49.622702)"><g><path d="M 15.59375 -5.3125 C 16.488281 -5.3125 17.359375 -5.445312 18.203125 -5.71875 C 19.046875 -5.988281 19.664062 -6.25 20.0625 -6.5 L 20.65625 -6.90625 L 23.15625 -1.90625 C 23.070312 -1.84375 22.957031 -1.757812 22.8125 -1.65625 C 22.664062 -1.550781 22.328125 -1.359375 21.796875 -1.078125 C 21.265625 -0.796875 20.695312 -0.550781 20.09375 -0.34375 C 19.488281 -0.132812 18.695312 0.0507812 17.71875 0.21875 C 16.738281 0.382812 15.726562 0.46875 14.6875 0.46875 C 12.289062 0.46875 10.019531 -0.117188 7.875 -1.296875 C 5.726562 -2.472656 4 -4.09375 2.6875 -6.15625 C 1.375 -8.21875 0.71875 -10.445312 0.71875 -12.84375 C 0.71875 -14.65625 1.101562 -16.394531 1.875 -18.0625 C 2.644531 -19.726562 3.671875 -21.15625 4.953125 -22.34375 C 6.234375 -23.53125 7.726562 -24.476562 9.4375 -25.1875 C 11.144531 -25.894531 12.894531 -26.25 14.6875 -26.25 C 16.351562 -26.25 17.890625 -26.050781 19.296875 -25.65625 C 20.703125 -25.257812 21.695312 -24.863281 22.28125 -24.46875 L 23.15625 -23.875 L 20.65625 -18.875 C 20.507812 -19 20.289062 -19.148438 20 -19.328125 C 19.707031 -19.503906 19.125 -19.738281 18.25 -20.03125 C 17.375 -20.320312 16.488281 -20.46875 15.59375 -20.46875 C 14.175781 -20.46875 12.90625 -20.238281 11.78125 -19.78125 C 10.65625 -19.320312 9.765625 -18.71875 9.109375 -17.96875 C 8.453125 -17.21875 7.953125 -16.410156 7.609375 -15.546875 C 7.265625 -14.679688 7.09375 -13.800781 7.09375 -12.90625 C 7.09375 -10.945312 7.828125 -9.191406 9.296875 -7.640625 C 10.765625 -6.085938 12.863281 -5.3125 15.59375 -5.3125 Z M 15.59375 -5.3125 "/></g></g></g><g fill="#000000" fill-opacity="1"><g transform="translate(184.989619, 49.622702)"><g><path d="M 21.6875 -25.78125 L 21.6875 -9.15625 C 21.6875 -5.988281 20.832031 -3.59375 19.125 -1.96875 C 17.414062 -0.34375 14.914062 0.46875 11.625 0.46875 C 8.332031 0.46875 5.832031 -0.34375 4.125 -1.96875 C 2.414062 -3.59375 1.5625 -5.988281 1.5625 -9.15625 L 1.5625 -25.78125 L 7.4375 -25.78125 L 7.4375 -10.875 C 7.4375 -8.789062 7.765625 -7.34375 8.421875 -6.53125 C 9.078125 -5.71875 10.144531 -5.3125 11.625 -5.3125 C 13.101562 -5.3125 14.171875 -5.71875 14.828125 -6.53125 C 15.484375 -7.34375 15.8125 -8.789062 15.8125 -10.875 L 15.8125 -25.78125 Z M 21.6875 -25.78125 "/></g></g></g><g fill="#000000" fill-opacity="1"><g transform="translate(209.79697, 49.622702)"><g><path d="M 11.375 -26.25 C 12.769531 -26.25 14.132812 -26.046875 15.46875 -25.640625 C 16.800781 -25.234375 17.789062 -24.832031 18.4375 -24.4375 L 19.375 -23.8125 L 17 -19.125 C 16.8125 -19.25 16.550781 -19.410156 16.21875 -19.609375 C 15.882812 -19.804688 15.257812 -20.070312 14.34375 -20.40625 C 13.425781 -20.738281 12.570312 -20.90625 11.78125 -20.90625 C 10.800781 -20.90625 10.046875 -20.695312 9.515625 -20.28125 C 8.984375 -19.863281 8.71875 -19.300781 8.71875 -18.59375 C 8.71875 -18.238281 8.84375 -17.910156 9.09375 -17.609375 C 9.34375 -17.304688 9.769531 -16.984375 10.375 -16.640625 C 10.976562 -16.296875 11.507812 -16.019531 11.96875 -15.8125 C 12.425781 -15.601562 13.132812 -15.289062 14.09375 -14.875 C 15.757812 -14.164062 17.179688 -13.203125 18.359375 -11.984375 C 19.535156 -10.765625 20.125 -9.382812 20.125 -7.84375 C 20.125 -6.363281 19.859375 -5.070312 19.328125 -3.96875 C 18.796875 -2.863281 18.066406 -2 17.140625 -1.375 C 16.210938 -0.75 15.1875 -0.285156 14.0625 0.015625 C 12.9375 0.316406 11.71875 0.46875 10.40625 0.46875 C 9.28125 0.46875 8.175781 0.351562 7.09375 0.125 C 6.007812 -0.101562 5.101562 -0.390625 4.375 -0.734375 C 3.644531 -1.078125 2.988281 -1.414062 2.40625 -1.75 C 1.820312 -2.082031 1.394531 -2.363281 1.125 -2.59375 L 0.71875 -2.9375 L 3.65625 -7.875 C 3.90625 -7.664062 4.25 -7.398438 4.6875 -7.078125 C 5.125 -6.753906 5.898438 -6.320312 7.015625 -5.78125 C 8.128906 -5.238281 9.113281 -4.96875 9.96875 -4.96875 C 12.445312 -4.96875 13.6875 -5.8125 13.6875 -7.5 C 13.6875 -7.851562 13.597656 -8.179688 13.421875 -8.484375 C 13.242188 -8.785156 12.929688 -9.085938 12.484375 -9.390625 C 12.035156 -9.691406 11.640625 -9.929688 11.296875 -10.109375 C 10.953125 -10.285156 10.390625 -10.554688 9.609375 -10.921875 C 8.828125 -11.285156 8.25 -11.5625 7.875 -11.75 C 6.3125 -12.519531 5.101562 -13.484375 4.25 -14.640625 C 3.394531 -15.796875 2.96875 -17.039062 2.96875 -18.375 C 2.96875 -20.6875 3.820312 -22.578125 5.53125 -24.046875 C 7.238281 -25.515625 9.1875 -26.25 11.375 -26.25 Z M 11.375 -26.25 "/></g></g></g><g fill="#000000" fill-opacity="1"><g transform="translate(232.354778, 49.622702)"><g><path d="M 0.25 -20.625 L 0.25 -25.78125 L 18.375 -25.78125 L 18.375 -20.625 L 12.25 -20.625 L 12.25 0 L 6.375 0 L 6.375 -20.625 Z M 0.25 -20.625 "/></g></g></g><g fill="#000000" fill-opacity="1"><g transform="translate(252.53807, 49.622702)"><g><path d="M 0.71875 -12.90625 C 0.71875 -16.632812 1.988281 -19.789062 4.53125 -22.375 C 7.070312 -24.957031 10.132812 -26.25 13.71875 -26.25 C 17.320312 -26.25 20.382812 -24.960938 22.90625 -22.390625 C 25.425781 -19.816406 26.6875 -16.65625 26.6875 -12.90625 C 26.6875 -9.132812 25.445312 -5.960938 22.96875 -3.390625 C 20.488281 -0.816406 17.40625 0.46875 13.71875 0.46875 C 9.945312 0.46875 6.835938 -0.804688 4.390625 -3.359375 C 1.941406 -5.910156 0.71875 -9.09375 0.71875 -12.90625 Z M 7.0625 -12.90625 C 7.0625 -11.550781 7.269531 -10.316406 7.6875 -9.203125 C 8.101562 -8.085938 8.832031 -7.144531 9.875 -6.375 C 10.914062 -5.601562 12.195312 -5.21875 13.71875 -5.21875 C 15.90625 -5.21875 17.554688 -5.96875 18.671875 -7.46875 C 19.785156 -8.96875 20.34375 -10.78125 20.34375 -12.90625 C 20.34375 -15.007812 19.773438 -16.816406 18.640625 -18.328125 C 17.503906 -19.835938 15.863281 -20.59375 13.71875 -20.59375 C 11.59375 -20.59375 9.953125 -19.835938 8.796875 -18.328125 C 7.640625 -16.816406 7.0625 -15.007812 7.0625 -12.90625 Z M 7.0625 -12.90625 "/></g></g></g><g fill="#000000" fill-opacity="1"><g transform="translate(281.500801, 49.622702)"><g><path d="M 23.1875 0 L 21.96875 -15.28125 L 21.8125 -15.28125 L 16.53125 -0.15625 L 13.03125 -0.15625 L 7.75 -15.28125 L 7.59375 -15.28125 L 6.375 0 L 0.5 0 L 2.8125 -25.78125 L 9.0625 -25.78125 L 14.78125 -10.90625 L 20.5 -25.78125 L 26.75 -25.78125 L 29.0625 0 Z M 23.1875 0 "/></g></g></g><g fill="#000000" fill-opacity="1"><g transform="translate(312.619338, 49.622702)"><g><path d="M 16.625 -25.78125 L 16.625 -20.625 L 7.75 -20.625 L 7.75 -15.5 L 16.25 -15.5 L 16.25 -10.34375 L 7.75 -10.34375 L 7.75 -5.15625 L 16.625 -5.15625 L 16.625 0 L 1.875 0 L 1.875 -25.78125 Z M 16.625 -25.78125 "/></g></g></g><g fill="#000000" fill-opacity="1"><g transform="translate(332.302737, 49.622702)"><g><path d="M 1.875 -25.78125 L 11.09375 -25.78125 C 13.570312 -25.78125 15.59375 -25.117188 17.15625 -23.796875 C 18.71875 -22.472656 19.5 -20.582031 19.5 -18.125 C 19.5 -16.226562 19.023438 -14.640625 18.078125 -13.359375 C 17.128906 -12.078125 15.84375 -11.175781 14.21875 -10.65625 L 23.09375 0 L 15.625 0 L 7.75 -10.1875 L 7.75 0 L 1.875 0 Z M 7.75 -14.34375 L 8.4375 -14.34375 C 8.976562 -14.34375 9.4375 -14.351562 9.8125 -14.375 C 10.1875 -14.394531 10.613281 -14.46875 11.09375 -14.59375 C 11.570312 -14.71875 11.957031 -14.894531 12.25 -15.125 C 12.539062 -15.351562 12.789062 -15.6875 13 -16.125 C 13.207031 -16.5625 13.3125 -17.09375 13.3125 -17.71875 C 13.3125 -18.34375 13.207031 -18.875 13 -19.3125 C 12.789062 -19.75 12.539062 -20.082031 12.25 -20.3125 C 11.957031 -20.539062 11.570312 -20.71875 11.09375 -20.84375 C 10.613281 -20.96875 10.1875 -21.039062 9.8125 -21.0625 C 9.4375 -21.082031 8.976562 -21.09375 8.4375 -21.09375 L 7.75 -21.09375 Z M 7.75 -14.34375 "/></g></g></g><g fill="#000000" fill-opacity="1"><g transform="translate(356.235252, 49.622702)"><g><path d="M 11.375 -26.25 C 12.769531 -26.25 14.132812 -26.046875 15.46875 -25.640625 C 16.800781 -25.234375 17.789062 -24.832031 18.4375 -24.4375 L 19.375 -23.8125 L 17 -19.125 C 16.8125 -19.25 16.550781 -19.410156 16.21875 -19.609375 C 15.882812 -19.804688 15.257812 -20.070312 14.34375 -20.40625 C 13.425781 -20.738281 12.570312 -20.90625 11.78125 -20.90625 C 10.800781 -20.90625 10.046875 -20.695312 9.515625 -20.28125 C 8.984375 -19.863281 8.71875 -19.300781 8.71875 -18.59375 C 8.71875 -18.238281 8.84375 -17.910156 9.09375 -17.609375 C 9.34375 -17.304688 9.769531 -16.984375 10.375 -16.640625 C 10.976562 -16.296875 11.507812 -16.019531 11.96875 -15.8125 C 12.425781 -15.601562 13.132812 -15.289062 14.09375 -14.875 C 15.757812 -14.164062 17.179688 -13.203125 18.359375 -11.984375 C 19.535156 -10.765625 20.125 -9.382812 20.125 -7.84375 C 20.125 -6.363281 19.859375 -5.070312 19.328125 -3.96875 C 18.796875 -2.863281 18.066406 -2 17.140625 -1.375 C 16.210938 -0.75 15.1875 -0.285156 14.0625 0.015625 C 12.9375 0.316406 11.71875 0.46875 10.40625 0.46875 C 9.28125 0.46875 8.175781 0.351562 7.09375 0.125 C 6.007812 -0.101562 5.101562 -0.390625 4.375 -0.734375 C 3.644531 -1.078125 2.988281 -1.414062 2.40625 -1.75 C 1.820312 -2.082031 1.394531 -2.363281 1.125 -2.59375 L 0.71875 -2.9375 L 3.65625 -7.875 C 3.90625 -7.664062 4.25 -7.398438 4.6875 -7.078125 C 5.125 -6.753906 5.898438 -6.320312 7.015625 -5.78125 C 8.128906 -5.238281 9.113281 -4.96875 9.96875 -4.96875 C 12.445312 -4.96875 13.6875 -5.8125 13.6875 -7.5 C 13.6875 -7.851562 13.597656 -8.179688 13.421875 -8.484375 C 13.242188 -8.785156 12.929688 -9.085938 12.484375 -9.390625 C 12.035156 -9.691406 11.640625 -9.929688 11.296875 -10.109375 C 10.953125 -10.285156 10.390625 -10.554688 9.609375 -10.921875 C 8.828125 -11.285156 8.25 -11.5625 7.875 -11.75 C 6.3125 -12.519531 5.101562 -13.484375 4.25 -14.640625 C 3.394531 -15.796875 2.96875 -17.039062 2.96875 -18.375 C 2.96875 -20.6875 3.820312 -22.578125 5.53125 -24.046875 C 7.238281 -25.515625 9.1875 -26.25 11.375 -26.25 Z M 11.375 -26.25 "/></g></g></g><g fill="#000000" fill-opacity="1"><g transform="translate(378.79306, 49.622702)"><g/></g></g><g fill="#000000" fill-opacity="1"><g transform="translate(388.884706, 49.622702)"><g><path d="M 1.875 -25.78125 L 11.28125 -25.78125 C 13.90625 -25.78125 16.03125 -25.101562 17.65625 -23.75 C 19.28125 -22.394531 20.09375 -20.425781 20.09375 -17.84375 C 20.09375 -15.257812 19.269531 -13.234375 17.625 -11.765625 C 15.976562 -10.296875 13.863281 -9.5625 11.28125 -9.5625 L 7.75 -9.5625 L 7.75 0 L 1.875 0 Z M 7.75 -14.25 L 9.40625 -14.25 C 10.71875 -14.25 11.796875 -14.515625 12.640625 -15.046875 C 13.484375 -15.578125 13.90625 -16.445312 13.90625 -17.65625 C 13.90625 -18.882812 13.484375 -19.765625 12.640625 -20.296875 C 11.796875 -20.828125 10.71875 -21.09375 9.40625 -21.09375 L 7.75 -21.09375 Z M 7.75 -14.25 "/></g></g></g><g fill="#000000" fill-opacity="1"><g transform="translate(411.255043, 49.622702)"><g><path d="M 0.71875 -12.90625 C 0.71875 -16.632812 1.988281 -19.789062 4.53125 -22.375 C 7.070312 -24.957031 10.132812 -26.25 13.71875 -26.25 C 17.320312 -26.25 20.382812 -24.960938 22.90625 -22.390625 C 25.425781 -19.816406 26.6875 -16.65625 26.6875 -12.90625 C 26.6875 -9.132812 25.445312 -5.960938 22.96875 -3.390625 C 20.488281 -0.816406 17.40625 0.46875 13.71875 0.46875 C 9.945312 0.46875 6.835938 -0.804688 4.390625 -3.359375 C 1.941406 -5.910156 0.71875 -9.09375 0.71875 -12.90625 Z M 7.0625 -12.90625 C 7.0625 -11.550781 7.269531 -10.316406 7.6875 -9.203125 C 8.101562 -8.085938 8.832031 -7.144531 9.875 -6.375 C 10.914062 -5.601562 12.195312 -5.21875 13.71875 -5.21875 C 15.90625 -5.21875 17.554688 -5.96875 18.671875 -7.46875 C 19.785156 -8.96875 20.34375 -10.78125 20.34375 -12.90625 C 20.34375 -15.007812 19.773438 -16.816406 18.640625 -18.328125 C 17.503906 -19.835938 15.863281 -20.59375 13.71875 -20.59375 C 11.59375 -20.59375 9.953125 -19.835938 8.796875 -18.328125 C 7.640625 -16.816406 7.0625 -15.007812 7.0625 -12.90625 Z M 7.0625 -12.90625 "/></g></g></g><g fill="#000000" fill-opacity="1"><g transform="translate(440.217773, 49.622702)"><g><path d="M 11.375 -26.25 C 12.769531 -26.25 14.132812 -26.046875 15.46875 -25.640625 C 16.800781 -25.234375 17.789062 -24.832031 18.4375 -24.4375 L 19.375 -23.8125 L 17 -19.125 C 16.8125 -19.25 16.550781 -19.410156 16.21875 -19.609375 C 15.882812 -19.804688 15.257812 -20.070312 14.34375 -20.40625 C 13.425781 -20.738281 12.570312 -20.90625 11.78125 -20.90625 C 10.800781 -20.90625 10.046875 -20.695312 9.515625 -20.28125 C 8.984375 -19.863281 8.71875 -19.300781 8.71875 -18.59375 C 8.71875 -18.238281 8.84375 -17.910156 9.09375 -17.609375 C 9.34375 -17.304688 9.769531 -16.984375 10.375 -16.640625 C 10.976562 -16.296875 11.507812 -16.019531 11.96875 -15.8125 C 12.425781 -15.601562 13.132812 -15.289062 14.09375 -14.875 C 15.757812 -14.164062 17.179688 -13.203125 18.359375 -11.984375 C 19.535156 -10.765625 20.125 -9.382812 20.125 -7.84375 C 20.125 -6.363281 19.859375 -5.070312 19.328125 -3.96875 C 18.796875 -2.863281 18.066406 -2 17.140625 -1.375 C 16.210938 -0.75 15.1875 -0.285156 14.0625 0.015625 C 12.9375 0.316406 11.71875 0.46875 10.40625 0.46875 C 9.28125 0.46875 8.175781 0.351562 7.09375 0.125 C 6.007812 -0.101562 5.101562 -0.390625 4.375 -0.734375 C 3.644531 -1.078125 2.988281 -1.414062 2.40625 -1.75 C 1.820312 -2.082031 1.394531 -2.363281 1.125 -2.59375 L 0.71875 -2.9375 L 3.65625 -7.875 C 3.90625 -7.664062 4.25 -7.398438 4.6875 -7.078125 C 5.125 -6.753906 5.898438 -6.320312 7.015625 -5.78125 C 8.128906 -5.238281 9.113281 -4.96875 9.96875 -4.96875 C 12.445312 -4.96875 13.6875 -5.8125 13.6875 -7.5 C 13.6875 -7.851562 13.597656 -8.179688 13.421875 -8.484375 C 13.242188 -8.785156 12.929688 -9.085938 12.484375 -9.390625 C 12.035156 -9.691406 11.640625 -9.929688 11.296875 -10.109375 C 10.953125 -10.285156 10.390625 -10.554688 9.609375 -10.921875 C 8.828125 -11.285156 8.25 -11.5625 7.875 -11.75 C 6.3125 -12.519531 5.101562 -13.484375 4.25 -14.640625 C 3.394531 -15.796875 2.96875 -17.039062 2.96875 -18.375 C 2.96875 -20.6875 3.820312 -22.578125 5.53125 -24.046875 C 7.238281 -25.515625 9.1875 -26.25 11.375 -26.25 Z M 11.375 -26.25 "/></g></g></g><g fill="#000000" fill-opacity="1"><g transform="translate(462.775581, 49.622702)"><g><path d="M 7.75 -25.78125 L 7.75 0 L 1.875 0 L 1.875 -25.78125 Z M 7.75 -25.78125 "/></g></g></g><g fill="#000000" fill-opacity="1"><g transform="translate(473.96075, 49.622702)"><g><path d="M 0.25 -20.625 L 0.25 -25.78125 L 18.375 -25.78125 L 18.375 -20.625 L 12.25 -20.625 L 12.25 0 L 6.375 0 L 6.375 -20.625 Z M 0.25 -20.625 "/></g></g></g><g fill="#000000" fill-opacity="1"><g transform="translate(494.144042, 49.622702)"><g><path d="M 7.75 -25.78125 L 7.75 0 L 1.875 0 L 1.875 -25.78125 Z M 7.75 -25.78125 "/></g></g></g><g fill="#000000" fill-opacity="1"><g transform="translate(505.32921, 49.622702)"><g><path d="M 9.9375 0 L -0.875 -25.78125 L 5.75 -25.78125 L 12.25 -8.84375 L 18.75 -25.78125 L 25.375 -25.78125 L 14.5625 0 Z M 9.9375 0 "/></g></g></g><g fill="#000000" fill-opacity="1"><g transform="translate(531.386271, 49.622702)"><g><path d="M 16.625 -25.78125 L 16.625 -20.625 L 7.75 -20.625 L 7.75 -15.5 L 16.25 -15.5 L 16.25 -10.34375 L 7.75 -10.34375 L 7.75 -5.15625 L 16.625 -5.15625 L 16.625 0 L 1.875 0 L 1.875 -25.78125 Z M 16.625 -25.78125 "/></g></g></g><g fill="#000000" fill-opacity="1"><g transform="translate(551.06967, 49.622702)"><g/></g></g><g fill="#000000" fill-opacity="1"><g transform="translate(561.161339, 49.622702)"><g><path d="M 1.875 -25.78125 L 11.09375 -25.78125 C 13.570312 -25.78125 15.59375 -25.117188 17.15625 -23.796875 C 18.71875 -22.472656 19.5 -20.582031 19.5 -18.125 C 19.5 -16.226562 19.023438 -14.640625 18.078125 -13.359375 C 17.128906 -12.078125 15.84375 -11.175781 14.21875 -10.65625 L 23.09375 0 L 15.625 0 L 7.75 -10.1875 L 7.75 0 L 1.875 0 Z M 7.75 -14.34375 L 8.4375 -14.34375 C 8.976562 -14.34375 9.4375 -14.351562 9.8125 -14.375 C 10.1875 -14.394531 10.613281 -14.46875 11.09375 -14.59375 C 11.570312 -14.71875 11.957031 -14.894531 12.25 -15.125 C 12.539062 -15.351562 12.789062 -15.6875 13 -16.125 C 13.207031 -16.5625 13.3125 -17.09375 13.3125 -17.71875 C 13.3125 -18.34375 13.207031 -18.875 13 -19.3125 C 12.789062 -19.75 12.539062 -20.082031 12.25 -20.3125 C 11.957031 -20.539062 11.570312 -20.71875 11.09375 -20.84375 C 10.613281 -20.96875 10.1875 -21.039062 9.8125 -21.0625 C 9.4375 -21.082031 8.976562 -21.09375 8.4375 -21.09375 L 7.75 -21.09375 Z M 7.75 -14.34375 "/></g></g></g><g fill="#000000" fill-opacity="1"><g transform="translate(585.093876, 49.622702)"><g><path d="M 16.625 -25.78125 L 16.625 -20.625 L 7.75 -20.625 L 7.75 -15.5 L 16.25 -15.5 L 16.25 -10.34375 L 7.75 -10.34375 L 7.75 -5.15625 L 16.625 -5.15625 L 16.625 0 L 1.875 0 L 1.875 -25.78125 Z M 16.625 -25.78125 "/></g></g></g><g fill="#000000" fill-opacity="1"><g transform="translate(604.777275, 49.622702)"><g><path d="M 9.9375 0 L -0.875 -25.78125 L 5.75 -25.78125 L 12.25 -8.84375 L 18.75 -25.78125 L 25.375 -25.78125 L 14.5625 0 Z M 9.9375 0 "/></g></g></g><g fill="#000000" fill-opacity="1"><g transform="translate(630.834336, 49.622702)"><g><path d="M 7.75 -25.78125 L 7.75 0 L 1.875 0 L 1.875 -25.78125 Z M 7.75 -25.78125 "/></g></g></g><g fill="#000000" fill-opacity="1"><g transform="translate(642.019504, 49.622702)"><g><path d="M 16.625 -25.78125 L 16.625 -20.625 L 7.75 -20.625 L 7.75 -15.5 L 16.25 -15.5 L 16.25 -10.34375 L 7.75 -10.34375 L 7.75 -5.15625 L 16.625 -5.15625 L 16.625 0 L 1.875 0 L 1.875 -25.78125 Z M 16.625 -25.78125 "/></g></g></g><g fill="#000000" fill-opacity="1"><g transform="translate(661.702904, 49.622702)"><g><path d="M 21.65625 0 L 17.53125 -14.46875 L 13.40625 0 L 6.875 0 L -0.46875 -25.78125 L 6.0625 -25.78125 L 10.46875 -8.09375 L 10.625 -8.09375 L 15.3125 -25.78125 L 19.75 -25.78125 L 24.4375 -8.09375 L 24.59375 -8.09375 L 29 -25.78125 L 35.5 -25.78125 L 28.15625 0 Z M 21.65625 0 "/></g></g></g><g fill="#000000" fill-opacity="1"><g transform="translate(698.289051, 49.622702)"><g><path d="M 11.375 -26.25 C 12.769531 -26.25 14.132812 -26.046875 15.46875 -25.640625 C 16.800781 -25.234375 17.789062 -24.832031 18.4375 -24.4375 L 19.375 -23.8125 L 17 -19.125 C 16.8125 -19.25 16.550781 -19.410156 16.21875 -19.609375 C 15.882812 -19.804688 15.257812 -20.070312 14.34375 -20.40625 C 13.425781 -20.738281 12.570312 -20.90625 11.78125 -20.90625 C 10.800781 -20.90625 10.046875 -20.695312 9.515625 -20.28125 C 8.984375 -19.863281 8.71875 -19.300781 8.71875 -18.59375 C 8.71875 -18.238281 8.84375 -17.910156 9.09375 -17.609375 C 9.34375 -17.304688 9.769531 -16.984375 10.375 -16.640625 C 10.976562 -16.296875 11.507812 -16.019531 11.96875 -15.8125 C 12.425781 -15.601562 13.132812 -15.289062 14.09375 -14.875 C 15.757812 -14.164062 17.179688 -13.203125 18.359375 -11.984375 C 19.535156 -10.765625 20.125 -9.382812 20.125 -7.84375 C 20.125 -6.363281 19.859375 -5.070312 19.328125 -3.96875 C 18.796875 -2.863281 18.066406 -2 17.140625 -1.375 C 16.210938 -0.75 15.1875 -0.285156 14.0625 0.015625 C 12.9375 0.316406 11.71875 0.46875 10.40625 0.46875 C 9.28125 0.46875 8.175781 0.351562 7.09375 0.125 C 6.007812 -0.101562 5.101562 -0.390625 4.375 -0.734375 C 3.644531 -1.078125 2.988281 -1.414062 2.40625 -1.75 C 1.820312 -2.082031 1.394531 -2.363281 1.125 -2.59375 L 0.71875 -2.9375 L 3.65625 -7.875 C 3.90625 -7.664062 4.25 -7.398438 4.6875 -7.078125 C 5.125 -6.753906 5.898438 -6.320312 7.015625 -5.78125 C 8.128906 -5.238281 9.113281 -4.96875 9.96875 -4.96875 C 12.445312 -4.96875 13.6875 -5.8125 13.6875 -7.5 C 13.6875 -7.851562 13.597656 -8.179688 13.421875 -8.484375 C 13.242188 -8.785156 12.929688 -9.085938 12.484375 -9.390625 C 12.035156 -9.691406 11.640625 -9.929688 11.296875 -10.109375 C 10.953125 -10.285156 10.390625 -10.554688 9.609375 -10.921875 C 8.828125 -11.285156 8.25 -11.5625 7.875 -11.75 C 6.3125 -12.519531 5.101562 -13.484375 4.25 -14.640625 C 3.394531 -15.796875 2.96875 -17.039062 2.96875 -18.375 C 2.96875 -20.6875 3.820312 -22.578125 5.53125 -24.046875 C 7.238281 -25.515625 9.1875 -26.25 11.375 -26.25 Z M 11.375 -26.25 "/></g></g></g><g fill="#000000" fill-opacity="1"><g transform="translate(720.837823, 49.622702)"><g/></g></g></svg>