<svg xmlns="http://www.w3.org/2000/svg" xmlns:xlink="http://www.w3.org/1999/xlink" width="1080" zoomAndPan="magnify" viewBox="0 0 810 675.000002" height="900" preserveAspectRatio="xMidYMid meet" version="1.0"><defs><clipPath id="93a781fb66"><path d="M 49.242188 0 L 760.6875 0 L 760.6875 674 L 49.242188 674 Z M 49.242188 0 " clip-rule="nonzero"/></clipPath></defs><path fill="#ffffff" d="M 320.78125 423.308594 C 320.78125 423.308594 320.765625 475.265625 324.890625 489.816406 C 329 504.367188 369.480469 532.828125 384.671875 539.480469 C 399.859375 546.117188 434.328125 539.800781 442.867188 537.257812 C 451.402344 534.730469 475.449219 516.695312 478.917969 512.585938 C 482.386719 508.476562 496.066406 479.835938 496.066406 479.835938 L 494.730469 422.757812 C 494.730469 422.757812 467.179688 452.460938 427.035156 450.257812 C 386.894531 448.050781 372.664062 448.371094 360.640625 442.679688 C 348.601562 436.988281 320.78125 423.308594 320.78125 423.308594 Z M 320.78125 423.308594 " fill-opacity="1" fill-rule="evenodd"/><path fill="#ffffff" d="M 552.625 202.113281 C 480.589844 204.855469 420.046875 188.242188 371.011719 152.292969 C 354.183594 174.292969 317.8125 191.476562 261.910156 203.839844 C 268.828125 113.710938 316.476562 67.015625 404.855469 63.726562 C 486.070312 69.898438 535.320312 116.023438 552.625 202.113281 Z M 494.800781 426.347656 C 471.128906 446.554688 440.484375 458.8125 407.117188 458.8125 L 405.65625 458.8125 C 391.089844 458.8125 377.074219 456.375 364.003906 451.894531 C 358.132812 449.863281 352.441406 447.445312 347 444.652344 C 338.886719 440.597656 331.242188 435.757812 324.144531 430.226562 C 323.023438 429.355469 321.902344 428.449219 320.816406 427.542969 C 320.871094 433.464844 321.011719 444.8125 321.511719 456.464844 L 323.09375 457.476562 C 325.726562 459.148438 328.429688 460.734375 331.167969 462.246094 L 331.167969 462.121094 C 334.03125 463.738281 336.933594 465.269531 339.902344 466.710938 C 359.910156 476.171875 382.199219 481.546875 405.65625 481.757812 C 406.136719 481.757812 406.636719 481.757812 407.117188 481.757812 C 439.773438 481.757812 470.1875 471.742188 495.460938 454.648438 Z M 494.800781 426.347656 " fill-opacity="1" fill-rule="evenodd"/><path fill="#ffffff" d="M 59.59375 660.457031 L 751.582031 661.71875 C 751.582031 661.71875 742.101562 574.734375 717.109375 539.941406 C 692.121094 505.148438 623.183594 476.6875 601.980469 470.996094 C 580.796875 465.304688 493.503906 469.09375 493.503906 469.09375 C 493.503906 469.09375 468.726562 524.21875 442.582031 532.988281 C 416.4375 541.738281 372.378906 539.320312 348.332031 523.1875 C 324.304688 507.054688 313.222656 467.832031 313.222656 467.832031 L 220.558594 465.925781 C 220.558594 465.925781 137.070312 489.335938 104.183594 526.65625 C 71.296875 563.992188 63.71875 606.378906 59.59375 660.457031 Z M 59.59375 660.457031 " fill-opacity="1" fill-rule="evenodd"/><path fill="#ffffff" d="M 427.019531 450.257812 C 347.960938 459.753906 316.957031 419.890625 301.464844 404.71875 C 285.976562 389.527344 259.722656 319 259.722656 319 L 260.257812 205.9375 C 260.257812 205.9375 314.289062 194.804688 332.148438 182.992188 C 350.003906 171.183594 374 154.445312 374 154.445312 C 374 154.445312 429.4375 187.101562 457.398438 192.828125 C 485.359375 198.558594 547.199219 199.429688 547.199219 199.429688 C 547.199219 199.429688 552.890625 323.730469 547.824219 340.808594 C 542.769531 357.902344 506.078125 440.773438 427.019531 450.257812 Z M 318.773438 482.933594 C 318.308594 481.867188 317.882812 480.832031 317.472656 479.835938 L 243.429688 479.835938 C 187.722656 479.835938 137.085938 500.917969 100.394531 534.855469 C 96.925781 538.058594 93.582031 541.402344 90.363281 544.835938 C 68.984375 577.722656 63.0625 614.953125 59.59375 660.457031 L 65.890625 660.472656 C 67.757812 617.925781 87.339844 579.398438 117.949219 551.078125 C 150.160156 521.285156 194.589844 502.785156 243.449219 502.785156 L 322.242188 502.785156 C 321.085938 498.835938 320.214844 494.796875 319.589844 490.671875 C 319.21875 488.109375 318.933594 485.53125 318.773438 482.933594 Z M 723.441406 550.457031 C 718.730469 544.996094 713.714844 539.78125 708.394531 534.855469 C 671.828125 500.917969 621.367188 479.835938 565.859375 479.835938 L 496.082031 479.835938 C 495.976562 483.804688 495.601562 487.699219 495.015625 491.542969 C 494.410156 495.367188 493.574219 499.121094 492.507812 502.785156 L 565.859375 502.785156 C 614.539062 502.785156 658.824219 521.285156 690.910156 551.078125 C 721.71875 579.679688 741.316406 618.671875 742.847656 661.71875 L 751.5625 661.738281 C 751.5625 661.71875 743.703125 589.625 723.441406 550.457031 Z M 301.128906 131.371094 C 327.808594 106.824219 364.605469 91.582031 405.089844 91.582031 C 445.570312 91.582031 482.371094 106.824219 509.046875 131.371094 C 528.738281 149.5 542.929688 172.695312 548.996094 198.558594 C 552.730469 198.523438 556.484375 198.433594 560.273438 198.289062 C 552.875 161.46875 539.621094 131.976562 520.539062 109.777344 C 489.945312 84.253906 449.394531 68.632812 405.089844 68.632812 C 373.605469 68.632812 344.011719 76.515625 318.558594 90.230469 C 297.25 107.429688 282.773438 131.886719 275.125 163.621094 C 282.042969 151.703125 290.832031 140.851562 301.128906 131.371094 Z M 301.128906 131.371094 " fill-opacity="1" fill-rule="evenodd"/><path fill="#ffffff" d="M 254.28125 238.6875 L 254.28125 292.050781 C 254.28125 312.878906 237.402344 329.761719 216.574219 329.761719 C 195.746094 329.761719 178.867188 312.878906 178.867188 292.050781 L 178.867188 238.6875 C 178.867188 217.855469 195.746094 200.976562 216.574219 200.976562 C 237.402344 200.976562 254.28125 217.855469 254.28125 238.6875 Z M 593.160156 200.746094 C 572.332031 200.746094 555.453125 217.625 555.453125 238.457031 L 555.453125 291.820312 C 555.453125 312.648438 572.332031 329.53125 593.160156 329.53125 C 613.988281 329.53125 630.867188 312.648438 630.867188 291.820312 L 630.867188 238.457031 C 630.867188 217.625 613.988281 200.746094 593.160156 200.746094 Z M 428.476562 355.234375 C 415.636719 355.234375 405.230469 365.710938 405.230469 378.640625 C 405.230469 391.574219 415.636719 402.050781 428.476562 402.050781 C 441.320312 402.050781 451.722656 391.574219 451.722656 378.640625 C 451.722656 365.710938 441.320312 355.234375 428.476562 355.234375 Z M 428.476562 355.234375 " fill-opacity="1" fill-rule="evenodd"/><g clip-path="url(#93a781fb66)"><path fill="#36383e" d="M 705.675781 511.910156 C 671.738281 477.96875 624.890625 456.890625 573.382812 456.890625 L 508.605469 456.890625 C 508.621094 456.039062 508.675781 455.183594 508.675781 454.328125 L 508.675781 423.238281 C 511.484375 420.800781 514.207031 418.257812 516.839844 415.625 C 524.84375 407.617188 532.011719 398.742188 538.183594 389.191406 C 570.605469 385.472656 595.933594 374.160156 602.40625 344.042969 C 612.707031 342.015625 621.917969 336.929688 629.070312 329.777344 C 638.476562 320.367188 644.328125 307.367188 644.328125 293.082031 L 644.328125 235.503906 C 644.328125 221.203125 638.476562 208.214844 629.070312 198.804688 L 628.339844 198.128906 C 622.132812 192.152344 614.46875 187.726562 605.964844 185.375 C 605.984375 185.164062 606 184.96875 606 184.753906 C 606 133.863281 583.855469 87.648438 548.179688 54.171875 C 512.660156 20.855469 463.765625 0.1875 410.03125 0.1875 L 399.914062 0.1875 C 346.179688 0.1875 297.285156 20.855469 261.785156 54.171875 C 226.105469 87.648438 203.960938 133.863281 203.960938 184.753906 C 203.960938 184.96875 203.980469 185.164062 204 185.375 C 195.195312 187.796875 187.28125 192.472656 180.949219 198.789062 L 180.894531 198.84375 C 171.484375 208.269531 165.632812 221.253906 165.632812 235.503906 L 165.632812 293.082031 C 165.632812 306.992188 171.199219 319.675781 180.21875 329.050781 L 180.894531 329.777344 C 190.304688 339.1875 203.285156 345.039062 217.585938 345.039062 C 229.609375 345.039062 240.691406 340.894531 249.511719 333.996094 C 255.667969 365.496094 271.210938 393.746094 293.105469 415.640625 C 297.214844 419.75 301.539062 423.609375 306.074219 427.257812 L 306.074219 454.367188 C 306.074219 455.21875 306.109375 456.074219 306.144531 456.925781 L 236.566406 456.925781 C 185.039062 456.925781 138.207031 478.003906 104.269531 511.945312 C 70.316406 545.847656 49.242188 592.703125 49.242188 644.214844 L 49.242188 662.324219 C 49.242188 668.65625 54.382812 673.796875 60.714844 673.796875 L 749.214844 673.796875 C 755.546875 673.796875 760.6875 668.65625 760.6875 662.324219 L 760.6875 644.214844 C 760.6875 592.703125 739.609375 545.847656 705.675781 511.910156 Z M 551.753906 363.023438 C 555.523438 353.738281 558.457031 344.007812 560.414062 333.960938 C 565.699219 338.105469 571.816406 341.253906 578.449219 343.101562 C 574.09375 353.222656 564.542969 359.378906 551.753906 363.023438 Z M 612.8125 215.011719 C 618.078125 220.277344 621.351562 227.515625 621.351562 235.484375 L 621.351562 293.066406 C 621.351562 301.035156 618.078125 308.292969 612.8125 313.539062 C 607.546875 318.804688 600.292969 322.078125 592.324219 322.078125 C 584.355469 322.078125 577.097656 318.804688 571.851562 313.539062 L 571.796875 313.539062 C 566.570312 308.308594 563.3125 301.050781 563.3125 293.066406 L 563.3125 235.484375 C 563.3125 227.480469 566.570312 220.242188 571.796875 215.011719 L 571.851562 214.957031 C 577.082031 209.726562 584.335938 206.472656 592.339844 206.472656 C 600.078125 206.472656 607.140625 209.515625 612.316406 214.460938 Z M 277.457031 70.839844 C 308.828125 41.402344 352.15625 23.132812 399.894531 23.132812 L 410.015625 23.132812 C 457.734375 23.132812 501.082031 41.402344 532.457031 70.839844 C 563.5625 100.03125 582.914062 140.230469 583.003906 184.398438 C 575.535156 185.769531 568.613281 188.757812 562.601562 192.988281 C 559.046875 155.351562 542.183594 121.429688 516.804688 96.046875 C 488.113281 67.355469 448.503906 49.53125 404.945312 49.53125 C 361.386719 49.53125 321.777344 67.355469 293.089844 96.046875 C 267.707031 121.429688 250.847656 155.351562 247.289062 192.988281 C 241.277344 188.757812 234.359375 185.769531 226.890625 184.398438 C 227.011719 140.230469 246.347656 100.03125 277.457031 70.839844 Z M 539.339844 191.425781 C 512.304688 191.316406 486.335938 187.847656 461.488281 181.054688 C 433.03125 173.261719 405.871094 161.023438 380.046875 144.359375 C 375.617188 141.511719 369.621094 142.027344 365.761719 145.921875 C 354.328125 157.378906 339.652344 166.929688 321.726562 174.5625 C 306.960938 180.839844 289.976562 185.785156 270.855469 189.449219 C 274.984375 159.546875 288.925781 132.671875 309.34375 112.25 C 333.890625 87.703125 367.753906 72.460938 404.980469 72.460938 C 442.207031 72.460938 476.074219 87.703125 500.617188 112.25 C 521.464844 133.117188 535.566406 160.742188 539.339844 191.425781 Z M 217.585938 322.078125 C 209.617188 322.078125 202.363281 318.804688 197.113281 313.539062 L 196.582031 313.039062 C 191.636719 307.847656 188.59375 300.800781 188.59375 293.066406 L 188.59375 235.484375 C 188.59375 227.480469 191.851562 220.242188 197.078125 215.011719 L 197.132812 214.957031 C 202.363281 209.726562 209.617188 206.472656 217.621094 206.472656 C 225.625 206.472656 232.867188 209.726562 238.09375 214.957031 L 238.09375 215.011719 C 243.359375 220.277344 246.632812 227.515625 246.632812 235.484375 L 246.632812 293.066406 C 246.632812 301.035156 243.359375 308.292969 238.09375 313.539062 C 232.8125 318.804688 225.554688 322.078125 217.585938 322.078125 Z M 269.539062 303.753906 L 269.539062 213 C 292.539062 208.964844 312.921875 203.183594 330.652344 195.621094 C 348.011719 188.242188 362.863281 179.132812 375.226562 168.355469 C 400.675781 183.828125 427.429688 195.425781 455.476562 203.09375 C 482.652344 210.527344 510.953125 214.265625 540.386719 214.28125 L 540.386719 303.738281 C 540.386719 326.664062 534.589844 348.296875 524.433594 367.277344 C 506.808594 368.449219 486.796875 367.71875 467.109375 366.972656 L 463.089844 366.832031 C 461.292969 360.941406 458.125 355.660156 453.964844 351.390625 C 447.222656 344.488281 437.902344 340.203125 427.660156 340.203125 C 417.414062 340.203125 408.09375 344.472656 401.351562 351.390625 C 394.703125 358.203125 390.574219 367.597656 390.574219 377.929688 C 390.574219 388.265625 394.703125 397.65625 401.351562 404.46875 C 408.09375 411.371094 417.414062 415.660156 427.660156 415.660156 C 437.902344 415.660156 447.222656 411.390625 453.964844 404.46875 C 457.964844 400.359375 461.027344 395.328125 462.859375 389.722656 L 466.308594 389.847656 C 480.464844 390.382812 494.75 390.914062 508.480469 390.808594 C 505.972656 393.78125 503.355469 396.660156 500.617188 399.417969 C 476.074219 423.964844 442.207031 439.210938 404.980469 439.210938 C 382.375 439.210938 361.03125 433.570312 342.25 423.664062 C 336.023438 420.285156 330.101562 416.40625 324.554688 412.101562 C 323.804688 411.53125 323.003906 411.070312 322.1875 410.695312 C 317.6875 407.191406 313.382812 403.4375 309.34375 399.417969 C 284.78125 374.851562 269.539062 340.984375 269.539062 303.753906 Z M 441.78125 377.929688 C 441.78125 382.09375 440.164062 385.847656 437.546875 388.515625 C 435.023438 391.113281 431.5 392.710938 427.625 392.710938 C 423.746094 392.710938 420.222656 391.113281 417.699219 388.515625 C 415.085938 385.847656 413.464844 382.09375 413.464844 377.929688 C 413.464844 373.769531 415.085938 370.015625 417.699219 367.347656 C 420.222656 364.75 423.746094 363.148438 427.625 363.148438 C 431.5 363.148438 435.023438 364.75 437.546875 367.347656 C 440.164062 370.015625 441.78125 373.769531 441.78125 377.929688 Z M 340.097656 448.15625 C 344.757812 450.308594 349.523438 452.265625 354.414062 453.957031 C 369 458.972656 384.582031 461.78125 400.730469 462.085938 C 400.890625 462.085938 401.050781 462.085938 401.210938 462.101562 C 401.976562 462.121094 402.722656 462.15625 403.488281 462.15625 L 411.207031 462.15625 C 428.335938 462.15625 444.859375 459.273438 460.296875 453.972656 C 469.136719 450.933594 477.636719 447.070312 485.695312 442.5 L 485.695312 454.347656 C 485.695312 475.230469 477.140625 494.210938 463.375 507.976562 C 449.605469 521.746094 430.613281 530.300781 409.75 530.300781 L 404.964844 530.300781 C 384.082031 530.300781 365.105469 521.746094 351.339844 507.976562 C 337.574219 494.210938 329.015625 475.210938 329.015625 454.347656 L 329.015625 442.625 C 332.628906 444.582031 336.328125 446.449219 340.097656 448.15625 Z M 72.183594 644.214844 C 72.183594 599.015625 90.683594 557.925781 120.472656 528.113281 C 150.265625 498.320312 191.371094 479.820312 236.566406 479.820312 L 309.453125 479.820312 C 314.023438 496.824219 323.003906 512.050781 335.117188 524.164062 C 350.46875 539.515625 370.851562 549.867188 393.492188 552.519531 L 393.492188 650.832031 L 72.183594 650.832031 Z M 737.742188 650.851562 L 416.4375 650.851562 L 416.4375 552.980469 C 441 551.328125 463.179688 540.636719 479.613281 524.183594 C 491.726562 512.070312 500.707031 496.824219 505.277344 479.835938 L 573.363281 479.835938 C 618.558594 479.835938 659.644531 498.335938 689.4375 528.132812 C 719.226562 557.925781 737.726562 599.035156 737.726562 644.234375 L 737.726562 650.851562 Z M 737.742188 650.851562 " fill-opacity="1" fill-rule="nonzero"/></g></svg>