<svg xmlns="http://www.w3.org/2000/svg" xmlns:xlink="http://www.w3.org/1999/xlink" width="1080" zoomAndPan="magnify" viewBox="0 0 810 809.999993" height="1080" preserveAspectRatio="xMidYMid meet" version="1.0"><defs><clipPath id="df4ebda317"><path d="M 330.347656 685 L 480 685 L 480 749.863281 L 330.347656 749.863281 Z M 330.347656 685 " clip-rule="nonzero"/></clipPath><clipPath id="f6fbd5a002"><path d="M 102.238281 60.128906 L 707.488281 60.128906 L 707.488281 659 L 102.238281 659 Z M 102.238281 60.128906 " clip-rule="nonzero"/></clipPath></defs><g clip-path="url(#df4ebda317)"><path fill="#ffb30f" d="M 404.886719 749.863281 C 438.921875 749.863281 467.859375 728.117188 478.617188 697.757812 C 480.78125 691.644531 476.332031 685.214844 469.851562 685.214844 L 339.925781 685.214844 C 333.445312 685.214844 328.996094 691.644531 331.160156 697.757812 C 341.914062 728.117188 370.855469 749.863281 404.886719 749.863281 " fill-opacity="1" fill-rule="nonzero"/></g><g clip-path="url(#f6fbd5a002)"><path fill="#ffc50f" d="M 700.152344 593.152344 L 680.410156 559.027344 C 659.222656 522.410156 648.070312 480.851562 648.070312 438.539062 L 648.070312 357.84375 C 648.070312 241.625 566.578125 144.503906 457.660156 120.382812 L 457.660156 112.921875 C 457.660156 83.765625 434.035156 60.132812 404.886719 60.132812 C 375.742188 60.132812 352.117188 83.765625 352.117188 112.921875 L 352.117188 120.382812 C 243.195312 144.503906 161.707031 241.625 161.707031 357.84375 L 161.707031 438.539062 C 161.707031 480.851562 150.550781 522.410156 129.367188 559.027344 L 109.621094 593.152344 C 90.578125 621.09375 110.582031 658.957031 144.386719 658.957031 L 665.390625 658.957031 C 699.195312 658.957031 719.195312 621.09375 700.152344 593.152344 " fill-opacity="1" fill-rule="nonzero"/></g><path fill="#ff1723" d="M 690.910156 195.746094 C 690.910156 259.253906 639.445312 310.742188 575.960938 310.742188 C 512.472656 310.742188 461.007812 259.253906 461.007812 195.746094 C 461.007812 132.238281 512.472656 80.753906 575.960938 80.753906 C 639.445312 80.753906 690.910156 132.238281 690.910156 195.746094 " fill-opacity="1" fill-rule="nonzero"/><path fill="#ffffff" d="M 593.691406 134.148438 L 593.691406 257.347656 L 562.960938 257.347656 L 562.960938 191.296875 C 562.960938 181.757812 562.730469 176.023438 562.277344 174.097656 C 561.820312 172.171875 560.5625 170.710938 558.507812 169.722656 C 556.457031 168.734375 551.878906 168.234375 544.777344 168.234375 L 541.738281 168.234375 L 541.738281 153.871094 C 556.597656 150.675781 567.878906 144.101562 575.585938 134.148438 L 593.691406 134.148438 " fill-opacity="1" fill-rule="nonzero"/></svg>