<svg xmlns="http://www.w3.org/2000/svg" xmlns:xlink="http://www.w3.org/1999/xlink" width="1080" zoomAndPan="magnify" viewBox="0 0 810 809.999993" height="1080" preserveAspectRatio="xMidYMid meet" version="1.0"><defs><clipPath id="d8a94cfd0e"><path d="M 6.257812 61 L 803 61 L 803 579 L 6.257812 579 Z M 6.257812 61 " clip-rule="nonzero"/></clipPath></defs><g clip-path="url(#d8a94cfd0e)"><path fill="#000000" d="M 726.09375 199.835938 L 256.179688 199.835938 C 255.363281 199.835938 254.550781 199.875 253.742188 199.957031 C 252.929688 200.035156 252.125 200.15625 251.324219 200.316406 C 250.523438 200.472656 249.734375 200.671875 248.953125 200.90625 C 248.171875 201.144531 247.40625 201.417969 246.652344 201.730469 C 245.898438 202.042969 245.164062 202.390625 244.445312 202.773438 C 243.726562 203.160156 243.027344 203.578125 242.347656 204.03125 C 241.671875 204.484375 241.015625 204.96875 240.386719 205.484375 C 239.757812 206.003906 239.152344 206.550781 238.578125 207.125 C 238 207.703125 237.453125 208.304688 236.9375 208.933594 C 236.417969 209.566406 235.933594 210.21875 235.480469 210.898438 C 235.027344 211.574219 234.609375 212.273438 234.226562 212.992188 C 233.839844 213.710938 233.492188 214.445312 233.179688 215.199219 C 232.867188 215.953125 232.59375 216.71875 232.355469 217.5 C 232.121094 218.277344 231.921875 219.070312 231.761719 219.867188 C 231.605469 220.667969 231.484375 221.472656 231.40625 222.285156 C 231.324219 223.09375 231.285156 223.90625 231.285156 224.722656 C 231.285156 225.539062 231.324219 226.351562 231.40625 227.164062 C 231.484375 227.972656 231.605469 228.777344 231.761719 229.578125 C 231.921875 230.378906 232.121094 231.167969 232.355469 231.945312 C 232.59375 232.726562 232.867188 233.492188 233.179688 234.246094 C 233.492188 235 233.839844 235.734375 234.226562 236.453125 C 234.609375 237.171875 235.027344 237.871094 235.480469 238.550781 C 235.933594 239.226562 236.417969 239.882812 236.9375 240.511719 C 237.453125 241.140625 238 241.746094 238.578125 242.320312 C 239.152344 242.898438 239.757812 243.445312 240.386719 243.960938 C 241.015625 244.476562 241.671875 244.960938 242.347656 245.414062 C 243.027344 245.867188 243.726562 246.285156 244.445312 246.671875 C 245.164062 247.054688 245.898438 247.402344 246.652344 247.714844 C 247.40625 248.027344 248.171875 248.300781 248.953125 248.539062 C 249.734375 248.773438 250.523438 248.972656 251.324219 249.132812 C 252.125 249.289062 252.929688 249.410156 253.742188 249.488281 C 254.550781 249.570312 255.363281 249.609375 256.179688 249.609375 L 726.09375 249.609375 C 726.667969 249.609375 727.238281 249.625 727.8125 249.664062 C 728.382812 249.699219 728.957031 249.753906 729.523438 249.824219 C 730.09375 249.898438 730.660156 249.988281 731.222656 250.097656 C 731.785156 250.203125 732.347656 250.332031 732.902344 250.472656 C 733.457031 250.617188 734.007812 250.78125 734.550781 250.957031 C 735.097656 251.136719 735.636719 251.332031 736.167969 251.546875 C 736.699219 251.761719 737.226562 251.988281 737.742188 252.238281 C 738.261719 252.484375 738.769531 252.746094 739.273438 253.023438 C 739.773438 253.304688 740.265625 253.597656 740.746094 253.910156 C 741.230469 254.21875 741.703125 254.546875 742.164062 254.886719 C 742.625 255.226562 743.074219 255.582031 743.515625 255.949219 C 743.953125 256.320312 744.378906 256.703125 744.792969 257.097656 C 745.210938 257.492188 745.609375 257.902344 746 258.324219 C 746.386719 258.746094 746.761719 259.179688 747.125 259.625 C 747.484375 260.070312 747.832031 260.527344 748.164062 260.996094 C 748.496094 261.464844 748.8125 261.941406 749.113281 262.429688 C 749.414062 262.917969 749.699219 263.414062 749.96875 263.921875 C 750.238281 264.425781 750.492188 264.941406 750.730469 265.460938 C 750.96875 265.984375 751.1875 266.515625 751.390625 267.050781 C 751.59375 267.585938 751.78125 268.128906 751.949219 268.675781 C 752.117188 269.222656 752.269531 269.777344 752.402344 270.335938 C 752.535156 270.894531 752.652344 271.453125 752.75 272.019531 C 752.847656 272.585938 752.929688 273.152344 752.988281 273.722656 C 753.050781 274.292969 753.09375 274.863281 753.121094 275.4375 C 753.144531 276.007812 753.152344 276.582031 753.140625 277.15625 C 753.128906 277.730469 753.101562 278.300781 753.054688 278.871094 C 753.007812 279.445312 752.941406 280.011719 752.855469 280.582031 C 752.773438 281.148438 752.671875 281.710938 752.550781 282.273438 C 752.429688 282.832031 752.292969 283.390625 752.136719 283.941406 C 751.984375 284.496094 751.808594 285.039062 751.621094 285.582031 C 751.429688 286.121094 751.222656 286.65625 751 287.183594 C 750.773438 287.714844 750.535156 288.234375 750.277344 288.746094 C 721.824219 345.828125 681.195312 473.164062 660.910156 513.691406 C 660.351562 514.808594 659.71875 515.882812 659.011719 516.910156 C 658.300781 517.941406 657.527344 518.917969 656.683594 519.835938 C 655.839844 520.757812 654.9375 521.617188 653.976562 522.414062 C 653.015625 523.210938 652.003906 523.9375 650.941406 524.59375 C 649.875 525.25 648.773438 525.828125 647.628906 526.332031 C 646.488281 526.835938 645.316406 527.257812 644.113281 527.597656 C 642.910156 527.941406 641.691406 528.195312 640.453125 528.367188 C 639.21875 528.539062 637.972656 528.625 636.726562 528.625 L 290.777344 528.625 C 289.429688 528.625 288.089844 528.527344 286.753906 528.328125 C 285.421875 528.128906 284.109375 527.832031 282.820312 527.4375 C 281.53125 527.042969 280.277344 526.554688 279.0625 525.972656 C 277.84375 525.390625 276.679688 524.722656 275.5625 523.964844 C 274.445312 523.207031 273.390625 522.375 272.402344 521.460938 C 271.410156 520.546875 270.492188 519.5625 269.648438 518.511719 C 268.800781 517.460938 268.042969 516.351562 267.363281 515.1875 C 266.683594 514.023438 266.097656 512.8125 265.597656 511.558594 C 265.597656 511.277344 187.78125 162.292969 187.78125 162.292969 C 187.390625 160.523438 186.960938 158.757812 186.492188 157.007812 C 186.023438 155.253906 185.519531 153.511719 184.980469 151.777344 C 184.441406 150.046875 183.863281 148.328125 183.25 146.621094 C 182.636719 144.914062 181.984375 143.21875 181.300781 141.539062 C 180.617188 139.859375 179.894531 138.195312 179.140625 136.542969 C 178.386719 134.894531 177.59375 133.261719 176.769531 131.644531 C 175.945312 130.03125 175.085938 128.433594 174.195312 126.851562 C 173.304688 125.273438 172.378906 123.710938 171.421875 122.171875 C 170.460938 120.628906 169.472656 119.109375 168.449219 117.613281 C 167.429688 116.113281 166.375 114.636719 165.289062 113.183594 C 164.207031 111.726562 163.089844 110.296875 161.945312 108.890625 C 160.800781 107.484375 159.625 106.101562 158.421875 104.742188 C 157.21875 103.386719 155.988281 102.054688 154.726562 100.746094 C 153.46875 99.441406 152.183594 98.164062 150.867188 96.914062 C 149.554688 95.660156 148.214844 94.4375 146.847656 93.246094 C 145.484375 92.050781 144.09375 90.886719 142.679688 89.75 C 141.265625 88.613281 139.824219 87.507812 138.363281 86.433594 C 136.902344 85.359375 135.417969 84.316406 133.914062 83.304688 C 132.410156 82.292969 130.882812 81.3125 129.335938 80.363281 C 127.789062 79.417969 126.222656 78.503906 124.636719 77.621094 C 123.050781 76.738281 121.449219 75.890625 119.828125 75.078125 C 118.207031 74.265625 116.566406 73.484375 114.914062 72.742188 C 113.257812 71.996094 111.589844 71.289062 109.90625 70.613281 C 108.222656 69.941406 106.523438 69.304688 104.8125 68.699219 C 103.101562 68.097656 101.378906 67.535156 99.640625 67.003906 C 97.90625 66.476562 96.160156 65.984375 94.40625 65.527344 C 92.648438 65.074219 90.886719 64.65625 89.113281 64.273438 C 87.339844 63.894531 85.558594 63.550781 83.769531 63.246094 C 81.980469 62.941406 80.1875 62.671875 78.386719 62.441406 C 76.589844 62.214844 74.785156 62.023438 72.976562 61.871094 C 71.171875 61.714844 69.359375 61.601562 67.550781 61.523438 C 65.738281 61.449219 63.921875 61.410156 62.109375 61.410156 L 31.183594 61.410156 C 30.355469 61.371094 29.527344 61.375 28.703125 61.421875 C 27.875 61.472656 27.054688 61.5625 26.238281 61.695312 C 25.421875 61.828125 24.613281 62.003906 23.8125 62.21875 C 23.015625 62.4375 22.230469 62.695312 21.457031 62.996094 C 20.6875 63.292969 19.933594 63.632812 19.195312 64.007812 C 18.460938 64.386719 17.742188 64.800781 17.050781 65.253906 C 16.355469 65.707031 15.6875 66.191406 15.046875 66.714844 C 14.402344 67.234375 13.789062 67.789062 13.207031 68.375 C 12.621094 68.960938 12.066406 69.574219 11.546875 70.21875 C 11.023438 70.859375 10.539062 71.527344 10.085938 72.222656 C 9.636719 72.914062 9.222656 73.628906 8.84375 74.367188 C 8.46875 75.105469 8.132812 75.859375 7.832031 76.628906 C 7.535156 77.402344 7.277344 78.1875 7.0625 78.984375 C 6.84375 79.785156 6.671875 80.59375 6.539062 81.410156 C 6.40625 82.226562 6.316406 83.046875 6.269531 83.875 C 6.222656 84.699219 6.21875 85.527344 6.257812 86.351562 C 6.261719 87.167969 6.300781 87.980469 6.382812 88.789062 C 6.464844 89.601562 6.585938 90.40625 6.746094 91.203125 C 6.90625 92.003906 7.105469 92.792969 7.34375 93.570312 C 7.582031 94.351562 7.855469 95.117188 8.167969 95.867188 C 8.480469 96.621094 8.832031 97.355469 9.214844 98.074219 C 9.597656 98.792969 10.019531 99.488281 10.472656 100.164062 C 10.925781 100.84375 11.410156 101.496094 11.925781 102.125 C 12.445312 102.753906 12.992188 103.359375 13.566406 103.933594 C 14.144531 104.511719 14.746094 105.054688 15.375 105.574219 C 16.003906 106.089844 16.660156 106.574219 17.335938 107.027344 C 18.011719 107.480469 18.710938 107.898438 19.429688 108.285156 C 20.148438 108.667969 20.882812 109.019531 21.636719 109.332031 C 22.386719 109.644531 23.152344 109.917969 23.933594 110.15625 C 24.714844 110.394531 25.503906 110.59375 26.300781 110.753906 C 27.101562 110.914062 27.90625 111.035156 28.714844 111.113281 C 29.527344 111.195312 30.339844 111.238281 31.152344 111.238281 L 62.109375 111.238281 C 64.332031 111.238281 66.554688 111.332031 68.769531 111.519531 C 70.984375 111.707031 73.191406 111.984375 75.382812 112.359375 C 77.574219 112.734375 79.75 113.199219 81.902344 113.753906 C 84.054688 114.3125 86.179688 114.957031 88.277344 115.695312 C 90.378906 116.429688 92.441406 117.253906 94.46875 118.164062 C 96.5 119.074219 98.484375 120.070312 100.429688 121.148438 C 102.375 122.226562 104.269531 123.382812 106.117188 124.625 C 107.964844 125.863281 109.757812 127.175781 111.492188 128.566406 C 113.226562 129.957031 114.902344 131.417969 116.515625 132.949219 C 118.125 134.480469 119.671875 136.074219 121.148438 137.738281 C 122.625 139.398438 124.03125 141.121094 125.363281 142.902344 C 126.695312 144.683594 127.949219 146.515625 129.125 148.402344 C 130.300781 150.289062 131.398438 152.222656 132.410156 154.199219 C 133.425781 156.179688 134.351562 158.195312 135.195312 160.253906 C 136.039062 162.3125 136.792969 164.402344 137.460938 166.523438 C 138.125 168.644531 138.699219 170.789062 139.1875 172.957031 L 217.230469 523.449219 C 217.429688 524.246094 217.65625 525.097656 217.914062 525.894531 C 218.546875 527.792969 219.25 529.660156 220.03125 531.5 C 220.808594 533.34375 221.660156 535.152344 222.578125 536.925781 C 223.5 538.703125 224.484375 540.4375 225.542969 542.136719 C 226.597656 543.835938 227.71875 545.488281 228.902344 547.101562 C 230.085938 548.710938 231.332031 550.273438 232.640625 551.785156 C 233.945312 553.300781 235.308594 554.757812 236.730469 556.167969 C 238.152344 557.574219 239.625 558.921875 241.152344 560.214844 C 242.675781 561.503906 244.25 562.734375 245.875 563.90625 C 247.496094 565.074219 249.160156 566.179688 250.871094 567.214844 C 252.578125 568.253906 254.324219 569.226562 256.109375 570.128906 C 257.894531 571.03125 259.710938 571.863281 261.558594 572.625 C 263.40625 573.382812 265.285156 574.070312 267.1875 574.683594 C 269.089844 575.300781 271.011719 575.839844 272.957031 576.300781 C 274.902344 576.765625 276.863281 577.152344 278.835938 577.464844 C 280.8125 577.773438 282.796875 578.007812 284.789062 578.164062 C 286.78125 578.320312 288.777344 578.398438 290.777344 578.398438 L 636.726562 578.398438 C 638.5 578.398438 640.269531 578.335938 642.039062 578.214844 C 643.804688 578.089844 645.566406 577.90625 647.324219 577.664062 C 649.078125 577.417969 650.824219 577.113281 652.558594 576.75 C 654.292969 576.382812 656.015625 575.957031 657.71875 575.472656 C 659.425781 574.988281 661.113281 574.445312 662.78125 573.84375 C 664.445312 573.242188 666.09375 572.585938 667.714844 571.871094 C 669.335938 571.15625 670.933594 570.386719 672.5 569.558594 C 674.070312 568.734375 675.609375 567.855469 677.117188 566.925781 C 678.625 565.992188 680.097656 565.007812 681.539062 563.976562 C 682.976562 562.941406 684.378906 561.859375 685.746094 560.726562 C 687.109375 559.597656 688.433594 558.421875 689.714844 557.199219 C 691 555.976562 692.238281 554.710938 693.433594 553.402344 C 694.632812 552.09375 695.78125 550.746094 696.882812 549.355469 C 697.984375 547.96875 699.039062 546.542969 700.042969 545.082031 C 701.046875 543.621094 701.996094 542.128906 702.898438 540.601562 C 703.796875 539.074219 704.644531 537.519531 705.4375 535.933594 C 725.695312 495.40625 766.238281 368.128906 794.804688 310.988281 C 795.535156 309.53125 796.214844 308.054688 796.851562 306.554688 C 797.484375 305.054688 798.070312 303.535156 798.609375 302 C 799.148438 300.464844 799.636719 298.910156 800.074219 297.34375 C 800.515625 295.777344 800.90625 294.195312 801.242188 292.605469 C 801.582031 291.011719 801.871094 289.410156 802.105469 287.796875 C 802.34375 286.1875 802.53125 284.570312 802.664062 282.949219 C 802.796875 281.324219 802.878906 279.699219 802.910156 278.074219 C 802.941406 276.445312 802.921875 274.816406 802.847656 273.191406 C 802.773438 271.566406 802.648438 269.941406 802.472656 268.324219 C 802.296875 266.707031 802.070312 265.09375 801.792969 263.488281 C 801.511719 261.886719 801.183594 260.292969 800.804688 258.710938 C 800.421875 257.125 799.992188 255.554688 799.511719 254 C 799.03125 252.445312 798.503906 250.90625 797.925781 249.382812 C 797.347656 247.859375 796.722656 246.359375 796.046875 244.875 C 795.375 243.394531 794.65625 241.933594 793.886719 240.496094 C 793.121094 239.0625 792.308594 237.648438 791.453125 236.265625 C 790.597656 234.878906 789.699219 233.523438 788.757812 232.195312 C 787.8125 230.867188 786.828125 229.570312 785.804688 228.304688 C 784.78125 227.039062 783.714844 225.808594 782.613281 224.609375 C 781.507812 223.414062 780.367188 222.25 779.191406 221.125 C 778.011719 220 776.800781 218.914062 775.554688 217.867188 C 774.308594 216.820312 773.03125 215.8125 771.71875 214.84375 C 770.410156 213.878906 769.070312 212.953125 767.699219 212.070312 C 766.328125 211.1875 764.933594 210.351562 763.511719 209.558594 C 762.089844 208.765625 760.640625 208.019531 759.171875 207.316406 C 757.699219 206.617188 756.210938 205.964844 754.699219 205.355469 C 753.1875 204.75 751.65625 204.195312 750.109375 203.683594 C 748.5625 203.175781 747 202.714844 745.421875 202.308594 C 743.847656 201.898438 742.257812 201.539062 740.660156 201.230469 C 739.058594 200.921875 737.453125 200.664062 735.835938 200.457031 C 734.222656 200.25 732.601562 200.09375 730.976562 199.992188 C 729.347656 199.886719 727.722656 199.835938 726.09375 199.835938 Z M 726.09375 199.835938 " fill-opacity="1" fill-rule="evenodd"/></g><path fill="#000000" d="M 317.835938 607.578125 C 316.171875 607.578125 314.507812 607.621094 312.84375 607.703125 C 311.183594 607.785156 309.523438 607.90625 307.867188 608.070312 C 306.210938 608.230469 304.558594 608.433594 302.910156 608.679688 C 301.265625 608.921875 299.625 609.207031 297.992188 609.53125 C 296.359375 609.855469 294.734375 610.222656 293.121094 610.625 C 291.507812 611.03125 289.902344 611.472656 288.308594 611.957031 C 286.71875 612.4375 285.136719 612.960938 283.570312 613.519531 C 282.003906 614.082031 280.449219 614.679688 278.910156 615.316406 C 277.375 615.953125 275.851562 616.628906 274.347656 617.339844 C 272.84375 618.050781 271.355469 618.796875 269.886719 619.582031 C 268.421875 620.367188 266.972656 621.1875 265.542969 622.042969 C 264.117188 622.898438 262.710938 623.789062 261.328125 624.710938 C 259.941406 625.636719 258.582031 626.59375 257.246094 627.585938 C 255.90625 628.578125 254.59375 629.601562 253.308594 630.65625 C 252.023438 631.710938 250.761719 632.800781 249.527344 633.917969 C 248.292969 635.035156 247.089844 636.179688 245.914062 637.359375 C 244.734375 638.535156 243.589844 639.738281 242.46875 640.972656 C 241.351562 642.207031 240.265625 643.464844 239.207031 644.75 C 238.152344 646.039062 237.128906 647.347656 236.136719 648.6875 C 235.144531 650.023438 234.1875 651.382812 233.261719 652.765625 C 232.335938 654.148438 231.449219 655.554688 230.589844 656.984375 C 229.734375 658.410156 228.914062 659.859375 228.128906 661.324219 C 227.347656 662.792969 226.597656 664.277344 225.886719 665.785156 C 225.175781 667.289062 224.5 668.808594 223.863281 670.347656 C 223.226562 671.882812 222.625 673.4375 222.066406 675.003906 C 221.503906 676.570312 220.984375 678.148438 220.5 679.742188 C 220.015625 681.335938 219.574219 682.9375 219.167969 684.550781 C 218.765625 686.167969 218.398438 687.789062 218.074219 689.421875 C 217.75 691.054688 217.464844 692.691406 217.222656 694.339844 C 216.976562 695.984375 216.773438 697.636719 216.609375 699.292969 C 216.445312 700.949219 216.324219 702.609375 216.242188 704.269531 C 216.160156 705.933594 216.121094 707.59375 216.121094 709.261719 C 216.121094 710.925781 216.160156 712.585938 216.242188 714.25 C 216.324219 715.910156 216.445312 717.570312 216.609375 719.226562 C 216.773438 720.882812 216.976562 722.53125 217.21875 724.179688 C 217.464844 725.824219 217.75 727.464844 218.074219 729.097656 C 218.398438 730.726562 218.761719 732.351562 219.167969 733.964844 C 219.570312 735.578125 220.015625 737.183594 220.496094 738.773438 C 220.980469 740.367188 221.503906 741.945312 222.0625 743.515625 C 222.625 745.082031 223.222656 746.632812 223.859375 748.171875 C 224.496094 749.707031 225.171875 751.226562 225.882812 752.734375 C 226.59375 754.238281 227.34375 755.722656 228.128906 757.191406 C 228.914062 758.65625 229.730469 760.105469 230.589844 761.53125 C 231.445312 762.960938 232.335938 764.367188 233.257812 765.75 C 234.183594 767.132812 235.140625 768.492188 236.132812 769.828125 C 237.125 771.167969 238.148438 772.476562 239.203125 773.765625 C 240.261719 775.050781 241.347656 776.308594 242.464844 777.542969 C 243.582031 778.777344 244.730469 779.980469 245.910156 781.15625 C 247.085938 782.335938 248.289062 783.480469 249.523438 784.597656 C 250.757812 785.714844 252.019531 786.804688 253.304688 787.859375 C 254.589844 788.914062 255.902344 789.9375 257.242188 790.929688 C 258.578125 791.921875 259.9375 792.878906 261.324219 793.804688 C 262.707031 794.726562 264.113281 795.617188 265.539062 796.472656 C 266.96875 797.328125 268.417969 798.148438 269.882812 798.933594 C 271.351562 799.71875 272.839844 800.464844 274.34375 801.175781 C 275.847656 801.886719 277.371094 802.5625 278.910156 803.199219 C 280.445312 803.835938 282 804.433594 283.566406 804.996094 C 285.132812 805.554688 286.714844 806.078125 288.308594 806.5625 C 289.902344 807.042969 291.503906 807.488281 293.121094 807.890625 C 294.734375 808.296875 296.359375 808.660156 297.992188 808.984375 C 299.625 809.308594 301.261719 809.59375 302.910156 809.839844 C 304.558594 810.082031 306.207031 810.285156 307.867188 810.449219 C 309.523438 810.613281 311.183594 810.734375 312.84375 810.816406 C 314.507812 810.898438 316.171875 810.941406 317.835938 810.941406 C 319.5 810.9375 321.164062 810.898438 322.828125 810.816406 C 324.492188 810.734375 326.152344 810.613281 327.808594 810.449219 C 329.464844 810.285156 331.117188 810.082031 332.765625 809.835938 C 334.410156 809.589844 336.050781 809.308594 337.683594 808.980469 C 339.316406 808.65625 340.941406 808.292969 342.554688 807.886719 C 344.171875 807.484375 345.777344 807.039062 347.367188 806.554688 C 348.960938 806.070312 350.542969 805.550781 352.109375 804.988281 C 353.675781 804.429688 355.230469 803.828125 356.769531 803.191406 C 358.308594 802.554688 359.828125 801.878906 361.332031 801.167969 C 362.839844 800.457031 364.324219 799.707031 365.792969 798.921875 C 367.261719 798.136719 368.710938 797.316406 370.136719 796.460938 C 371.566406 795.605469 372.972656 794.714844 374.355469 793.789062 C 375.742188 792.867188 377.101562 791.90625 378.4375 790.917969 C 379.777344 789.925781 381.085938 788.902344 382.375 787.84375 C 383.660156 786.789062 384.921875 785.703125 386.15625 784.582031 C 387.386719 783.464844 388.59375 782.320312 389.769531 781.140625 C 390.949219 779.964844 392.09375 778.757812 393.214844 777.527344 C 394.332031 776.292969 395.417969 775.03125 396.472656 773.746094 C 397.53125 772.460938 398.554688 771.148438 399.546875 769.8125 C 400.535156 768.472656 401.496094 767.113281 402.421875 765.730469 C 403.34375 764.34375 404.234375 762.941406 405.089844 761.511719 C 405.945312 760.085938 406.765625 758.636719 407.550781 757.167969 C 408.335938 755.699219 409.082031 754.214844 409.796875 752.710938 C 410.507812 751.207031 411.179688 749.683594 411.816406 748.148438 C 412.453125 746.609375 413.054688 745.058594 413.613281 743.488281 C 414.175781 741.921875 414.695312 740.34375 415.179688 738.75 C 415.660156 737.15625 416.105469 735.554688 416.507812 733.941406 C 416.914062 732.324219 417.277344 730.703125 417.601562 729.070312 C 417.925781 727.4375 418.210938 725.796875 418.453125 724.152344 C 418.699219 722.503906 418.902344 720.855469 419.0625 719.199219 C 419.226562 717.542969 419.347656 715.882812 419.429688 714.222656 C 419.511719 712.558594 419.550781 710.894531 419.550781 709.230469 C 419.550781 707.566406 419.507812 705.90625 419.425781 704.242188 C 419.34375 702.582031 419.21875 700.925781 419.054688 699.269531 C 418.890625 697.613281 418.683594 695.964844 418.441406 694.316406 C 418.195312 692.671875 417.910156 691.035156 417.582031 689.402344 C 417.257812 687.769531 416.890625 686.148438 416.484375 684.535156 C 416.082031 682.921875 415.636719 681.320312 415.152344 679.726562 C 414.667969 678.136719 414.144531 676.558594 413.585938 674.992188 C 413.023438 673.425781 412.421875 671.875 411.785156 670.335938 C 411.148438 668.800781 410.472656 667.28125 409.761719 665.777344 C 409.046875 664.273438 408.300781 662.789062 407.515625 661.324219 C 406.730469 659.855469 405.910156 658.410156 405.054688 656.980469 C 404.199219 655.554688 403.308594 654.152344 402.382812 652.769531 C 401.457031 651.386719 400.5 650.027344 399.507812 648.691406 C 398.515625 647.355469 397.492188 646.042969 396.4375 644.757812 C 395.378906 643.472656 394.292969 642.214844 393.175781 640.980469 C 392.058594 639.75 390.910156 638.542969 389.734375 637.367188 C 388.554688 636.191406 387.351562 635.046875 386.117188 633.929688 C 384.886719 632.8125 383.625 631.726562 382.339844 630.667969 C 381.050781 629.613281 379.742188 628.589844 378.402344 627.601562 C 377.066406 626.609375 375.707031 625.652344 374.324219 624.726562 C 372.941406 623.804688 371.535156 622.914062 370.109375 622.058594 C 368.679688 621.203125 367.234375 620.382812 365.765625 619.597656 C 364.296875 618.8125 362.8125 618.066406 361.308594 617.355469 C 359.804688 616.644531 358.28125 615.96875 356.746094 615.332031 C 355.207031 614.695312 353.65625 614.097656 352.089844 613.535156 C 350.523438 612.976562 348.941406 612.453125 347.351562 611.96875 C 345.757812 611.484375 344.15625 611.042969 342.542969 610.636719 C 340.925781 610.234375 339.304688 609.867188 337.671875 609.542969 C 336.039062 609.21875 334.402344 608.933594 332.753906 608.6875 C 331.109375 608.441406 329.457031 608.238281 327.800781 608.074219 C 326.144531 607.910156 324.488281 607.789062 322.824219 607.703125 C 321.164062 607.621094 319.5 607.582031 317.835938 607.578125 Z M 317.835938 761.167969 C 316.136719 761.164062 314.4375 761.082031 312.746094 760.914062 C 311.054688 760.75 309.375 760.5 307.707031 760.167969 C 306.039062 759.835938 304.390625 759.421875 302.761719 758.929688 C 301.136719 758.433594 299.535156 757.863281 297.964844 757.210938 C 296.394531 756.5625 294.859375 755.835938 293.359375 755.035156 C 291.859375 754.234375 290.402344 753.359375 288.988281 752.414062 C 287.574219 751.46875 286.210938 750.460938 284.894531 749.378906 C 283.578125 748.300781 282.320312 747.160156 281.117188 745.960938 C 279.917969 744.757812 278.777344 743.5 277.695312 742.1875 C 276.617188 740.871094 275.605469 739.507812 274.660156 738.09375 C 273.71875 736.679688 272.84375 735.226562 272.042969 733.726562 C 271.242188 732.226562 270.515625 730.691406 269.863281 729.121094 C 269.210938 727.550781 268.640625 725.953125 268.148438 724.324219 C 267.652344 722.699219 267.242188 721.050781 266.910156 719.386719 C 266.578125 717.71875 266.328125 716.039062 266.160156 714.347656 C 265.996094 712.65625 265.910156 710.960938 265.910156 709.261719 C 265.910156 707.558594 265.992188 705.863281 266.160156 704.171875 C 266.328125 702.480469 266.574219 700.804688 266.90625 699.136719 C 267.238281 697.46875 267.648438 695.824219 268.144531 694.195312 C 268.636719 692.570312 269.207031 690.972656 269.859375 689.402344 C 270.507812 687.832031 271.234375 686.296875 272.035156 684.796875 C 272.835938 683.296875 273.710938 681.84375 274.65625 680.429688 C 275.597656 679.015625 276.609375 677.652344 277.6875 676.335938 C 278.765625 675.023438 279.90625 673.765625 281.109375 672.5625 C 282.3125 671.363281 283.570312 670.222656 284.882812 669.144531 C 286.199219 668.0625 287.5625 667.050781 288.976562 666.109375 C 290.390625 665.164062 291.84375 664.289062 293.34375 663.488281 C 294.84375 662.6875 296.378906 661.960938 297.949219 661.308594 C 299.519531 660.660156 301.121094 660.085938 302.746094 659.59375 C 304.375 659.097656 306.019531 658.6875 307.6875 658.355469 C 309.355469 658.023438 311.035156 657.773438 312.726562 657.605469 C 314.421875 657.4375 316.117188 657.355469 317.816406 657.351562 C 319.515625 657.351562 321.214844 657.433594 322.90625 657.601562 C 324.597656 657.765625 326.277344 658.015625 327.945312 658.347656 C 329.613281 658.675781 331.261719 659.089844 332.890625 659.582031 C 334.515625 660.074219 336.117188 660.644531 337.6875 661.296875 C 339.257812 661.945312 340.792969 662.671875 342.292969 663.472656 C 343.792969 664.273438 345.25 665.144531 346.664062 666.089844 C 348.078125 667.03125 349.445312 668.042969 350.757812 669.121094 C 352.074219 670.199219 353.332031 671.339844 354.535156 672.539062 C 355.738281 673.742188 356.878906 675 357.957031 676.3125 C 359.039062 677.625 360.050781 678.988281 360.996094 680.402344 C 361.941406 681.8125 362.816406 683.269531 363.617188 684.769531 C 364.417969 686.265625 365.148438 687.800781 365.796875 689.371094 C 366.449219 690.941406 367.023438 692.539062 367.515625 694.167969 C 368.011719 695.792969 368.425781 697.441406 368.757812 699.105469 C 369.089844 700.773438 369.339844 702.453125 369.507812 704.144531 C 369.675781 705.835938 369.757812 707.53125 369.761719 709.230469 C 369.757812 710.929688 369.675781 712.628906 369.507812 714.320312 C 369.339844 716.011719 369.089844 717.691406 368.757812 719.359375 C 368.425781 721.023438 368.011719 722.671875 367.519531 724.300781 C 367.023438 725.925781 366.453125 727.523438 365.800781 729.09375 C 365.148438 730.664062 364.421875 732.199219 363.621094 733.699219 C 362.820312 735.199219 361.945312 736.65625 361.003906 738.070312 C 360.058594 739.484375 359.046875 740.847656 357.96875 742.160156 C 356.886719 743.476562 355.746094 744.734375 354.546875 745.9375 C 353.34375 747.140625 352.085938 748.28125 350.769531 749.359375 C 349.457031 750.4375 348.09375 751.449219 346.679688 752.394531 C 345.265625 753.339844 343.808594 754.214844 342.308594 755.015625 C 340.808594 755.820312 339.273438 756.546875 337.703125 757.195312 C 336.132812 757.847656 334.535156 758.421875 332.90625 758.917969 C 331.28125 759.410156 329.632812 759.824219 327.964844 760.160156 C 326.296875 760.492188 324.617188 760.742188 322.925781 760.910156 C 321.234375 761.078125 319.535156 761.164062 317.835938 761.167969 Z M 317.835938 761.167969 " fill-opacity="1" fill-rule="evenodd"/><path fill="#000000" d="M 601.332031 607.578125 C 599.667969 607.578125 598.003906 607.621094 596.339844 607.703125 C 594.679688 607.785156 593.019531 607.90625 591.363281 608.070312 C 589.703125 608.230469 588.054688 608.433594 586.40625 608.679688 C 584.761719 608.921875 583.121094 609.207031 581.488281 609.53125 C 579.855469 609.855469 578.230469 610.222656 576.617188 610.625 C 575.003906 611.03125 573.398438 611.472656 571.804688 611.957031 C 570.210938 612.4375 568.632812 612.960938 567.066406 613.519531 C 565.496094 614.082031 563.945312 614.679688 562.40625 615.316406 C 560.867188 615.953125 559.347656 616.628906 557.84375 617.339844 C 556.339844 618.050781 554.851562 618.796875 553.382812 619.582031 C 551.914062 620.367188 550.46875 621.1875 549.039062 622.042969 C 547.613281 622.898438 546.207031 623.789062 544.820312 624.710938 C 543.4375 625.636719 542.078125 626.59375 540.738281 627.585938 C 539.402344 628.578125 538.089844 629.601562 536.804688 630.65625 C 535.515625 631.710938 534.257812 632.800781 533.023438 633.917969 C 531.789062 635.035156 530.585938 636.179688 529.40625 637.359375 C 528.230469 638.535156 527.082031 639.738281 525.964844 640.972656 C 524.847656 642.207031 523.761719 643.464844 522.703125 644.75 C 521.648438 646.039062 520.625 647.347656 519.632812 648.6875 C 518.640625 650.023438 517.683594 651.382812 516.757812 652.765625 C 515.832031 654.148438 514.941406 655.554688 514.085938 656.984375 C 513.230469 658.410156 512.410156 659.859375 511.625 661.324219 C 510.839844 662.792969 510.09375 664.277344 509.382812 665.785156 C 508.667969 667.289062 507.996094 668.808594 507.359375 670.347656 C 506.722656 671.882812 506.121094 673.4375 505.5625 675.003906 C 505 676.570312 504.480469 678.148438 503.996094 679.742188 C 503.511719 681.335938 503.066406 682.9375 502.664062 684.550781 C 502.257812 686.167969 501.894531 687.789062 501.570312 689.421875 C 501.246094 691.054688 500.960938 692.691406 500.714844 694.339844 C 500.472656 695.984375 500.269531 697.636719 500.105469 699.292969 C 499.941406 700.949219 499.820312 702.609375 499.738281 704.269531 C 499.65625 705.933594 499.617188 707.59375 499.617188 709.261719 C 499.613281 710.925781 499.65625 712.585938 499.738281 714.25 C 499.820312 715.910156 499.941406 717.570312 500.105469 719.226562 C 500.265625 720.882812 500.472656 722.53125 500.714844 724.179688 C 500.960938 725.824219 501.242188 727.464844 501.566406 729.097656 C 501.894531 730.726562 502.257812 732.351562 502.660156 733.964844 C 503.066406 735.578125 503.511719 737.183594 503.992188 738.773438 C 504.476562 740.367188 505 741.945312 505.558594 743.515625 C 506.121094 745.082031 506.71875 746.632812 507.355469 748.171875 C 507.992188 749.707031 508.667969 751.226562 509.378906 752.734375 C 510.089844 754.238281 510.839844 755.722656 511.621094 757.191406 C 512.40625 758.65625 513.226562 760.105469 514.082031 761.53125 C 514.9375 762.960938 515.828125 764.367188 516.753906 765.75 C 517.679688 767.132812 518.636719 768.492188 519.628906 769.828125 C 520.621094 771.167969 521.644531 772.476562 522.699219 773.765625 C 523.757812 775.050781 524.84375 776.308594 525.960938 777.542969 C 527.078125 778.777344 528.226562 779.980469 529.402344 781.15625 C 530.582031 782.335938 531.785156 783.480469 533.019531 784.597656 C 534.253906 785.714844 535.511719 786.804688 536.800781 787.859375 C 538.085938 788.914062 539.398438 789.9375 540.734375 790.929688 C 542.074219 791.921875 543.433594 792.878906 544.816406 793.804688 C 546.203125 794.726562 547.609375 795.617188 549.035156 796.472656 C 550.464844 797.328125 551.910156 798.148438 553.378906 798.933594 C 554.847656 799.71875 556.335938 800.464844 557.839844 801.175781 C 559.34375 801.886719 560.867188 802.5625 562.402344 803.199219 C 563.941406 803.835938 565.496094 804.433594 567.0625 804.996094 C 568.628906 805.554688 570.210938 806.078125 571.804688 806.5625 C 573.394531 807.042969 575 807.488281 576.613281 807.890625 C 578.230469 808.296875 579.851562 808.660156 581.484375 808.984375 C 583.117188 809.308594 584.757812 809.59375 586.40625 809.839844 C 588.050781 810.082031 589.703125 810.285156 591.359375 810.449219 C 593.015625 810.613281 594.675781 810.734375 596.339844 810.816406 C 598.003906 810.898438 599.667969 810.941406 601.332031 810.941406 C 602.996094 810.9375 604.660156 810.898438 606.324219 810.816406 C 607.984375 810.734375 609.644531 810.613281 611.304688 810.449219 C 612.960938 810.285156 614.613281 810.082031 616.257812 809.835938 C 617.90625 809.589844 619.546875 809.308594 621.179688 808.980469 C 622.8125 808.65625 624.4375 808.292969 626.050781 807.886719 C 627.667969 807.484375 629.269531 807.039062 630.863281 806.554688 C 632.457031 806.070312 634.039062 805.550781 635.605469 804.988281 C 637.171875 804.429688 638.726562 803.828125 640.265625 803.191406 C 641.800781 802.554688 643.324219 801.878906 644.828125 801.167969 C 646.332031 800.457031 647.820312 799.707031 649.289062 798.921875 C 650.757812 798.136719 652.207031 797.316406 653.632812 796.460938 C 655.0625 795.605469 656.46875 794.714844 657.851562 793.789062 C 659.234375 792.867188 660.597656 791.90625 661.933594 790.917969 C 663.269531 789.925781 664.582031 788.902344 665.871094 787.84375 C 667.15625 786.789062 668.417969 785.703125 669.648438 784.582031 C 670.882812 783.464844 672.089844 782.320312 673.265625 781.140625 C 674.441406 779.964844 675.589844 778.757812 676.707031 777.527344 C 677.828125 776.292969 678.914062 775.03125 679.96875 773.746094 C 681.027344 772.460938 682.050781 771.148438 683.039062 769.8125 C 684.03125 768.472656 684.992188 767.113281 685.914062 765.730469 C 686.839844 764.34375 687.730469 762.941406 688.585938 761.511719 C 689.441406 760.085938 690.261719 758.636719 691.046875 757.167969 C 691.832031 755.699219 692.578125 754.214844 693.289062 752.710938 C 694 751.207031 694.675781 749.683594 695.3125 748.148438 C 695.949219 746.609375 696.546875 745.058594 697.109375 743.488281 C 697.667969 741.921875 698.191406 740.34375 698.675781 738.75 C 699.15625 737.15625 699.601562 735.554688 700.003906 733.941406 C 700.410156 732.324219 700.773438 730.703125 701.097656 729.070312 C 701.421875 727.4375 701.707031 725.796875 701.949219 724.152344 C 702.195312 722.503906 702.398438 720.855469 702.558594 719.199219 C 702.722656 717.542969 702.84375 715.882812 702.925781 714.222656 C 703.007812 712.558594 703.046875 710.894531 703.046875 709.230469 C 703.046875 707.566406 703.003906 705.90625 702.921875 704.242188 C 702.839844 702.582031 702.714844 700.921875 702.550781 699.269531 C 702.386719 697.613281 702.183594 695.960938 701.9375 694.316406 C 701.695312 692.671875 701.410156 691.03125 701.082031 689.402344 C 700.757812 687.769531 700.390625 686.144531 699.988281 684.53125 C 699.582031 682.917969 699.136719 681.316406 698.652344 679.726562 C 698.171875 678.132812 697.648438 676.554688 697.085938 674.988281 C 696.523438 673.421875 695.925781 671.871094 695.289062 670.332031 C 694.652344 668.796875 693.976562 667.277344 693.265625 665.773438 C 692.550781 664.269531 691.804688 662.785156 691.019531 661.316406 C 690.234375 659.847656 689.414062 658.402344 688.558594 656.976562 C 687.703125 655.550781 686.8125 654.144531 685.886719 652.761719 C 684.960938 651.378906 684.003906 650.019531 683.011719 648.683594 C 682.019531 647.347656 680.996094 646.035156 679.941406 644.75 C 678.882812 643.464844 677.796875 642.203125 676.679688 640.972656 C 675.5625 639.738281 674.414062 638.535156 673.238281 637.359375 C 672.058594 636.183594 670.855469 635.035156 669.621094 633.917969 C 668.386719 632.800781 667.128906 631.714844 665.839844 630.660156 C 664.554688 629.605469 663.242188 628.582031 661.90625 627.589844 C 660.570312 626.601562 659.210938 625.644531 657.824219 624.71875 C 656.441406 623.792969 655.035156 622.90625 653.609375 622.050781 C 652.179688 621.195312 650.734375 620.375 649.265625 619.589844 C 647.796875 618.804688 646.3125 618.058594 644.808594 617.347656 C 643.304688 616.636719 641.78125 615.960938 640.246094 615.324219 C 638.707031 614.6875 637.15625 614.089844 635.589844 613.527344 C 634.023438 612.96875 632.441406 612.445312 630.847656 611.964844 C 629.257812 611.480469 627.652344 611.035156 626.039062 610.632812 C 624.425781 610.226562 622.800781 609.863281 621.167969 609.539062 C 619.539062 609.210938 617.898438 608.929688 616.253906 608.683594 C 614.605469 608.4375 612.953125 608.234375 611.296875 608.070312 C 609.640625 607.910156 607.984375 607.785156 606.320312 607.703125 C 604.660156 607.621094 602.996094 607.582031 601.332031 607.578125 Z M 601.332031 761.167969 C 599.628906 761.164062 597.933594 761.082031 596.242188 760.914062 C 594.546875 760.75 592.867188 760.5 591.199219 760.167969 C 589.53125 759.835938 587.886719 759.421875 586.257812 758.929688 C 584.628906 758.433594 583.03125 757.863281 581.460938 757.210938 C 579.886719 756.5625 578.351562 755.835938 576.851562 755.035156 C 575.351562 754.234375 573.898438 753.359375 572.484375 752.414062 C 571.070312 751.46875 569.703125 750.460938 568.390625 749.378906 C 567.074219 748.300781 565.816406 747.160156 564.613281 745.960938 C 563.410156 744.757812 562.269531 743.5 561.191406 742.1875 C 560.113281 740.871094 559.101562 739.507812 558.15625 738.09375 C 557.210938 736.679688 556.339844 735.226562 555.539062 733.726562 C 554.734375 732.226562 554.007812 730.691406 553.359375 729.121094 C 552.707031 727.550781 552.136719 725.953125 551.640625 724.324219 C 551.148438 722.699219 550.734375 721.050781 550.402344 719.386719 C 550.074219 717.71875 549.824219 716.039062 549.65625 714.347656 C 549.488281 712.65625 549.40625 710.960938 549.40625 709.261719 C 549.40625 707.558594 549.488281 705.863281 549.65625 704.171875 C 549.820312 702.480469 550.070312 700.804688 550.402344 699.136719 C 550.734375 697.46875 551.144531 695.824219 551.640625 694.195312 C 552.132812 692.570312 552.703125 690.972656 553.355469 689.402344 C 554.003906 687.832031 554.730469 686.296875 555.53125 684.796875 C 556.332031 683.296875 557.207031 681.84375 558.148438 680.429688 C 559.09375 679.015625 560.105469 677.652344 561.183594 676.335938 C 562.261719 675.023438 563.402344 673.765625 564.605469 672.5625 C 565.808594 671.363281 567.066406 670.222656 568.378906 669.144531 C 569.691406 668.0625 571.058594 667.050781 572.46875 666.109375 C 573.882812 665.164062 575.339844 664.289062 576.839844 663.488281 C 578.339844 662.6875 579.875 661.960938 581.445312 661.308594 C 583.015625 660.660156 584.613281 660.085938 586.242188 659.59375 C 587.867188 659.097656 589.515625 658.6875 591.183594 658.355469 C 592.851562 658.023438 594.53125 657.773438 596.222656 657.605469 C 597.914062 657.4375 599.613281 657.355469 601.3125 657.351562 C 603.011719 657.351562 604.707031 657.433594 606.402344 657.601562 C 608.09375 657.765625 609.773438 658.015625 611.441406 658.347656 C 613.109375 658.675781 614.757812 659.089844 616.382812 659.582031 C 618.011719 660.074219 619.609375 660.644531 621.183594 661.296875 C 622.753906 661.945312 624.289062 662.671875 625.789062 663.472656 C 627.289062 664.273438 628.746094 665.144531 630.160156 666.089844 C 631.574219 667.03125 632.9375 668.042969 634.253906 669.121094 C 635.570312 670.199219 636.828125 671.339844 638.03125 672.539062 C 639.234375 673.742188 640.375 675 641.453125 676.3125 C 642.535156 677.625 643.546875 678.988281 644.492188 680.402344 C 645.4375 681.8125 646.308594 683.269531 647.113281 684.769531 C 647.914062 686.265625 648.640625 687.800781 649.292969 689.371094 C 649.945312 690.941406 650.519531 692.539062 651.011719 694.167969 C 651.507812 695.792969 651.921875 697.441406 652.253906 699.105469 C 652.585938 700.773438 652.835938 702.453125 653.003906 704.144531 C 653.171875 705.835938 653.253906 707.53125 653.257812 709.230469 C 653.253906 710.929688 653.171875 712.628906 653.003906 714.320312 C 652.835938 716.011719 652.585938 717.691406 652.253906 719.359375 C 651.921875 721.023438 651.507812 722.671875 651.015625 724.300781 C 650.519531 725.925781 649.949219 727.523438 649.296875 729.09375 C 648.644531 730.664062 647.917969 732.199219 647.117188 733.699219 C 646.316406 735.199219 645.441406 736.65625 644.496094 738.070312 C 643.550781 739.484375 642.539062 740.847656 641.460938 742.160156 C 640.382812 743.476562 639.242188 744.734375 638.039062 745.9375 C 636.839844 747.140625 635.582031 748.28125 634.265625 749.359375 C 632.953125 750.4375 631.589844 751.449219 630.175781 752.394531 C 628.761719 753.339844 627.304688 754.214844 625.804688 755.015625 C 624.304688 755.820312 622.769531 756.546875 621.199219 757.195312 C 619.628906 757.847656 618.03125 758.421875 616.402344 758.917969 C 614.777344 759.410156 613.128906 759.824219 611.460938 760.160156 C 609.792969 760.492188 608.113281 760.742188 606.421875 760.910156 C 604.726562 761.078125 603.03125 761.164062 601.332031 761.167969 Z M 601.332031 761.167969 " fill-opacity="1" fill-rule="evenodd"/></svg>