<svg xmlns="http://www.w3.org/2000/svg" xmlns:xlink="http://www.w3.org/1999/xlink" width="1080" zoomAndPan="magnify" viewBox="0 0 810 675.000002" height="900" preserveAspectRatio="xMidYMid meet" version="1.0"><defs><clipPath id="a8b37f8ba4"><path d="M 516 7.070312 L 727.773438 7.070312 L 727.773438 219 L 516 219 Z M 516 7.070312 " clip-rule="nonzero"/></clipPath><clipPath id="883fc0daeb"><path d="M 68 7.070312 L 280 7.070312 L 280 219 L 68 219 Z M 68 7.070312 " clip-rule="nonzero"/></clipPath><clipPath id="26e48f8522"><path d="M 516 455 L 727.773438 455 L 727.773438 666.839844 L 516 666.839844 Z M 516 455 " clip-rule="nonzero"/></clipPath><clipPath id="6c192c439c"><path d="M 68 455 L 280 455 L 280 666.839844 L 68 666.839844 Z M 68 455 " clip-rule="nonzero"/></clipPath></defs><g clip-path="url(#a8b37f8ba4)"><path fill="#3f48a0" d="M 727.773438 218.195312 L 674.988281 218.195312 L 674.988281 86.242188 C 674.988281 71.675781 663.167969 59.851562 648.597656 59.851562 L 516.644531 59.851562 L 516.644531 7.070312 L 648.597656 7.070312 C 692.25 7.070312 727.773438 42.589844 727.773438 86.242188 Z M 727.773438 218.195312 " fill-opacity="1" fill-rule="nonzero"/></g><g clip-path="url(#883fc0daeb)"><path fill="#3f48a0" d="M 120.78125 218.195312 L 68 218.195312 L 68 86.242188 C 68 42.589844 103.519531 7.070312 147.171875 7.070312 L 279.125 7.070312 L 279.125 59.851562 L 147.171875 59.851562 C 132.605469 59.851562 120.78125 71.675781 120.78125 86.242188 Z M 120.78125 218.195312 " fill-opacity="1" fill-rule="nonzero"/></g><g clip-path="url(#26e48f8522)"><path fill="#3f48a0" d="M 648.597656 666.839844 L 516.644531 666.839844 L 516.644531 614.058594 L 648.597656 614.058594 C 663.167969 614.058594 674.988281 602.238281 674.988281 587.667969 L 674.988281 455.714844 L 727.773438 455.714844 L 727.773438 587.667969 C 727.773438 631.320312 692.25 666.839844 648.597656 666.839844 Z M 648.597656 666.839844 " fill-opacity="1" fill-rule="nonzero"/></g><g clip-path="url(#6c192c439c)"><path fill="#3f48a0" d="M 279.125 666.839844 L 147.171875 666.839844 C 103.519531 666.839844 68 631.320312 68 587.667969 L 68 455.714844 L 120.78125 455.714844 L 120.78125 587.667969 C 120.78125 602.238281 132.605469 614.058594 147.171875 614.058594 L 279.125 614.058594 Z M 279.125 666.839844 " fill-opacity="1" fill-rule="nonzero"/></g><path fill="#de002a" d="M 331.910156 310.5625 L 180.160156 310.5625 C 169.234375 310.5625 160.367188 301.695312 160.367188 290.769531 L 160.367188 119.230469 C 160.367188 108.304688 169.234375 99.4375 180.160156 99.4375 L 331.910156 99.4375 C 342.835938 99.4375 351.703125 108.304688 351.703125 119.230469 L 351.703125 290.769531 C 351.703125 301.695312 342.835938 310.5625 331.910156 310.5625 Z M 199.953125 270.976562 L 312.113281 270.976562 L 312.113281 139.023438 L 199.953125 139.023438 Z M 199.953125 270.976562 " fill-opacity="1" fill-rule="nonzero"/><path fill="#de002a" d="M 642 574.472656 L 470.460938 574.472656 C 459.535156 574.472656 450.667969 565.605469 450.667969 554.679688 L 450.667969 462.3125 L 490.253906 462.3125 L 490.253906 534.886719 L 622.207031 534.886719 L 622.207031 429.324219 L 523.242188 429.324219 L 523.242188 389.738281 L 642 389.738281 C 652.925781 389.738281 661.792969 398.605469 661.792969 409.53125 L 661.792969 554.679688 C 661.792969 565.605469 652.925781 574.472656 642 574.472656 Z M 642 574.472656 " fill-opacity="1" fill-rule="nonzero"/><path fill="#de002a" d="M 615.609375 257.78125 L 496.851562 257.78125 C 485.925781 257.78125 477.058594 248.914062 477.058594 237.988281 L 477.058594 119.230469 C 477.058594 108.304688 485.925781 99.4375 496.851562 99.4375 L 615.609375 99.4375 C 626.535156 99.4375 635.402344 108.304688 635.402344 119.230469 L 635.402344 237.988281 C 635.402344 248.914062 626.535156 257.78125 615.609375 257.78125 Z M 516.644531 218.195312 L 595.816406 218.195312 L 595.816406 139.023438 L 516.644531 139.023438 Z M 516.644531 218.195312 " fill-opacity="1" fill-rule="nonzero"/><path fill="#de002a" d="M 404.484375 389.738281 L 180.160156 389.738281 L 180.160156 350.152344 L 384.691406 350.152344 L 384.691406 145.621094 L 424.277344 145.621094 L 424.277344 369.945312 C 424.277344 380.871094 415.410156 389.738281 404.484375 389.738281 Z M 404.484375 389.738281 " fill-opacity="1" fill-rule="nonzero"/><path fill="#de002a" d="M 490.253906 369.945312 L 450.667969 369.945312 L 450.667969 330.359375 C 450.667969 319.433594 459.535156 310.5625 470.460938 310.5625 L 615.609375 310.5625 L 615.609375 350.152344 L 490.253906 350.152344 Z M 490.253906 369.945312 " fill-opacity="1" fill-rule="nonzero"/><path fill="#de002a" d="M 325.308594 574.472656 L 180.160156 574.472656 C 169.234375 574.472656 160.367188 565.605469 160.367188 554.679688 L 160.367188 449.117188 C 160.367188 438.191406 169.234375 429.324219 180.160156 429.324219 L 325.308594 429.324219 C 336.238281 429.324219 345.105469 438.191406 345.105469 449.117188 L 345.105469 554.679688 C 345.105469 565.605469 336.238281 574.472656 325.308594 574.472656 Z M 199.953125 534.886719 L 305.515625 534.886719 L 305.515625 468.910156 L 199.953125 468.910156 Z M 199.953125 534.886719 " fill-opacity="1" fill-rule="nonzero"/><path fill="#de002a" d="M 371.496094 436.476562 L 411.082031 436.476562 L 411.082031 502.453125 L 371.496094 502.453125 Z M 371.496094 436.476562 " fill-opacity="1" fill-rule="nonzero"/></svg>