<svg xmlns="http://www.w3.org/2000/svg" xmlns:xlink="http://www.w3.org/1999/xlink" width="800" zoomAndPan="magnify" viewBox="0 0 600 599.999999" height="800" preserveAspectRatio="xMidYMid meet" version="1.0"><defs><clipPath id="cd1a44a4f4"><path d="M 42.476562 4.050781 L 586.007812 4.050781 L 586.007812 595.800781 L 42.476562 595.800781 Z M 42.476562 4.050781 " clip-rule="nonzero"/></clipPath></defs><g clip-path="url(#cd1a44a4f4)"><path fill="#d6d5d4" d="M 421.527344 595.800781 L 89.914062 595.800781 C 63.757812 595.800781 42.476562 574.535156 42.476562 548.394531 L 42.476562 517.785156 C 42.476562 484.410156 52.957031 452.578125 72.777344 425.730469 C 89.617188 402.925781 111.847656 385.480469 137.617188 374.71875 C 132.226562 365.207031 128.539062 356.125 126.59375 347.574219 C 113.835938 335.382812 106.589844 318.644531 106.589844 301.054688 C 106.589844 290.359375 109.304688 279.8125 114.464844 270.359375 L 114.464844 252.183594 C 114.464844 176.238281 172.542969 113.109375 246.675781 108.460938 C 249.714844 108.257812 252.871094 108.152344 256.019531 108.152344 C 275.132812 108.152344 293.929688 112.058594 311.359375 119.558594 C 311.285156 118.066406 311.25 116.574219 311.25 115.082031 C 311.25 84.058594 326.515625 55.339844 354.234375 34.226562 C 379.78125 14.769531 413.296875 4.050781 448.613281 4.050781 C 483.9375 4.050781 517.464844 14.769531 543.011719 34.222656 C 570.742188 55.335938 586.015625 84.054688 586.015625 115.082031 C 586.015625 143.679688 572.75 170.796875 548.660156 191.429688 C 525.921875 210.910156 495.355469 222.996094 462.304688 225.617188 L 407.910156 260.152344 C 404.480469 262.320312 400.785156 264.042969 396.953125 265.277344 L 396.953125 270.214844 C 402.121094 279.597656 404.839844 290.1875 404.839844 301.042969 C 404.839844 318.691406 397.554688 335.476562 384.730469 347.671875 C 382.707031 356.210938 379.015625 365.246094 373.691406 374.667969 C 399.503906 385.414062 421.765625 402.859375 438.628906 425.675781 C 458.476562 452.53125 468.96875 484.386719 468.96875 517.785156 L 468.96875 548.394531 C 468.96875 574.535156 447.6875 595.800781 421.527344 595.800781 " fill-opacity="1" fill-rule="nonzero"/></g><path fill="#141313" d="M 542.65625 36.621094 C 518.964844 18.585938 487.753906 8.648438 454.773438 8.648438 C 421.804688 8.648438 390.605469 18.585938 366.921875 36.621094 C 341.9375 55.65625 328.175781 81.332031 328.175781 108.921875 C 328.175781 117.164062 329.433594 125.289062 331.855469 133.136719 C 311.460938 120.121094 287.421875 112.75 262.183594 112.75 C 259.273438 112.75 256.332031 112.847656 253.515625 113.039062 C 185.035156 117.332031 131.398438 175.746094 131.398438 246.027344 L 131.398438 267.074219 C 126.289062 275.445312 123.519531 285.132812 123.519531 294.894531 C 123.519531 310.652344 130.671875 325.683594 142.617188 335.816406 C 144.558594 347.308594 150.363281 360.113281 159.933594 374.082031 C 101.09375 392.792969 59.402344 447.863281 59.402344 511.628906 L 59.402344 542.238281 C 59.402344 562.445312 75.859375 578.878906 96.078125 578.878906 L 427.6875 578.878906 C 447.914062 578.878906 464.371094 562.445312 464.371094 542.238281 L 464.371094 511.628906 C 464.371094 447.808594 422.625 392.722656 363.71875 374.050781 C 373.160156 360.199219 378.976562 347.421875 381.082031 335.863281 C 393.058594 325.730469 400.238281 310.671875 400.238281 294.886719 C 400.238281 284.867188 397.527344 275.324219 392.347656 266.964844 L 392.347656 250.449219 C 397.976562 249.875 403.421875 247.992188 408.300781 244.910156 L 464.992188 208.917969 C 530.632812 204.792969 581.410156 161.539062 581.410156 108.921875 C 581.410156 81.332031 567.648438 55.652344 542.65625 36.621094 " fill-opacity="1" fill-rule="nonzero"/><path fill="#ffdf41" d="M 175.953125 272.632812 C 187.625 254 200.917969 230.703125 218.28125 213.820312 C 220.617188 211.550781 224.429688 211.910156 226.300781 214.566406 C 248.066406 245.519531 275.980469 248.871094 316.804688 244.164062 C 333.777344 242.226562 348.574219 255.460938 348.671875 272.402344 C 348.679688 273.152344 350.394531 273.292969 350.382812 272.402344 L 350.382812 243.160156 C 350.382812 192.394531 307.402344 151.527344 256.15625 154.886719 C 209.722656 157.808594 173.359375 197.832031 173.359375 246.015625 L 173.359375 271.839844 C 173.359375 273.28125 175.617188 273.164062 175.953125 272.632812 " fill-opacity="1" fill-rule="nonzero"/><path fill="#ffdf41" d="M 307.253906 300.242188 C 304.554688 301.363281 301.460938 300.082031 300.339844 297.386719 C 299.238281 294.742188 295.46875 294.738281 294.359375 297.382812 C 293.246094 300.082031 290.148438 301.363281 287.453125 300.238281 C 284.753906 299.117188 283.472656 296.027344 284.597656 293.328125 C 289.265625 282.089844 305.371094 281.953125 310.105469 293.328125 C 311.230469 296.015625 309.949219 299.113281 307.253906 300.242188 Z M 290.941406 359.542969 C 274.585938 375.105469 248.972656 375.113281 232.621094 359.542969 C 230.507812 357.519531 230.433594 354.179688 232.4375 352.066406 C 234.460938 349.953125 237.808594 349.875 239.921875 351.890625 C 252.175781 363.558594 271.382812 363.558594 283.640625 351.890625 C 285.753906 349.878906 289.101562 349.953125 291.113281 352.066406 C 293.132812 354.179688 293.054688 357.519531 290.941406 359.542969 Z M 229.390625 297.386719 C 228.292969 294.742188 224.515625 294.738281 223.414062 297.386719 C 222.289062 300.085938 219.195312 301.359375 216.496094 300.242188 C 213.800781 299.113281 212.523438 296.015625 213.644531 293.328125 C 218.324219 282.105469 234.40625 281.921875 239.164062 293.328125 C 240.285156 296.015625 239.007812 299.113281 236.308594 300.242188 C 233.601562 301.363281 230.511719 300.082031 229.390625 297.386719 Z M 349.53125 283.828125 C 343.207031 283.828125 338.128906 278.585938 338.09375 272.460938 C 338.035156 261.710938 328.601562 253.433594 318.015625 254.667969 C 276.546875 259.433594 245.582031 256.125 221.445312 225.726562 C 206.84375 241.480469 195.429688 261.488281 184.917969 278.253906 C 182.722656 281.746094 178.929688 283.828125 174.769531 283.828125 C 170.585938 283.828125 165.480469 288.5 165.480469 294.890625 C 165.480469 301.316406 170.710938 306.542969 177.140625 306.542969 C 179.882812 306.542969 182.171875 308.632812 182.410156 311.363281 L 183.9375 328.515625 C 185.796875 342.902344 207.160156 367.988281 224.875 385.03125 C 232.671875 392.527344 242.972656 396.652344 253.894531 396.652344 L 269.859375 396.652344 C 280.78125 396.652344 291.082031 392.527344 298.875 385.03125 C 316.59375 367.988281 337.957031 342.90625 339.839844 328.308594 L 341.34375 311.363281 C 341.585938 308.632812 343.875 306.542969 346.613281 306.542969 C 353.039062 306.542969 358.265625 301.316406 358.265625 294.890625 C 358.265625 288.453125 352.96875 283.828125 349.53125 283.828125 " fill-opacity="1" fill-rule="nonzero"/><path fill="#ffdf41" d="M 305.015625 418.632812 C 305.015625 442.125 286.035156 461.714844 261.855469 461.714844 C 238.085938 461.714844 218.746094 442.386719 218.746094 418.632812 L 218.746094 409.222656 L 203.828125 409.222656 C 147.332031 409.222656 101.367188 455.160156 101.367188 511.625 L 101.367188 536.945312 L 145.019531 536.945312 L 145.019531 492.453125 C 145.019531 489.535156 147.386719 487.167969 150.308594 487.167969 C 153.234375 487.167969 155.597656 489.535156 155.597656 492.453125 L 155.597656 536.945312 L 368.15625 536.945312 L 368.15625 492.449219 C 368.15625 489.53125 370.523438 487.164062 373.445312 487.164062 C 376.363281 487.164062 378.730469 489.53125 378.730469 492.449219 L 378.730469 536.945312 L 422.394531 536.945312 L 422.394531 511.625 C 422.394531 455.160156 376.433594 409.222656 319.933594 409.222656 L 305.015625 409.222656 L 305.015625 418.632812 " fill-opacity="1" fill-rule="nonzero"/><path fill="#ffdf41" d="M 261.859375 451.144531 C 280.085938 451.144531 294.441406 436.40625 294.441406 418.632812 L 294.441406 401.152344 C 286.964844 405.105469 278.574219 407.226562 269.859375 407.226562 L 253.894531 407.226562 C 245.191406 407.226562 236.804688 405.113281 229.324219 401.164062 L 229.324219 418.632812 C 229.324219 436.558594 243.917969 451.144531 261.859375 451.144531 " fill-opacity="1" fill-rule="nonzero"/><path fill="#ffdf41" d="M 455.363281 177.875 L 391.464844 218.4375 C 387.417969 221.007812 382.300781 217.273438 383.503906 212.648438 L 396.339844 163.4375 C 373.222656 150.472656 359.554688 130.339844 359.554688 108.921875 C 359.554688 70.929688 402.273438 40.015625 454.777344 40.015625 C 507.300781 40.015625 550.03125 70.929688 550.03125 108.921875 C 550.03125 146.800781 507.621094 177.640625 455.363281 177.875 Z M 351.503906 316.574219 L 350.355469 329.449219 C 347.761719 349.632812 319.40625 380.664062 305.015625 393.695312 L 305.015625 398.652344 L 319.933594 398.652344 C 382.265625 398.652344 432.980469 449.332031 432.980469 511.625 L 432.980469 542.234375 C 432.980469 545.152344 430.605469 547.519531 427.6875 547.519531 L 96.078125 547.519531 C 93.15625 547.519531 90.789062 545.152344 90.789062 542.234375 L 90.789062 511.625 C 90.789062 449.332031 141.5 398.652344 203.828125 398.652344 L 218.746094 398.652344 L 218.746094 393.707031 C 205.027344 381.289062 176.011719 349.796875 173.421875 329.65625 L 172.253906 316.574219 C 162.339844 314.339844 154.90625 305.46875 154.90625 294.894531 C 154.90625 287.558594 158.515625 281.097656 164.015625 277.046875 C 163.246094 275.464844 162.777344 273.714844 162.777344 271.839844 L 162.777344 246.027344 C 162.777344 192.269531 203.496094 147.605469 255.480469 144.34375 C 313.121094 140.515625 360.96875 186.429688 360.96875 243.160156 L 360.96875 272.402344 C 360.96875 274.109375 360.566406 275.714844 359.886719 277.171875 C 365.292969 281.230469 368.851562 287.628906 368.851562 294.890625 C 368.851562 305.464844 361.417969 314.339844 351.503906 316.574219 Z M 454.773438 24.789062 C 393.875 24.789062 344.324219 62.527344 344.324219 108.921875 C 344.324219 132.316406 357.019531 154.597656 378.800781 170.296875 L 369.65625 205.359375 C 354.039062 160.902344 311.820312 128.890625 262.183594 128.890625 C 259.632812 128.890625 257.058594 128.972656 254.527344 129.144531 C 194.535156 132.90625 147.546875 184.246094 147.546875 246.027344 L 147.546875 272.050781 C 142.511719 278.546875 139.667969 286.589844 139.667969 294.894531 C 139.667969 308.195312 146.894531 320.332031 157.894531 326.992188 L 158.3125 331.601562 C 160.5625 349.09375 175.464844 369.496094 188.464844 384.34375 C 124.945312 391.957031 75.550781 446.136719 75.550781 511.628906 L 75.550781 542.238281 C 75.550781 553.546875 84.761719 562.742188 96.078125 562.742188 L 427.6875 562.742188 C 439.003906 562.742188 448.222656 553.546875 448.222656 542.238281 L 448.222656 511.628906 C 448.222656 446.121094 398.796875 391.929688 335.25 384.34375 C 348.261719 369.40625 363.21875 348.789062 365.53125 330.808594 L 365.867188 326.984375 C 376.863281 320.320312 384.085938 308.1875 384.085938 294.886719 C 384.085938 286.453125 381.289062 278.484375 376.199219 272 L 376.199219 243.160156 C 376.199219 238.527344 375.84375 233.984375 375.308594 229.496094 C 379.015625 232.65625 383.742188 234.5 388.640625 234.5 L 388.648438 234.5 C 392.515625 234.5 396.304688 233.394531 399.640625 231.289062 L 459.933594 193.011719 C 518.421875 190.949219 565.261719 153.925781 565.261719 108.921875 C 565.261719 62.527344 515.703125 24.789062 454.773438 24.789062 " fill-opacity="1" fill-rule="nonzero"/><path fill="#ffdf41" d="M 465.039062 114.265625 C 461.972656 115.675781 460.066406 118.472656 460.066406 121.570312 C 460.066406 121.039062 460.082031 128.253906 460.082031 128.789062 C 460.082031 131.710938 457.71875 134.078125 454.796875 134.078125 C 451.875 134.078125 449.503906 131.710938 449.503906 128.789062 C 449.507812 129.324219 449.488281 122.109375 449.488281 121.578125 C 449.480469 114.402344 453.855469 107.765625 460.625 104.660156 C 465.636719 102.359375 468.863281 97.335938 468.863281 91.847656 C 468.863281 84.3125 462.34375 77.804688 454.777344 77.804688 L 454.769531 77.804688 C 447.023438 77.804688 440.722656 84.109375 440.722656 91.847656 C 440.722656 94.773438 438.355469 97.136719 435.4375 97.136719 C 432.515625 97.136719 430.140625 94.773438 430.140625 91.847656 C 430.140625 78.28125 441.191406 67.238281 454.761719 67.234375 L 454.773438 67.234375 C 468.179688 67.234375 479.441406 78.457031 479.449219 91.847656 C 479.449219 101.453125 473.792969 110.253906 465.039062 114.265625 Z M 461.03125 143.558594 C 461.027344 146.484375 458.660156 148.84375 455.738281 148.84375 C 452.816406 148.84375 450.449219 146.484375 450.449219 143.558594 C 450.449219 140.636719 452.816406 138.148438 455.738281 138.148438 C 458.660156 138.148438 461.03125 140.382812 461.03125 143.308594 Z M 454.777344 50.59375 C 408.105469 50.59375 370.136719 76.757812 370.136719 108.921875 C 370.136719 127.414062 383.132812 145.019531 404.894531 156.015625 C 407.113281 157.136719 408.25 159.660156 407.625 162.066406 L 397.132812 202.3125 L 450.484375 168.441406 C 451.660156 167.703125 454 167.300781 454.777344 167.300781 C 501.46875 167.300781 539.453125 141.113281 539.453125 108.921875 C 539.453125 76.757812 501.464844 50.59375 454.777344 50.59375 " fill-opacity="1" fill-rule="nonzero"/></svg>