<svg xmlns="http://www.w3.org/2000/svg" xmlns:xlink="http://www.w3.org/1999/xlink" width="1080" zoomAndPan="magnify" viewBox="0 0 810 675.000002" height="900" preserveAspectRatio="xMidYMid meet" version="1.0"><defs><clipPath id="165b883cf1"><path d="M 148 205 L 673.359375 205 L 673.359375 662 L 148 662 Z M 148 205 " clip-rule="nonzero"/></clipPath></defs><g clip-path="url(#165b883cf1)"><path fill="#df4c57" d="M 149.820312 245.152344 C 136.585938 377.847656 202.875 644.550781 202.875 644.550781 C 202.875 644.550781 410.664062 678.800781 634.445312 649.351562 C 634.445312 649.351562 669.722656 280.683594 673.257812 230.53125 C 507.023438 191 213.484375 200.367188 149.820312 245.152344 Z M 149.820312 245.152344 " fill-opacity="1" fill-rule="nonzero"/></g><path fill="#f3e1d1" d="M 274.125 284.8125 C 271.238281 279.933594 267.355469 276.050781 262.480469 273.167969 C 261.523438 272.519531 260.527344 271.925781 259.53125 271.355469 C 257.136719 268.25 254.210938 265.570312 250.695312 263.707031 C 243.332031 259.8125 233.808594 257.457031 225.683594 260.433594 C 218.789062 262.957031 212.515625 265.867188 207.535156 271.496094 C 202.800781 276.855469 198.828125 283.105469 197.261719 290.195312 C 194.09375 304.46875 197.351562 320.253906 208.386719 330.476562 C 220.457031 341.65625 237.523438 344.515625 252.59375 338.148438 C 258.171875 335.796875 263.179688 332.972656 267.332031 328.328125 C 269.648438 325.742188 272.105469 322.804688 273.632812 319.644531 C 274.847656 317.136719 276.386719 313.925781 277.125 311.222656 C 277.992188 308.078125 278.109375 304.417969 278.546875 301.179688 C 278.535156 295.332031 277.046875 289.871094 274.125 284.8125 Z M 274.125 284.8125 " fill-opacity="1" fill-rule="nonzero"/><path fill="#f3e1d1" d="M 360.417969 410.601562 C 360.453125 409.808594 360.480469 409.007812 360.453125 408.191406 L 359.328125 399.78125 C 357.828125 394.425781 355.113281 389.765625 351.191406 385.820312 C 345.164062 380.28125 337.246094 376.167969 328.824219 376.554688 C 326.441406 376.660156 324.0625 376.773438 321.679688 376.878906 C 318.875 377.253906 316.078125 377.628906 313.273438 378.003906 C 309.15625 378.988281 305.5625 380.878906 302.507812 383.671875 C 300.128906 385.082031 298.238281 386.972656 296.828125 389.351562 C 294.035156 392.40625 292.144531 395.992188 291.160156 400.117188 C 290.476562 403.613281 290.035156 407.222656 289.6875 410.753906 C 289.609375 411.582031 289.609375 412.410156 289.675781 413.238281 C 289.933594 416.460938 290.125 420.460938 291.34375 423.734375 C 292.289062 426.28125 293.464844 429.59375 294.863281 431.925781 C 294.976562 432.132812 295.121094 432.339844 295.277344 432.519531 C 296.917969 434.65625 298.574219 436.789062 300.21875 438.925781 C 301.355469 440.101562 302.351562 440.683594 303.90625 441.886719 C 305.09375 442.808594 306.351562 443.917969 307.683594 444.746094 C 309.015625 445.40625 310.375 445.988281 311.769531 446.496094 C 313.128906 447.101562 314.5 447.671875 315.871094 448.214844 C 316.15625 448.292969 316.441406 448.359375 316.726562 448.421875 C 323.867188 449.960938 324.605469 449.808594 330.554688 449.003906 C 332.058594 448.796875 333.84375 448.679688 335.421875 448.304688 C 336.832031 447.851562 338.191406 447.285156 339.507812 446.609375 C 340.878906 446.054688 342.238281 445.472656 343.585938 444.890625 C 344.929688 444.125 346.144531 442.988281 347.324219 442.082031 C 349.082031 440.722656 349.78125 440.296875 350.957031 439.171875 C 354.660156 435.652344 358.359375 429.3125 359.511719 424.355469 C 359.808594 422.855469 360.015625 421.339844 360.144531 419.8125 C 360.855469 416.746094 360.933594 413.679688 360.417969 410.601562 Z M 360.417969 410.601562 " fill-opacity="1" fill-rule="nonzero"/><path fill="#f3e1d1" d="M 290.671875 548.859375 C 290.59375 543.59375 289.363281 538.339844 286.453125 533.890625 C 278.546875 521.777344 266.902344 515.074219 252.542969 514.183594 C 244.171875 513.664062 235.179688 516.316406 228.117188 520.679688 C 216.203125 528.039062 209.0625 541.03125 208.996094 554.996094 C 208.929688 569.136719 217.1875 581.519531 228.621094 589.15625 C 250.902344 604.023438 282.6875 592.960938 290.089844 566.925781 C 291.835938 560.804688 291.9375 554.632812 290.671875 548.859375 Z M 290.671875 548.859375 " fill-opacity="1" fill-rule="nonzero"/><path fill="#f3e1d1" d="M 519.703125 538.339844 C 515.535156 530.488281 507.292969 524.378906 498.832031 521.984375 C 497.371094 521.570312 495.882812 521.273438 494.410156 521.066406 C 486.761719 518.078125 478.238281 517.429688 470.136719 519.683594 C 456.992188 523.34375 446.371094 534.589844 443.265625 547.851562 C 440.070312 561.515625 443.511719 576.242188 453.4375 586.398438 C 472.222656 605.628906 506.429688 600.984375 519.960938 577.871094 C 527.191406 565.527344 526.261719 550.6875 519.703125 538.339844 Z M 519.703125 538.339844 " fill-opacity="1" fill-rule="nonzero"/><path fill="#f3e1d1" d="M 630.070312 455.0625 C 628.429688 452.925781 626.773438 450.789062 625.128906 448.65625 C 621.183594 444.734375 616.527344 442.015625 611.167969 440.515625 C 610.601562 440.308594 610.070312 440.140625 609.476562 440.011719 C 606.589844 439.363281 602.851562 438.847656 599.886719 438.71875 C 596.265625 438.5625 592.035156 439.300781 588.828125 440.011719 C 588.347656 440.117188 587.871094 440.246094 587.402344 440.386719 C 584.671875 441.253906 581.285156 442.691406 578.761719 444.035156 C 578.230469 444.320312 577.753906 444.617188 577.246094 444.953125 C 574.761719 446.636719 572.175781 448.644531 569.949219 450.675781 C 568.308594 452.808594 566.652344 454.945312 565.007812 457.078125 C 562.691406 460.714844 561.449219 464.636719 561.257812 468.839844 C 560.507812 471.648438 560.507812 474.445312 561.257812 477.253906 C 561.449219 481.472656 562.707031 485.390625 565.007812 489.015625 C 567.558594 494.230469 573.121094 499.300781 578.074219 502.121094 C 583.859375 505.421875 589.488281 506.636719 596.125 506.871094 C 602.023438 507.078125 609.074219 504.980469 614.15625 502.046875 C 616.292969 500.816406 618.660156 499.054688 620.832031 497.039062 C 623.5625 495.210938 625.839844 492.933594 627.625 490.179688 C 630.421875 487.125 632.308594 483.542969 633.292969 479.414062 C 635.117188 471.339844 634.714844 462.242188 630.070312 455.0625 Z M 630.070312 455.0625 " fill-opacity="1" fill-rule="nonzero"/><path fill="#f3e1d1" d="M 532.523438 341.253906 C 521.550781 330.65625 506.894531 326.96875 492.121094 330.710938 C 486.632812 332.09375 481.097656 335.042969 476.363281 338.992188 C 472.492188 340.738281 468.871094 343.222656 465.726562 346.46875 C 450.65625 362.074219 454.042969 386.867188 469.324219 400.933594 C 480.746094 411.441406 496.609375 415.75 511.769531 412.125 C 541.835938 404.945312 555.601562 363.550781 532.523438 341.253906 Z M 532.523438 341.253906 " fill-opacity="1" fill-rule="nonzero"/><path fill="#f3e1d1" d="M 625.96875 265.3125 C 624.988281 261.199219 623.097656 257.601562 620.304688 254.546875 C 618.078125 251.105469 615.117188 248.386719 611.429688 246.394531 C 608.90625 245.332031 606.382812 244.273438 603.871094 243.199219 C 598.269531 241.695312 592.65625 241.695312 587.054688 243.199219 C 584.53125 244.257812 582.007812 245.320312 579.5 246.394531 C 574.738281 249.203125 570.960938 252.992188 568.152344 257.742188 C 567.324219 259.398438 566.496094 261.066406 565.65625 262.722656 C 563.339844 266.359375 562.097656 270.28125 561.902344 274.488281 C 560.960938 278.691406 561.152344 282.898438 562.472656 287.101562 C 563.457031 291.21875 565.34375 294.816406 568.140625 297.867188 C 570.363281 301.308594 573.328125 304.027344 577.015625 306.019531 C 579.539062 307.082031 582.058594 308.144531 584.570312 309.214844 C 590.171875 310.71875 595.785156 310.71875 601.390625 309.214844 C 603.910156 308.15625 606.433594 307.09375 608.945312 306.019531 C 613.707031 303.210938 617.484375 299.421875 620.289062 294.671875 C 621.117188 293.015625 621.945312 291.347656 622.789062 289.691406 C 625.101562 286.054688 626.34375 282.132812 626.539062 277.929688 C 627.484375 273.722656 627.289062 269.515625 625.96875 265.3125 Z M 625.96875 265.3125 " fill-opacity="1" fill-rule="nonzero"/><path fill="#f9c833" d="M 649.296875 103.566406 C 649.296875 103.566406 596.394531 113.761719 537.117188 128.734375 C 597.3125 79.082031 579.613281 46.550781 523.441406 21.046875 C 466.257812 -4.921875 431.003906 67.851562 415.246094 129.546875 C 402.953125 67.839844 372.527344 -3.433594 315.03125 18.316406 C 254.277344 41.3125 235.570312 74.8125 304.164062 133.585938 C 237.265625 116.996094 172.035156 105.53125 172.035156 105.53125 L 206.925781 169.167969 L 180.546875 208.171875 C 224.933594 205.648438 300.839844 209.335938 354.101562 214.238281 C 359.082031 311.15625 379.707031 661.308594 379.707031 661.308594 L 470.023438 661.308594 L 489.542969 213.152344 C 540.363281 208.351562 603.496094 204.753906 642.464844 206.332031 L 615.453125 167.757812 Z M 457.875 142.308594 C 460.382812 103.292969 507.125 50.863281 530.257812 74.980469 C 537.59375 94.84375 516.714844 123.050781 495.507812 139.835938 C 483.179688 143.316406 471.042969 146.953125 459.503906 150.691406 C 458.234375 148.789062 457.628906 146.046875 457.875 142.308594 Z M 304.785156 71.695312 C 329.417969 49.113281 372.679688 104.457031 372.679688 143.550781 C 372.679688 147.429688 371.839844 150.1875 370.351562 151.984375 C 360.828125 148.957031 350.828125 146.007812 340.582031 143.148438 C 318.769531 125.808594 295.429688 92.746094 304.785156 71.695312 Z M 304.785156 71.695312 " fill-opacity="1" fill-rule="nonzero"/></svg>