<?xml version="1.0" standalone="no"?>
<!DOCTYPE svg PUBLIC "-//W3C//DTD SVG 20010904//EN"
 "http://www.w3.org/TR/2001/REC-SVG-20010904/DTD/svg10.dtd">
<svg version="1.0" xmlns="http://www.w3.org/2000/svg"
 width="160.000000pt" height="160.000000pt" viewBox="0 0 160.000000 160.000000"
 preserveAspectRatio="xMidYMid meet">

<g transform="translate(0.000000,160.000000) scale(0.100000,-0.100000)"
fill="#000000" stroke="none">
<path d="M634 1429 l-122 -121 -7 43 c-5 27 -18 53 -35 71 -26 26 -34 28 -107
28 -139 0 -153 -24 -153 -272 l0 -173 -102 -102 -102 -102 24 -26 24 -26 366
366 c201 201 372 365 380 365 8 0 179 -164 380 -365 l366 -366 24 26 24 26
-375 374 -375 375 -43 0 c-43 0 -48 -3 -167 -121z m-206 -129 l3 -75 -71 -70
-70 -69 0 140 c0 77 3 144 7 148 4 4 34 6 68 4 l60 -3 3 -75z"/>
<path d="M745 1351 c-49 -31 -513 -504 -525 -534 -6 -18 -10 -151 -10 -353 0
-358 3 -380 59 -408 23 -13 64 -16 188 -16 230 0 233 3 233 253 0 113 4 167
12 175 17 17 182 16 196 -1 6 -7 12 -85 14 -191 l3 -178 33 -29 32 -29 163 0
c189 0 218 9 236 77 12 41 15 627 5 684 -6 27 -56 84 -258 287 -138 140 -263
260 -278 268 -37 19 -67 18 -103 -5z m318 -299 l247 -249 0 -340 c0 -302 -2
-342 -16 -347 -9 -3 -78 -6 -154 -6 -127 0 -140 2 -150 19 -6 11 -10 89 -10
181 0 230 -7 240 -186 240 l-106 0 -34 -34 -34 -34 0 -175 c0 -137 -3 -177
-14 -186 -9 -8 -61 -11 -162 -9 l-149 3 -3 345 -2 344 248 248 c136 136 254
248 262 248 8 0 126 -112 263 -248z"/>
</g>
</svg>
