<svg xmlns="http://www.w3.org/2000/svg" xmlns:xlink="http://www.w3.org/1999/xlink" width="1080" zoomAndPan="magnify" viewBox="0 0 810 809.999993" height="1080" preserveAspectRatio="xMidYMid meet" version="1.0"><defs><clipPath id="a8682ff25b"><path d="M 201 226 L 609.539062 226 L 609.539062 609.128906 L 201 609.128906 Z M 201 226 " clip-rule="nonzero"/></clipPath><clipPath id="25a5a67cbf"><path d="M 281 201.128906 L 352 201.128906 L 352 272 L 281 272 Z M 281 201.128906 " clip-rule="nonzero"/></clipPath></defs><g clip-path="url(#a8682ff25b)"><path fill="#2c3d53" d="M 609.539062 413.542969 C 609.539062 396.042969 597.933594 386.003906 577.660156 386.003906 L 446.289062 386.003906 C 452.570312 364.679688 462.671875 317.507812 461.621094 307.246094 C 458.496094 277.476562 451.769531 241.808594 427.289062 230.496094 C 421.265625 227.65625 415.269531 226.382812 409.5 226.667969 C 402.328125 227.054688 395.15625 230.082031 388.714844 235.464844 C 374.6875 247.226562 375.488281 264.058594 376.21875 278.878906 C 376.378906 282.195312 376.539062 285.316406 376.539062 288.375 L 376.539062 305.492188 C 376.539062 315.882812 343.226562 370.449219 330.695312 391.011719 C 324.511719 401.113281 321.070312 406.785156 319.539062 409.6875 C 318.835938 410.257812 317.59375 411.121094 316 412.203125 C 314.375 401.015625 304.875 392.378906 293.398438 392.378906 L 224.347656 392.378906 C 211.757812 392.378906 201.492188 402.769531 201.492188 415.582031 L 201.492188 585.914062 C 201.492188 598.726562 211.757812 609.117188 224.347656 609.117188 L 293.398438 609.117188 C 303.121094 609.117188 311.441406 602.902344 314.726562 594.199219 C 316.511719 594.167969 318.167969 594.296875 319.378906 594.742188 C 322.886719 596.050781 326.203125 598.28125 329.742188 600.671875 C 334.457031 603.824219 339.335938 607.109375 345.425781 608.832031 C 345.964844 608.988281 346.570312 609.054688 347.148438 609.054688 L 535.550781 609.117188 C 554.070312 609.117188 569.148438 594.105469 569.148438 575.648438 C 569.148438 567.332031 566.121094 559.714844 561.085938 553.878906 C 575.394531 550.054688 585.980469 536.988281 585.980469 521.496094 C 585.980469 512.699219 582.570312 504.667969 576.957031 498.675781 C 589.648438 493.863281 598.667969 481.65625 598.667969 467.410156 C 598.667969 458.421875 595.164062 450.230469 589.363281 444.203125 C 601.21875 439.042969 609.539062 427.246094 609.539062 413.542969 M 303.503906 585.914062 C 303.503906 591.683594 298.976562 596.367188 293.398438 596.367188 L 224.347656 596.367188 C 218.800781 596.367188 214.242188 591.683594 214.242188 585.914062 L 214.242188 415.582031 C 214.242188 409.8125 218.800781 405.128906 224.347656 405.128906 L 293.398438 405.128906 C 298.976562 405.128906 303.503906 409.8125 303.503906 415.582031 L 303.503906 585.914062 M 575.90625 434.261719 L 569.148438 434.261719 C 565.835938 434.261719 563.0625 436.808594 562.808594 440.15625 C 562.550781 443.472656 564.910156 446.4375 568.191406 446.945312 C 578.460938 448.507812 585.917969 457.113281 585.917969 467.410156 C 585.917969 478.820312 576.542969 488.09375 565.003906 488.09375 L 553.59375 488.09375 C 550.117188 488.09375 547.28125 490.867188 547.214844 494.339844 C 547.121094 497.816406 549.832031 500.683594 553.304688 500.84375 C 564.460938 501.320312 573.226562 510.40625 573.226562 521.496094 C 573.226562 532.941406 563.890625 542.246094 552.410156 542.246094 L 536.792969 542.246094 C 533.316406 542.246094 530.484375 545.019531 530.417969 548.460938 C 530.320312 551.9375 533.03125 554.835938 536.507812 554.996094 C 547.664062 555.472656 556.398438 564.558594 556.398438 575.648438 C 556.398438 587.0625 547.058594 596.367188 535.550781 596.367188 L 348.101562 596.304688 C 344.277344 595.0625 340.675781 592.640625 336.847656 590.089844 C 332.863281 587.410156 328.71875 584.605469 323.84375 582.820312 C 321.355469 581.898438 318.804688 581.546875 316.257812 581.453125 L 316.257812 427.34375 C 329.324219 418.929688 329.964844 417.527344 330.601562 416.0625 C 331.367188 414.402344 336.308594 406.277344 341.566406 397.636719 C 371.789062 348.140625 389.289062 317.191406 389.289062 305.492188 L 389.289062 288.375 C 389.289062 285 389.128906 281.585938 388.96875 278.269531 C 388.300781 264.664062 387.726562 252.933594 396.910156 245.222656 C 399.90625 242.730469 404.625 239.703125 410.171875 239.417969 C 413.835938 239.226562 417.757812 240.121094 421.933594 242.066406 C 443.003906 251.785156 447.308594 293.0625 448.933594 308.582031 C 449.988281 318.847656 435.511719 381.828125 432.039062 388.933594 C 430.828125 390.847656 430.703125 393.238281 431.722656 395.277344 C 432.804688 397.414062 435.003906 398.753906 437.394531 398.753906 L 577.660156 398.753906 C 596.785156 398.753906 596.785156 409.496094 596.785156 413.542969 C 596.785156 424.953125 587.414062 434.261719 575.90625 434.261719 " fill-opacity="1" fill-rule="nonzero"/></g><path fill="#f35e52" d="M 293.398438 405.128906 L 224.347656 405.128906 C 218.800781 405.128906 214.242188 409.8125 214.242188 415.582031 L 214.242188 585.914062 C 214.242188 591.683594 218.800781 596.367188 224.347656 596.367188 L 293.398438 596.367188 C 298.976562 596.367188 303.503906 591.683594 303.503906 585.914062 L 303.503906 415.582031 C 303.503906 409.8125 298.976562 405.128906 293.398438 405.128906 M 258.875 577.242188 C 246.570312 577.242188 236.558594 567.234375 236.558594 554.933594 C 236.558594 542.628906 246.570312 532.621094 258.875 532.621094 C 271.179688 532.621094 281.1875 542.628906 281.1875 554.933594 C 281.1875 567.234375 271.179688 577.242188 258.875 577.242188 " fill-opacity="1" fill-rule="nonzero"/><path fill="#e4eef6" d="M 562.808594 440.15625 C 562.554688 443.46875 564.914062 446.433594 568.195312 446.945312 C 578.460938 448.507812 585.921875 457.113281 585.921875 467.40625 C 585.921875 478.820312 576.546875 488.09375 565.007812 488.09375 L 553.59375 488.09375 C 550.121094 488.09375 547.28125 490.867188 547.21875 494.339844 C 547.125 497.816406 549.832031 500.683594 553.308594 500.84375 C 564.464844 501.320312 573.230469 510.40625 573.230469 521.496094 C 573.230469 532.9375 563.894531 542.246094 552.414062 542.246094 L 536.792969 542.246094 C 533.320312 542.246094 530.480469 545.019531 530.417969 548.460938 C 530.324219 551.933594 533.03125 554.835938 536.507812 554.996094 C 547.664062 555.472656 556.402344 564.558594 556.402344 575.648438 C 556.402344 587.058594 547.0625 596.367188 535.550781 596.367188 L 348.105469 596.304688 C 344.277344 595.058594 340.675781 592.636719 336.851562 590.089844 C 332.867188 587.410156 328.722656 584.605469 323.84375 582.820312 C 321.355469 581.898438 318.808594 581.546875 316.257812 581.449219 L 316.257812 427.34375 C 329.328125 418.925781 329.964844 417.527344 330.601562 416.058594 C 331.367188 414.402344 336.308594 406.273438 341.570312 397.636719 C 371.789062 348.136719 389.292969 317.1875 389.292969 305.492188 L 389.292969 288.375 C 389.292969 284.996094 389.132812 281.585938 388.972656 278.269531 C 388.300781 264.660156 387.730469 252.933594 396.910156 245.21875 C 399.910156 242.730469 404.625 239.703125 410.171875 239.414062 C 413.835938 239.226562 417.761719 240.121094 421.933594 242.0625 C 443.007812 251.78125 447.308594 293.058594 448.9375 308.582031 C 449.988281 318.84375 435.515625 381.828125 432.039062 388.933594 C 430.828125 390.847656 430.703125 393.238281 431.722656 395.277344 C 432.804688 397.410156 435.003906 398.75 437.398438 398.75 L 577.664062 398.75 C 596.789062 398.75 596.789062 409.496094 596.789062 413.542969 C 596.789062 424.953125 587.417969 434.257812 575.910156 434.257812 L 569.152344 434.257812 C 565.835938 434.257812 563.0625 436.808594 562.808594 440.15625 " fill-opacity="1" fill-rule="nonzero"/><path fill="#2c3d53" d="M 309.433594 305.554688 C 308.320312 302.179688 305.320312 299.882812 301.210938 299.242188 L 275.769531 295.355469 L 264.324219 271.066406 C 261.710938 265.492188 257.40625 264.886719 255.6875 264.886719 C 253.964844 264.886719 249.691406 265.492188 247.078125 271.066406 L 235.636719 295.355469 L 210.164062 299.242188 C 206.082031 299.882812 203.085938 302.179688 201.9375 305.554688 C 200.792969 308.964844 201.84375 312.664062 204.808594 315.726562 L 223.425781 334.71875 L 219.027344 361.621094 C 218.292969 365.925781 219.601562 369.621094 222.597656 371.695312 C 224.0625 372.746094 225.785156 373.253906 227.570312 373.253906 C 229.324219 373.253906 231.171875 372.746094 232.988281 371.757812 L 255.6875 359.230469 L 278.382812 371.726562 C 282.050781 373.796875 285.84375 373.765625 288.777344 371.695312 C 291.773438 369.621094 293.078125 365.925781 292.378906 361.621094 L 287.980469 334.71875 L 306.597656 315.691406 C 309.53125 312.664062 310.582031 308.964844 309.433594 305.554688 M 274.335938 330.417969 L 278.765625 357.382812 L 255.6875 344.695312 L 232.636719 357.382812 L 237.039062 330.417969 L 218.003906 310.941406 L 244.273438 306.957031 L 255.6875 282.667969 L 267.128906 306.957031 L 293.367188 310.972656 L 274.335938 330.417969 " fill-opacity="1" fill-rule="nonzero"/><path fill="#fcd965" d="M 274.335938 330.417969 L 278.765625 357.382812 L 255.6875 344.699219 L 232.636719 357.382812 L 237.035156 330.417969 L 218.003906 310.941406 L 244.273438 306.957031 L 255.6875 282.671875 L 267.128906 306.957031 L 293.367188 310.976562 L 274.335938 330.417969 " fill-opacity="1" fill-rule="nonzero"/><g clip-path="url(#25a5a67cbf)"><path fill="#2c3d53" d="M 350.941406 227.273438 C 349.953125 224.34375 347.335938 222.304688 343.957031 221.789062 L 330.027344 219.65625 L 323.746094 206.300781 C 322.21875 203.082031 319.410156 201.136719 316.257812 201.136719 C 313.101562 201.136719 310.292969 203.082031 308.796875 206.300781 L 302.484375 219.65625 L 288.554688 221.789062 C 285.175781 222.304688 282.558594 224.34375 281.605469 227.273438 C 280.613281 230.207031 281.476562 233.457031 283.898438 235.976562 L 294.164062 246.429688 L 291.742188 261.316406 C 291.167969 264.851562 292.347656 268.039062 294.929688 269.859375 C 296.269531 270.78125 297.796875 271.261719 299.390625 271.261719 C 300.859375 271.261719 302.421875 270.847656 303.886719 270.046875 L 316.257812 263.226562 L 328.625 270.015625 C 331.683594 271.738281 335.03125 271.671875 337.582031 269.859375 C 340.164062 268.039062 341.375 264.851562 340.804688 261.316406 L 338.347656 246.429688 L 348.613281 235.941406 C 351.035156 233.457031 351.929688 230.207031 350.941406 227.273438 M 324.734375 242.128906 L 326.746094 254.429688 L 316.257812 248.660156 L 305.800781 254.429688 L 307.777344 242.128906 L 298.945312 233.105469 L 311.125 231.226562 L 316.257812 220.355469 L 321.386719 231.226562 L 333.566406 233.105469 L 324.734375 242.128906 " fill-opacity="1" fill-rule="nonzero"/></g><path fill="#fcd965" d="M 324.734375 242.125 L 326.746094 254.429688 L 316.257812 248.664062 L 305.800781 254.429688 L 307.777344 242.125 L 298.945312 233.105469 L 311.125 231.226562 L 316.257812 220.359375 L 321.386719 231.226562 L 333.566406 233.105469 L 324.734375 242.125 " fill-opacity="1" fill-rule="nonzero"/><path fill="#2c3d53" d="M 258.875 532.621094 C 246.570312 532.621094 236.558594 542.628906 236.558594 554.933594 C 236.558594 567.234375 246.570312 577.242188 258.875 577.242188 C 271.179688 577.242188 281.191406 567.234375 281.191406 554.933594 C 281.191406 542.628906 271.179688 532.621094 258.875 532.621094 Z M 258.875 564.496094 C 253.613281 564.496094 249.3125 560.191406 249.3125 554.933594 C 249.3125 549.671875 253.613281 545.371094 258.875 545.371094 C 264.167969 545.371094 268.4375 549.671875 268.4375 554.933594 C 268.4375 560.191406 264.167969 564.496094 258.875 564.496094 " fill-opacity="1" fill-rule="nonzero"/><path fill="#e4eef6" d="M 268.4375 554.933594 C 268.4375 560.191406 264.167969 564.496094 258.875 564.496094 C 253.613281 564.496094 249.3125 560.191406 249.3125 554.933594 C 249.3125 549.671875 253.613281 545.371094 258.875 545.371094 C 264.167969 545.371094 268.4375 549.671875 268.4375 554.933594 " fill-opacity="1" fill-rule="nonzero"/><path fill="#929ea9" d="M 448.824219 312.984375 C 448.808594 313.164062 448.792969 313.347656 448.773438 313.535156 C 448.773438 313.542969 448.777344 313.546875 448.777344 313.554688 C 448.796875 313.359375 448.808594 313.171875 448.824219 312.984375 M 411.152344 239.390625 C 410.820312 239.390625 410.496094 239.402344 410.171875 239.417969 C 404.625 239.703125 399.90625 242.730469 396.910156 245.21875 C 399.90625 242.730469 404.625 239.703125 410.171875 239.417969 C 410.496094 239.402344 410.820312 239.390625 411.152344 239.390625 C 414.535156 239.390625 418.128906 240.289062 421.933594 242.0625 C 443.007812 251.78125 447.308594 293.058594 448.933594 308.582031 C 448.972656 308.945312 448.992188 309.371094 448.992188 309.855469 C 448.992188 310.144531 448.984375 310.457031 448.96875 310.789062 C 449.007812 309.894531 449.003906 309.152344 448.933594 308.582031 C 447.308594 293.058594 443.007812 251.78125 421.933594 242.0625 C 418.128906 240.289062 414.535156 239.390625 411.152344 239.390625 " fill-opacity="1" fill-rule="nonzero"/><path fill="#f4f8fc" d="M 411.152344 239.390625 C 410.820312 239.390625 410.496094 239.402344 410.171875 239.417969 C 404.625 239.703125 399.90625 242.730469 396.910156 245.21875 C 389.257812 251.65625 388.367188 260.867188 388.714844 271.671875 C 389.035156 263.609375 390.820312 256.726562 396.910156 251.59375 C 399.90625 249.109375 404.625 246.078125 410.171875 245.789062 C 410.496094 245.777344 410.820312 245.765625 411.148438 245.765625 C 414.53125 245.765625 418.128906 246.664062 421.933594 248.4375 C 442.394531 257.871094 447.054688 297.078125 448.773438 313.535156 C 448.792969 313.347656 448.808594 313.164062 448.824219 312.984375 C 448.894531 312.179688 448.945312 311.445312 448.96875 310.789062 C 448.984375 310.457031 448.992188 310.144531 448.992188 309.855469 C 448.992188 309.371094 448.972656 308.945312 448.933594 308.582031 C 447.308594 293.058594 443.007812 251.78125 421.933594 242.058594 C 418.128906 240.289062 414.535156 239.390625 411.152344 239.390625 " fill-opacity="1" fill-rule="nonzero"/><path fill="#f68179" d="M 293.398438 405.128906 L 224.347656 405.128906 C 218.800781 405.128906 214.242188 409.8125 214.242188 415.582031 L 214.242188 421.957031 C 214.242188 416.1875 218.800781 411.503906 224.347656 411.503906 L 293.398438 411.503906 C 298.976562 411.503906 303.503906 416.1875 303.503906 421.957031 L 303.503906 415.582031 C 303.503906 409.8125 298.976562 405.128906 293.398438 405.128906 " fill-opacity="1" fill-rule="nonzero"/><path fill="#929ea9" d="M 596.789062 413.679688 C 596.789062 414.074219 596.773438 414.464844 596.75 414.855469 C 596.773438 414.46875 596.789062 414.078125 596.789062 413.679688 M 596.789062 413.617188 C 596.789062 413.636719 596.789062 413.652344 596.789062 413.667969 C 596.789062 413.652344 596.789062 413.636719 596.789062 413.617188 M 437.320312 398.75 C 437.328125 398.75 437.335938 398.75 437.339844 398.75 C 437.335938 398.75 437.328125 398.75 437.320312 398.75 M 437.253906 398.75 C 437.265625 398.75 437.273438 398.75 437.285156 398.75 C 437.277344 398.75 437.265625 398.75 437.253906 398.75 M 437.195312 398.746094 C 437.207031 398.746094 437.222656 398.746094 437.234375 398.75 C 437.222656 398.746094 437.207031 398.746094 437.195312 398.746094 M 437.128906 398.746094 C 437.148438 398.746094 437.164062 398.746094 437.183594 398.746094 C 437.164062 398.746094 437.148438 398.746094 437.128906 398.746094 M 434.765625 398.183594 C 435.5 398.515625 436.300781 398.710938 437.128906 398.746094 C 436.308594 398.710938 435.503906 398.515625 434.765625 398.183594 M 434.726562 398.164062 C 434.738281 398.171875 434.742188 398.175781 434.753906 398.179688 C 434.742188 398.175781 434.738281 398.171875 434.726562 398.164062 M 431.882812 395.5625 C 431.878906 395.566406 431.878906 395.566406 431.878906 395.570312 C 431.992188 395.765625 432.117188 395.957031 432.25 396.140625 C 432.117188 395.957031 431.996094 395.761719 431.882812 395.5625 " fill-opacity="1" fill-rule="nonzero"/><path fill="#f4f8fc" d="M 431.878906 395.570312 C 430.828125 397.417969 430.734375 399.707031 431.722656 401.652344 C 432.804688 403.789062 435.003906 405.128906 437.398438 405.128906 L 577.664062 405.128906 C 592.550781 405.128906 595.832031 411.628906 596.566406 416.410156 C 596.65625 415.902344 596.710938 415.382812 596.75 414.855469 C 596.773438 414.464844 596.789062 414.074219 596.789062 413.679688 C 596.789062 413.675781 596.789062 413.671875 596.789062 413.667969 C 596.789062 413.652344 596.789062 413.636719 596.789062 413.617188 C 596.789062 413.59375 596.789062 413.566406 596.789062 413.542969 C 596.789062 409.496094 596.789062 398.75 577.664062 398.75 L 437.398438 398.75 C 437.378906 398.75 437.359375 398.75 437.339844 398.75 C 437.335938 398.75 437.328125 398.75 437.320312 398.75 C 437.308594 398.75 437.300781 398.75 437.285156 398.75 C 437.273438 398.75 437.265625 398.75 437.253906 398.75 C 437.246094 398.75 437.242188 398.75 437.234375 398.75 C 437.222656 398.746094 437.207031 398.746094 437.195312 398.746094 C 437.191406 398.746094 437.1875 398.746094 437.183594 398.746094 C 437.164062 398.746094 437.148438 398.746094 437.128906 398.746094 C 436.300781 398.714844 435.5 398.515625 434.765625 398.183594 C 434.761719 398.183594 434.753906 398.183594 434.753906 398.179688 C 434.742188 398.175781 434.738281 398.171875 434.726562 398.164062 C 433.75 397.71875 432.890625 397.023438 432.25 396.140625 C 432.117188 395.957031 431.992188 395.765625 431.878906 395.570312 " fill-opacity="1" fill-rule="nonzero"/><path fill="#c1c7ce" d="M 556.144531 572.527344 C 554.550781 582.40625 545.941406 589.992188 535.550781 589.992188 L 348.105469 589.929688 C 344.277344 588.6875 340.675781 586.261719 336.851562 583.714844 C 332.867188 581.035156 328.722656 578.230469 323.84375 576.445312 C 321.355469 575.523438 318.808594 575.171875 316.257812 575.074219 L 316.257812 581.449219 C 318.808594 581.546875 321.355469 581.898438 323.84375 582.820312 C 328.722656 584.605469 332.867188 587.410156 336.851562 590.089844 C 340.675781 592.636719 344.277344 595.058594 348.105469 596.304688 L 535.550781 596.367188 C 547.058594 596.367188 556.402344 587.058594 556.402344 575.648438 C 556.402344 574.597656 556.304688 573.546875 556.144531 572.527344 " fill-opacity="1" fill-rule="nonzero"/><path fill="#d24d44" d="M 303.503906 579.539062 C 303.503906 585.308594 298.976562 589.992188 293.398438 589.992188 L 224.347656 589.992188 C 218.800781 589.992188 214.242188 585.308594 214.242188 579.539062 L 214.242188 585.914062 C 214.242188 591.683594 218.800781 596.367188 224.347656 596.367188 L 293.398438 596.367188 C 298.976562 596.367188 303.503906 591.683594 303.503906 585.914062 L 303.503906 579.539062 " fill-opacity="1" fill-rule="nonzero"/><path fill="#5f6150" d="M 277.613281 350.367188 L 278.765625 357.382812 L 277.617188 350.367188 L 277.613281 350.367188 " fill-opacity="1" fill-rule="nonzero"/><path fill="#d6b856" d="M 255.6875 338.320312 L 233.785156 350.371094 L 232.636719 357.382812 L 255.6875 344.695312 L 278.765625 357.382812 L 277.613281 350.363281 L 255.6875 338.320312 " fill-opacity="1" fill-rule="nonzero"/><path fill="#5f6150" d="M 306.921875 247.445312 L 306.914062 247.449219 L 305.800781 254.429688 L 306.921875 247.445312 " fill-opacity="1" fill-rule="nonzero"/><path fill="#d6b856" d="M 316.257812 242.285156 L 306.921875 247.445312 L 305.800781 254.429688 L 316.257812 248.660156 L 326.746094 254.429688 L 325.597656 247.417969 L 316.257812 242.285156 " fill-opacity="1" fill-rule="nonzero"/></svg>