<svg xmlns="http://www.w3.org/2000/svg" xmlns:xlink="http://www.w3.org/1999/xlink" width="1080" zoomAndPan="magnify" viewBox="0 0 810 809.999993" height="1080" preserveAspectRatio="xMidYMid meet" version="1.0"><defs><clipPath id="577c9b3c10"><path d="M 15 63 L 801.46875 63 L 801.46875 801.46875 L 15 801.46875 Z M 15 63 " clip-rule="nonzero"/></clipPath><clipPath id="dc17aaf1d9"><path d="M 18 63 L 805.632812 63 L 805.632812 801.46875 L 18 801.46875 Z M 18 63 " clip-rule="nonzero"/></clipPath><clipPath id="b946b0eaf9"><path d="M 172 13.96875 L 308 13.96875 L 308 150 L 172 150 Z M 172 13.96875 " clip-rule="nonzero"/></clipPath></defs><path fill="#dddddd" d="M 16.421875 215.601562 C 13.96875 222.351562 16.421875 229.105469 21.949219 235.242188 L 57.546875 272.070312 L 48.953125 323.628906 C 47.726562 332.222656 50.183594 338.972656 55.707031 343.269531 C 58.777344 345.109375 61.84375 346.339844 65.527344 346.339844 C 69.210938 346.339844 72.277344 345.109375 75.960938 343.269531 L 119.542969 319.332031 L 163.121094 343.269531 C 170.484375 346.953125 177.238281 346.953125 183.375 343.269531 C 188.898438 338.972656 191.355469 332.222656 190.128906 323.628906 L 181.535156 272.070312 L 217.136719 235.242188 C 222.660156 229.105469 225.113281 222.351562 222.660156 215.601562 C 220.203125 208.847656 214.679688 204.550781 206.699219 203.324219 L 157.597656 195.957031 L 135.5 149.308594 C 131.816406 138.261719 123.222656 137.035156 120.15625 137.035156 C 117.085938 137.035156 108.492188 138.261719 103.582031 148.695312 L 81.484375 195.34375 L 32.382812 202.710938 C 24.402344 204.550781 18.878906 208.847656 16.421875 215.601562 Z M 16.421875 215.601562 " fill-opacity="1" fill-rule="nonzero"/><path fill="#dddddd" d="M 303.679688 64.605469 C 301.839844 59.082031 296.929688 54.785156 290.175781 54.171875 L 263.167969 49.875 L 250.894531 24.097656 C 248.4375 17.957031 242.914062 14.273438 236.777344 14.273438 C 230.636719 14.273438 225.113281 17.957031 222.660156 24.097656 L 210.382812 49.875 L 183.375 54.171875 C 176.625 55.398438 171.714844 59.082031 169.871094 64.605469 C 168.03125 70.128906 169.871094 76.269531 174.167969 81.179688 L 193.8125 101.433594 L 188.898438 130.28125 C 187.671875 137.035156 190.128906 143.171875 195.039062 146.855469 C 197.492188 148.695312 200.5625 149.308594 203.632812 149.308594 C 206.699219 149.308594 209.769531 148.695312 212.222656 146.855469 L 236.164062 133.964844 L 260.101562 146.855469 C 266.238281 149.925781 272.375 149.925781 277.285156 146.242188 C 282.195312 142.558594 284.652344 136.421875 283.425781 129.667969 L 278.515625 100.820312 L 298.15625 80.566406 C 303.679688 76.269531 305.519531 70.128906 303.679688 64.605469 Z M 303.679688 64.605469 " fill-opacity="1" fill-rule="nonzero"/><path fill="#dddddd" d="M 144.707031 695.589844 C 144.707031 696.191406 144.675781 696.792969 144.617188 697.394531 C 144.558594 697.992188 144.472656 698.589844 144.351562 699.179688 C 144.234375 699.773438 144.089844 700.355469 143.914062 700.933594 C 143.738281 701.511719 143.535156 702.078125 143.304688 702.636719 C 143.074219 703.191406 142.816406 703.738281 142.53125 704.269531 C 142.25 704.800781 141.9375 705.316406 141.605469 705.820312 C 141.269531 706.320312 140.910156 706.804688 140.527344 707.269531 C 140.144531 707.738281 139.738281 708.183594 139.3125 708.609375 C 138.886719 709.035156 138.441406 709.441406 137.976562 709.824219 C 137.507812 710.207031 137.023438 710.5625 136.523438 710.898438 C 136.023438 711.234375 135.503906 711.542969 134.972656 711.828125 C 134.441406 712.113281 133.898438 712.371094 133.339844 712.601562 C 132.78125 712.832031 132.214844 713.035156 131.636719 713.210938 C 131.0625 713.382812 130.476562 713.53125 129.886719 713.648438 C 129.292969 713.765625 128.699219 713.855469 128.097656 713.914062 C 127.496094 713.972656 126.894531 714.003906 126.292969 714.003906 C 125.691406 714.003906 125.089844 713.972656 124.488281 713.914062 C 123.886719 713.855469 123.292969 713.765625 122.699219 713.648438 C 122.109375 713.53125 121.523438 713.382812 120.949219 713.210938 C 120.371094 713.035156 119.804688 712.832031 119.246094 712.601562 C 118.6875 712.371094 118.144531 712.113281 117.613281 711.828125 C 117.082031 711.542969 116.5625 711.234375 116.0625 710.898438 C 115.5625 710.5625 115.078125 710.207031 114.613281 709.824219 C 114.144531 709.441406 113.699219 709.035156 113.273438 708.609375 C 112.847656 708.183594 112.441406 707.738281 112.058594 707.269531 C 111.675781 706.804688 111.316406 706.320312 110.984375 705.820312 C 110.648438 705.316406 110.335938 704.800781 110.054688 704.269531 C 109.769531 703.738281 109.511719 703.191406 109.28125 702.636719 C 109.050781 702.078125 108.847656 701.511719 108.671875 700.933594 C 108.496094 700.355469 108.351562 699.773438 108.234375 699.179688 C 108.117188 698.589844 108.027344 697.992188 107.96875 697.394531 C 107.910156 696.792969 107.878906 696.191406 107.878906 695.589844 C 107.878906 694.984375 107.910156 694.382812 107.96875 693.785156 C 108.027344 693.183594 108.117188 692.585938 108.234375 691.996094 C 108.351562 691.40625 108.496094 690.820312 108.671875 690.242188 C 108.847656 689.667969 109.050781 689.097656 109.28125 688.542969 C 109.511719 687.984375 109.769531 687.441406 110.054688 686.910156 C 110.335938 686.375 110.648438 685.859375 110.984375 685.359375 C 111.316406 684.855469 111.675781 684.375 112.058594 683.90625 C 112.441406 683.441406 112.847656 682.996094 113.273438 682.566406 C 113.699219 682.140625 114.144531 681.738281 114.613281 681.355469 C 115.078125 680.972656 115.5625 680.613281 116.0625 680.277344 C 116.5625 679.941406 117.082031 679.632812 117.613281 679.347656 C 118.144531 679.066406 118.6875 678.808594 119.246094 678.578125 C 119.804688 678.34375 120.371094 678.144531 120.949219 677.96875 C 121.523438 677.792969 122.109375 677.644531 122.699219 677.527344 C 123.292969 677.410156 123.886719 677.324219 124.488281 677.261719 C 125.089844 677.203125 125.691406 677.175781 126.292969 677.175781 C 126.894531 677.175781 127.496094 677.203125 128.097656 677.261719 C 128.699219 677.324219 129.292969 677.410156 129.886719 677.527344 C 130.476562 677.644531 131.0625 677.792969 131.636719 677.96875 C 132.214844 678.144531 132.78125 678.34375 133.339844 678.578125 C 133.898438 678.808594 134.441406 679.066406 134.972656 679.347656 C 135.503906 679.632812 136.023438 679.941406 136.523438 680.277344 C 137.023438 680.613281 137.507812 680.972656 137.976562 681.355469 C 138.441406 681.738281 138.886719 682.140625 139.3125 682.566406 C 139.738281 682.996094 140.144531 683.441406 140.527344 683.90625 C 140.910156 684.375 141.269531 684.855469 141.605469 685.359375 C 141.9375 685.859375 142.25 686.375 142.53125 686.910156 C 142.816406 687.441406 143.074219 687.984375 143.304688 688.542969 C 143.535156 689.097656 143.738281 689.667969 143.914062 690.242188 C 144.089844 690.820312 144.234375 691.40625 144.351562 691.996094 C 144.472656 692.585938 144.558594 693.183594 144.617188 693.785156 C 144.675781 694.382812 144.707031 694.984375 144.707031 695.589844 Z M 144.707031 695.589844 " fill-opacity="1" fill-rule="nonzero"/><g clip-path="url(#577c9b3c10)"><path fill="#dddddd" d="M 740.089844 370.277344 L 487.203125 370.277344 C 499.480469 329.152344 518.507812 238.3125 516.667969 218.667969 C 510.527344 161.585938 497.640625 92.839844 450.378906 70.746094 C 438.714844 65.21875 427.054688 62.765625 416.003906 63.378906 C 402.5 63.992188 388.382812 70.128906 376.109375 80.566406 C 349.101562 103.277344 350.328125 135.808594 352.167969 164.042969 C 352.167969 170.179688 352.785156 176.316406 352.785156 182.457031 L 352.785156 215.601562 C 352.785156 235.855469 288.949219 340.816406 264.398438 380.097656 C 252.734375 399.738281 245.984375 410.171875 242.914062 416.3125 C 241.6875 417.539062 239.230469 419.378906 236.164062 421.222656 C 233.09375 399.738281 214.679688 383.167969 192.582031 383.167969 L 60.003906 383.167969 C 35.453125 383.167969 15.808594 403.421875 15.808594 427.972656 L 15.808594 755.742188 C 15.808594 780.292969 35.453125 800.546875 60.003906 800.546875 L 193.195312 800.546875 C 212.222656 800.546875 228.183594 788.886719 234.320312 771.699219 C 238.003906 771.699219 241.074219 771.699219 243.527344 772.925781 C 250.28125 775.382812 256.417969 779.679688 263.167969 784.589844 C 272.375 790.726562 281.582031 796.863281 293.246094 800.546875 C 294.472656 800.546875 295.699219 801.160156 296.316406 801.160156 L 659.066406 801.160156 C 694.667969 801.160156 723.515625 772.3125 723.515625 736.714844 C 723.515625 720.753906 717.378906 706.023438 708.171875 694.976562 C 735.792969 687.609375 756.046875 662.445312 756.046875 632.367188 C 756.046875 615.179688 749.296875 599.835938 738.859375 588.175781 C 763.414062 578.96875 780.597656 555.644531 780.597656 528.023438 C 780.597656 510.835938 773.847656 494.878906 762.800781 483.214844 C 785.507812 473.394531 801.46875 450.683594 801.46875 424.289062 C 801.46875 389.917969 779.371094 370.277344 740.089844 370.277344 Z M 126.292969 738.554688 C 102.355469 738.554688 83.328125 719.527344 83.328125 695.589844 C 83.328125 671.652344 102.355469 652.621094 126.292969 652.621094 C 150.230469 652.621094 169.257812 671.652344 169.257812 695.589844 C 169.257812 719.527344 150.230469 738.554688 126.292969 738.554688 Z M 737.019531 462.960938 L 724.128906 462.960938 C 717.992188 462.960938 712.46875 467.871094 711.855469 474.007812 C 711.242188 480.144531 716.152344 486.285156 722.289062 486.898438 C 741.929688 489.96875 756.660156 506.539062 756.660156 526.179688 C 756.660156 548.277344 738.859375 566.078125 716.152344 566.078125 L 694.054688 566.078125 C 687.300781 566.078125 681.777344 571.601562 681.777344 578.355469 C 681.777344 585.105469 686.6875 590.628906 693.441406 590.628906 C 714.921875 591.855469 731.496094 609.042969 731.496094 630.527344 C 731.496094 652.621094 713.695312 670.421875 691.597656 670.421875 L 661.523438 670.421875 C 654.769531 670.421875 649.246094 675.945312 649.246094 682.699219 C 649.246094 689.449219 654.15625 694.976562 660.910156 694.976562 C 682.390625 696.203125 698.964844 713.390625 698.964844 734.871094 C 698.964844 756.96875 681.164062 774.769531 659.066406 774.769531 L 298.15625 775.382812 C 290.789062 772.925781 284.039062 768.015625 276.671875 763.105469 C 268.695312 758.195312 260.714844 752.671875 251.507812 748.988281 C 246.597656 747.148438 241.6875 746.535156 236.777344 746.535156 L 236.777344 450.070312 C 261.941406 434.113281 263.167969 431.042969 264.398438 428.585938 C 265.625 425.519531 275.445312 409.558594 285.265625 392.988281 C 343.578125 297.847656 377.335938 238.3125 377.335938 215.601562 L 377.335938 182.457031 C 377.335938 175.703125 376.722656 169.566406 376.722656 162.8125 C 375.492188 136.421875 374.265625 114.324219 392.066406 98.980469 C 397.589844 94.070312 406.796875 88.542969 417.847656 87.929688 C 425.210938 87.316406 432.578125 89.160156 440.554688 92.839844 C 481.066406 111.867188 489.660156 191.046875 492.730469 221.125 C 494.570312 240.765625 466.949219 362.296875 460.199219 375.800781 C 457.742188 379.484375 457.742188 384.394531 459.585938 388.078125 C 461.425781 392.375 465.722656 394.828125 470.632812 394.828125 L 740.703125 394.828125 C 777.53125 394.828125 777.53125 415.699219 777.53125 423.0625 C 776.917969 445.160156 759.117188 462.960938 737.019531 462.960938 Z M 737.019531 462.960938 " fill-opacity="1" fill-rule="nonzero"/></g><g clip-path="url(#dc17aaf1d9)"><path fill="#2c3d53" d="M 805.636719 423.960938 C 805.636719 390.1875 783.257812 370.808594 744.160156 370.808594 L 490.820312 370.808594 C 502.929688 329.652344 522.414062 238.597656 520.386719 218.792969 C 514.359375 161.332031 501.390625 92.488281 454.175781 70.652344 C 442.5625 65.171875 431 62.714844 419.875 63.265625 C 406.042969 64.011719 392.210938 69.851562 379.789062 80.246094 C 352.742188 102.949219 354.277344 135.433594 355.691406 164.035156 C 356 170.4375 356.308594 176.464844 356.308594 182.371094 L 356.308594 215.40625 C 356.308594 235.460938 292.066406 340.785156 267.90625 380.46875 C 255.976562 399.96875 249.339844 410.917969 246.386719 416.515625 C 245.035156 417.625 242.636719 419.285156 239.5625 421.375 C 236.429688 399.78125 218.109375 383.113281 195.976562 383.113281 L 62.820312 383.113281 C 38.539062 383.113281 18.742188 403.167969 18.742188 427.898438 L 18.742188 756.664062 C 18.742188 781.394531 38.539062 801.449219 62.820312 801.449219 L 195.976562 801.449219 C 214.726562 801.449219 230.773438 789.453125 237.105469 772.65625 C 240.546875 772.597656 243.742188 772.839844 246.082031 773.703125 C 252.84375 776.226562 259.238281 780.53125 266.058594 785.144531 C 275.160156 791.234375 284.566406 797.574219 296.304688 800.894531 C 297.351562 801.203125 298.519531 801.324219 299.628906 801.324219 L 662.953125 801.449219 C 698.667969 801.449219 727.746094 772.472656 727.746094 736.851562 C 727.746094 720.796875 721.90625 706.09375 712.195312 694.835938 C 739.792969 687.449219 760.207031 662.230469 760.207031 632.328125 C 760.207031 615.351562 753.628906 599.847656 742.804688 588.28125 C 767.273438 578.992188 784.675781 555.429688 784.675781 527.929688 C 784.675781 510.582031 777.914062 494.769531 766.726562 483.144531 C 789.589844 473.175781 805.636719 450.414062 805.636719 423.960938 M 215.464844 756.664062 C 215.464844 767.796875 206.734375 776.839844 195.976562 776.839844 L 62.820312 776.839844 C 52.121094 776.839844 43.332031 767.796875 43.332031 756.664062 L 43.332031 427.898438 C 43.332031 416.761719 52.121094 407.722656 62.820312 407.722656 L 195.976562 407.722656 C 206.734375 407.722656 215.464844 416.761719 215.464844 427.898438 L 215.464844 756.664062 M 740.777344 463.949219 L 727.746094 463.949219 C 721.355469 463.949219 716.003906 468.871094 715.515625 475.332031 C 715.019531 481.726562 719.574219 487.449219 725.902344 488.433594 C 745.699219 491.449219 760.082031 508.058594 760.082031 527.929688 C 760.082031 549.957031 742.007812 567.855469 719.753906 567.855469 L 697.746094 567.855469 C 691.046875 567.855469 685.574219 573.210938 685.449219 579.914062 C 685.261719 586.621094 690.496094 592.15625 697.195312 592.464844 C 718.707031 593.386719 735.613281 610.921875 735.613281 632.328125 C 735.613281 654.414062 717.605469 672.378906 695.46875 672.378906 L 665.34375 672.378906 C 658.648438 672.378906 653.179688 677.730469 653.054688 684.375 C 652.871094 691.082031 658.097656 696.679688 664.796875 696.988281 C 686.316406 697.910156 703.15625 715.445312 703.15625 736.851562 C 703.15625 758.875 685.144531 776.839844 662.953125 776.839844 L 301.46875 776.714844 C 294.09375 774.316406 287.144531 769.644531 279.769531 764.722656 C 272.085938 759.554688 264.09375 754.140625 254.6875 750.695312 C 249.890625 748.910156 244.972656 748.234375 240.054688 748.050781 L 240.054688 450.597656 C 265.261719 434.355469 266.488281 431.652344 267.722656 428.820312 C 269.195312 425.621094 278.722656 409.933594 288.867188 393.261719 C 347.148438 297.722656 380.898438 237.984375 380.898438 215.40625 L 380.898438 182.371094 C 380.898438 175.851562 380.589844 169.265625 380.28125 162.867188 C 378.992188 136.605469 377.886719 113.960938 395.589844 99.074219 C 401.371094 94.269531 410.46875 88.429688 421.164062 87.878906 C 428.234375 87.507812 435.792969 89.234375 443.847656 92.984375 C 484.484375 111.746094 492.785156 191.414062 495.914062 221.375 C 497.949219 241.1875 470.035156 362.75 463.339844 376.464844 C 461 380.160156 460.757812 384.769531 462.726562 388.707031 C 464.816406 392.828125 469.054688 395.417969 473.667969 395.417969 L 744.160156 395.417969 C 781.042969 395.417969 781.042969 416.148438 781.042969 423.960938 C 781.042969 445.984375 762.96875 463.949219 740.777344 463.949219 " fill-opacity="1" fill-rule="nonzero"/></g><path fill="#f35e52" d="M 195.976562 407.722656 L 62.820312 407.722656 C 52.121094 407.722656 43.332031 416.765625 43.332031 427.898438 L 43.332031 756.664062 C 43.332031 767.796875 52.121094 776.839844 62.820312 776.839844 L 195.976562 776.839844 C 206.738281 776.839844 215.464844 767.796875 215.464844 756.664062 L 215.464844 427.898438 C 215.464844 416.765625 206.738281 407.722656 195.976562 407.722656 M 129.398438 739.929688 C 105.667969 739.929688 86.367188 720.613281 86.367188 696.863281 C 86.367188 673.117188 105.667969 653.800781 129.398438 653.800781 C 153.128906 653.800781 172.433594 673.117188 172.433594 696.863281 C 172.433594 720.613281 153.128906 739.929688 129.398438 739.929688 " fill-opacity="1" fill-rule="nonzero"/><path fill="#e4eef6" d="M 715.515625 475.328125 C 715.027344 481.726562 719.578125 487.445312 725.90625 488.429688 C 745.699219 491.445312 760.085938 508.054688 760.085938 527.929688 C 760.085938 549.953125 742.011719 567.855469 719.757812 567.855469 L 697.75 567.855469 C 691.050781 567.855469 685.578125 573.207031 685.457031 579.914062 C 685.269531 586.617188 690.496094 592.15625 697.195312 592.460938 C 718.714844 593.382812 735.617188 610.917969 735.617188 632.328125 C 735.617188 654.414062 717.609375 672.378906 695.476562 672.378906 L 665.351562 672.378906 C 658.652344 672.378906 653.179688 677.730469 653.058594 684.375 C 652.871094 691.078125 658.097656 696.679688 664.800781 696.984375 C 686.316406 697.910156 703.164062 715.441406 703.164062 736.851562 C 703.164062 758.875 685.148438 776.839844 662.953125 776.839844 L 301.472656 776.714844 C 294.09375 774.316406 287.148438 769.640625 279.773438 764.722656 C 272.085938 759.554688 264.097656 754.140625 254.691406 750.691406 C 249.894531 748.910156 244.976562 748.234375 240.058594 748.046875 L 240.058594 450.597656 C 265.261719 434.355469 266.492188 431.648438 267.722656 428.820312 C 269.199219 425.621094 278.726562 409.929688 288.871094 393.261719 C 347.148438 297.722656 380.902344 237.984375 380.902344 215.40625 L 380.902344 182.367188 C 380.902344 175.84375 380.59375 169.261719 380.285156 162.867188 C 378.996094 136.597656 377.886719 113.957031 395.59375 99.070312 C 401.375 94.269531 410.46875 88.425781 421.167969 87.871094 C 428.234375 87.5 435.800781 89.226562 443.851562 92.976562 C 484.488281 111.742188 492.785156 191.414062 495.925781 221.371094 C 497.953125 241.179688 470.042969 362.746094 463.339844 376.460938 C 461.003906 380.15625 460.761719 384.769531 462.726562 388.707031 C 464.816406 392.828125 469.058594 395.410156 473.667969 395.410156 L 744.167969 395.410156 C 781.050781 395.410156 781.050781 416.148438 781.050781 423.957031 C 781.050781 445.980469 762.976562 463.945312 740.78125 463.945312 L 727.753906 463.945312 C 721.359375 463.945312 716.011719 468.867188 715.515625 475.328125 " fill-opacity="1" fill-rule="nonzero"/><path fill="#2c3d53" d="M 226.898438 215.53125 C 224.75 209.011719 218.96875 204.582031 211.039062 203.347656 L 161.980469 195.839844 L 139.910156 148.964844 C 134.871094 138.199219 126.570312 137.027344 123.253906 137.027344 C 119.929688 137.027344 111.695312 138.199219 106.652344 148.964844 L 84.582031 195.839844 L 35.460938 203.347656 C 27.59375 204.582031 21.816406 209.011719 19.605469 215.53125 C 17.390625 222.113281 19.417969 229.25 25.136719 235.15625 L 61.039062 271.820312 L 52.554688 323.746094 C 51.140625 332.050781 53.660156 339.1875 59.441406 343.1875 C 62.265625 345.214844 65.585938 346.199219 69.027344 346.199219 C 72.410156 346.199219 75.976562 345.214844 79.480469 343.308594 L 123.253906 319.132812 L 167.023438 343.246094 C 174.09375 347.246094 181.410156 347.183594 187.0625 343.1875 C 192.84375 339.1875 195.363281 332.050781 194.011719 323.746094 L 185.527344 271.820312 L 221.429688 235.089844 C 227.085938 229.25 229.113281 222.113281 226.898438 215.53125 M 159.214844 263.515625 L 167.761719 315.5625 L 123.253906 291.078125 L 78.804688 315.5625 L 87.289062 263.515625 L 50.585938 225.929688 L 101.242188 218.238281 L 123.253906 171.355469 L 145.320312 218.238281 L 195.917969 225.988281 L 159.214844 263.515625 " fill-opacity="1" fill-rule="nonzero"/><path fill="#fcd965" d="M 159.214844 263.515625 L 167.761719 315.5625 L 123.25 291.078125 L 78.804688 315.5625 L 87.289062 263.515625 L 50.585938 225.929688 L 101.242188 218.238281 L 123.25 171.359375 L 145.320312 218.238281 L 195.914062 225.992188 L 159.214844 263.515625 " fill-opacity="1" fill-rule="nonzero"/><g clip-path="url(#b946b0eaf9)"><path fill="#2c3d53" d="M 306.941406 64.433594 C 305.039062 58.777344 299.996094 54.839844 293.480469 53.851562 L 266.613281 49.734375 L 254.503906 23.953125 C 251.550781 17.738281 246.144531 13.988281 240.058594 13.988281 C 233.972656 13.988281 228.558594 17.738281 225.671875 23.953125 L 213.5 49.734375 L 186.632812 53.851562 C 180.117188 54.839844 175.078125 58.777344 173.230469 64.433594 C 171.324219 70.097656 172.988281 76.371094 177.660156 81.226562 L 197.453125 101.40625 L 192.78125 130.140625 C 191.675781 136.964844 193.949219 143.121094 198.929688 146.628906 C 201.511719 148.410156 204.460938 149.335938 207.535156 149.335938 C 210.363281 149.335938 213.375 148.535156 216.203125 146.992188 L 240.058594 133.828125 L 263.910156 146.933594 C 269.8125 150.257812 276.265625 150.132812 281.183594 146.628906 C 286.164062 143.121094 288.5 136.964844 287.394531 130.140625 L 282.660156 101.40625 L 302.453125 81.164062 C 307.128906 76.371094 308.851562 70.097656 306.941406 64.433594 M 256.410156 93.105469 L 260.28125 116.851562 L 240.058594 105.714844 L 219.894531 116.851562 L 223.703125 93.105469 L 206.675781 75.695312 L 230.160156 72.0625 L 240.058594 51.082031 L 249.953125 72.0625 L 273.4375 75.695312 L 256.410156 93.105469 " fill-opacity="1" fill-rule="nonzero"/></g><path fill="#fcd965" d="M 256.410156 93.101562 L 260.28125 116.847656 L 240.058594 105.71875 L 219.894531 116.847656 L 223.703125 93.101562 L 206.675781 75.691406 L 230.160156 72.0625 L 240.058594 51.085938 L 249.953125 72.0625 L 273.4375 75.691406 L 256.410156 93.101562 " fill-opacity="1" fill-rule="nonzero"/><path fill="#2c3d53" d="M 129.402344 653.800781 C 105.671875 653.800781 86.367188 673.117188 86.367188 696.863281 C 86.367188 720.609375 105.671875 739.929688 129.402344 739.929688 C 153.132812 739.929688 172.433594 720.609375 172.433594 696.863281 C 172.433594 673.117188 153.132812 653.800781 129.402344 653.800781 Z M 129.402344 715.320312 C 119.253906 715.320312 110.957031 707.015625 110.957031 696.863281 C 110.957031 686.714844 119.253906 678.40625 129.402344 678.40625 C 139.605469 678.40625 147.84375 686.714844 147.84375 696.863281 C 147.84375 707.015625 139.605469 715.320312 129.402344 715.320312 " fill-opacity="1" fill-rule="nonzero"/><path fill="#e4eef6" d="M 147.84375 696.863281 C 147.84375 707.015625 139.605469 715.320312 129.402344 715.320312 C 119.253906 715.320312 110.957031 707.015625 110.957031 696.863281 C 110.957031 686.714844 119.253906 678.40625 129.402344 678.40625 C 139.605469 678.40625 147.84375 686.714844 147.84375 696.863281 " fill-opacity="1" fill-rule="nonzero"/><path fill="#929ea9" d="M 495.707031 229.871094 C 495.679688 230.214844 495.644531 230.574219 495.609375 230.933594 C 495.609375 230.945312 495.617188 230.957031 495.617188 230.96875 C 495.652344 230.59375 495.679688 230.226562 495.707031 229.871094 M 423.058594 87.824219 C 422.421875 87.824219 421.792969 87.839844 421.164062 87.875 C 410.46875 88.425781 401.371094 94.269531 395.59375 99.066406 C 401.371094 94.269531 410.46875 88.425781 421.164062 87.875 C 421.792969 87.839844 422.421875 87.824219 423.058594 87.824219 C 429.582031 87.824219 436.511719 89.554688 443.851562 92.980469 C 484.488281 111.738281 492.785156 191.414062 495.921875 221.371094 C 495.996094 222.070312 496.03125 222.890625 496.03125 223.824219 C 496.03125 224.386719 496.011719 224.988281 495.988281 225.632812 C 496.0625 223.90625 496.054688 222.472656 495.921875 221.371094 C 492.785156 191.414062 484.488281 111.738281 443.851562 92.980469 C 436.511719 89.554688 429.582031 87.824219 423.058594 87.824219 " fill-opacity="1" fill-rule="nonzero"/><path fill="#f4f8fc" d="M 423.058594 87.824219 C 422.421875 87.824219 421.792969 87.839844 421.164062 87.875 C 410.46875 88.425781 401.371094 94.269531 395.59375 99.066406 C 380.835938 111.492188 379.117188 129.277344 379.792969 150.132812 C 380.40625 134.566406 383.851562 121.28125 395.59375 111.375 C 401.371094 106.578125 410.46875 100.730469 421.164062 100.175781 C 421.792969 100.144531 422.421875 100.128906 423.050781 100.128906 C 429.574219 100.128906 436.511719 101.863281 443.851562 105.28125 C 483.308594 123.488281 492.292969 199.164062 495.609375 230.933594 C 495.644531 230.574219 495.679688 230.214844 495.707031 229.871094 C 495.839844 228.316406 495.9375 226.902344 495.988281 225.632812 C 496.011719 224.988281 496.03125 224.386719 496.03125 223.824219 C 496.03125 222.890625 495.996094 222.070312 495.921875 221.371094 C 492.785156 191.414062 484.488281 111.738281 443.851562 92.976562 C 436.511719 89.554688 429.582031 87.824219 423.058594 87.824219 " fill-opacity="1" fill-rule="nonzero"/><path fill="#f68179" d="M 195.976562 407.722656 L 62.820312 407.722656 C 52.121094 407.722656 43.332031 416.765625 43.332031 427.898438 L 43.332031 440.203125 C 43.332031 429.066406 52.121094 420.023438 62.820312 420.023438 L 195.976562 420.023438 C 206.738281 420.023438 215.464844 429.066406 215.464844 440.203125 L 215.464844 427.898438 C 215.464844 416.765625 206.738281 407.722656 195.976562 407.722656 " fill-opacity="1" fill-rule="nonzero"/><path fill="#929ea9" d="M 781.050781 424.226562 C 781.042969 424.988281 781.019531 425.746094 780.972656 426.492188 C 781.019531 425.75 781.042969 424.992188 781.050781 424.226562 M 781.050781 424.105469 C 781.050781 424.140625 781.050781 424.171875 781.050781 424.199219 C 781.050781 424.167969 781.050781 424.140625 781.050781 424.105469 M 473.519531 395.410156 C 473.535156 395.410156 473.550781 395.410156 473.5625 395.410156 C 473.550781 395.410156 473.535156 395.410156 473.519531 395.410156 M 473.390625 395.410156 C 473.414062 395.410156 473.433594 395.410156 473.457031 395.410156 C 473.441406 395.410156 473.414062 395.410156 473.390625 395.410156 M 473.277344 395.40625 C 473.300781 395.40625 473.332031 395.40625 473.355469 395.410156 C 473.332031 395.40625 473.300781 395.40625 473.277344 395.40625 M 473.15625 395.398438 C 473.191406 395.40625 473.222656 395.40625 473.257812 395.40625 C 473.222656 395.40625 473.191406 395.40625 473.15625 395.398438 M 468.59375 394.320312 C 470.011719 394.957031 471.558594 395.332031 473.15625 395.398438 C 471.570312 395.332031 470.019531 394.957031 468.59375 394.320312 M 468.523438 394.28125 C 468.539062 394.292969 468.550781 394.300781 468.570312 394.304688 C 468.550781 394.300781 468.539062 394.292969 468.523438 394.28125 M 463.035156 389.257812 C 463.03125 389.261719 463.03125 389.261719 463.03125 389.269531 C 463.25 389.652344 463.488281 390.019531 463.742188 390.367188 C 463.488281 390.019531 463.253906 389.644531 463.035156 389.257812 " fill-opacity="1" fill-rule="nonzero"/><path fill="#f4f8fc" d="M 463.03125 389.269531 C 461.003906 392.839844 460.820312 397.257812 462.726562 401.007812 C 464.816406 405.132812 469.058594 407.71875 473.667969 407.71875 L 744.167969 407.71875 C 772.875 407.71875 779.203125 420.269531 780.621094 429.496094 C 780.792969 428.515625 780.902344 427.511719 780.972656 426.496094 C 781.019531 425.746094 781.042969 424.988281 781.050781 424.226562 C 781.050781 424.21875 781.050781 424.207031 781.050781 424.199219 C 781.050781 424.171875 781.050781 424.140625 781.050781 424.109375 C 781.050781 424.058594 781.050781 424.007812 781.050781 423.957031 C 781.050781 416.148438 781.050781 395.410156 744.167969 395.410156 L 473.667969 395.410156 C 473.632812 395.410156 473.597656 395.410156 473.5625 395.410156 C 473.550781 395.410156 473.535156 395.410156 473.519531 395.410156 C 473.5 395.410156 473.480469 395.410156 473.457031 395.410156 C 473.433594 395.410156 473.414062 395.410156 473.390625 395.410156 C 473.378906 395.410156 473.367188 395.410156 473.355469 395.410156 C 473.332031 395.40625 473.300781 395.40625 473.277344 395.40625 C 473.269531 395.40625 473.265625 395.40625 473.257812 395.40625 C 473.222656 395.40625 473.191406 395.40625 473.15625 395.398438 C 471.558594 395.339844 470.011719 394.957031 468.59375 394.320312 C 468.585938 394.3125 468.574219 394.3125 468.570312 394.304688 C 468.550781 394.300781 468.539062 394.292969 468.523438 394.28125 C 466.640625 393.417969 464.980469 392.078125 463.742188 390.367188 C 463.488281 390.019531 463.25 389.652344 463.03125 389.269531 " fill-opacity="1" fill-rule="nonzero"/><path fill="#c1c7ce" d="M 702.667969 730.820312 C 699.59375 749.894531 682.996094 764.535156 662.953125 764.535156 L 301.472656 764.414062 C 294.09375 762.011719 287.148438 757.335938 279.773438 752.414062 C 272.085938 747.246094 264.097656 741.835938 254.691406 738.390625 C 249.894531 736.605469 244.976562 735.929688 240.058594 735.742188 L 240.058594 748.046875 C 244.976562 748.234375 249.894531 748.910156 254.691406 750.691406 C 264.097656 754.136719 272.085938 759.550781 279.773438 764.722656 C 287.148438 769.640625 294.09375 774.316406 301.472656 776.714844 L 662.953125 776.839844 C 685.144531 776.839844 703.160156 758.875 703.160156 736.851562 C 703.160156 734.820312 702.976562 732.789062 702.667969 730.820312 " fill-opacity="1" fill-rule="nonzero"/><path fill="#d24d44" d="M 215.464844 744.355469 C 215.464844 755.492188 206.738281 764.535156 195.980469 764.535156 L 62.820312 764.535156 C 52.125 764.535156 43.332031 755.492188 43.332031 744.355469 L 43.332031 756.660156 C 43.332031 767.796875 52.125 776.839844 62.820312 776.839844 L 195.980469 776.839844 C 206.738281 776.839844 215.464844 767.796875 215.464844 756.660156 L 215.464844 744.355469 " fill-opacity="1" fill-rule="nonzero"/><path fill="#5f6150" d="M 165.535156 302.023438 L 167.761719 315.5625 L 165.546875 302.027344 L 165.535156 302.023438 " fill-opacity="1" fill-rule="nonzero"/><path fill="#d6b856" d="M 123.25 278.773438 L 81.015625 302.027344 L 78.804688 315.5625 L 123.25 291.078125 L 167.761719 315.5625 L 165.535156 302.019531 L 123.25 278.773438 " fill-opacity="1" fill-rule="nonzero"/><path fill="#5f6150" d="M 222.054688 103.371094 L 222.042969 103.375 L 219.890625 116.847656 L 222.054688 103.371094 " fill-opacity="1" fill-rule="nonzero"/><path fill="#d6b856" d="M 240.058594 93.410156 L 222.058594 103.371094 L 219.894531 116.847656 L 240.058594 105.714844 L 260.285156 116.847656 L 258.070312 103.3125 L 240.058594 93.410156 " fill-opacity="1" fill-rule="nonzero"/></svg>