<svg xmlns="http://www.w3.org/2000/svg" xmlns:xlink="http://www.w3.org/1999/xlink" width="1080" zoomAndPan="magnify" viewBox="0 0 810 809.999993" height="1080" preserveAspectRatio="xMidYMid meet" version="1.0"><defs><clipPath id="aa98eb8dac"><path d="M 201.128906 264 L 310 264 L 310 374 L 201.128906 374 Z M 201.128906 264 " clip-rule="nonzero"/></clipPath><clipPath id="19f5f7c9b5"><path d="M 281 201.128906 L 352 201.128906 L 352 272 L 281 272 Z M 281 201.128906 " clip-rule="nonzero"/></clipPath><clipPath id="6a5ea52a9b"><path d="M 202 226 L 609.128906 226 L 609.128906 609 L 202 609 Z M 202 226 " clip-rule="nonzero"/></clipPath></defs><g clip-path="url(#aa98eb8dac)"><path fill="#dddddd" d="M 202.398438 305.59375 C 201.128906 309.089844 202.398438 312.589844 205.261719 315.769531 L 223.707031 334.847656 L 219.253906 361.5625 C 218.617188 366.011719 219.890625 369.511719 222.75 371.738281 C 224.34375 372.691406 225.933594 373.328125 227.839844 373.328125 C 229.746094 373.328125 231.339844 372.691406 233.246094 371.738281 L 255.824219 359.335938 L 278.402344 371.738281 C 282.21875 373.644531 285.714844 373.644531 288.898438 371.738281 C 291.757812 369.511719 293.03125 366.011719 292.394531 361.5625 L 287.941406 334.847656 L 306.386719 315.769531 C 309.25 312.589844 310.519531 309.089844 309.25 305.59375 C 307.976562 302.09375 305.113281 299.867188 300.980469 299.230469 L 275.539062 295.414062 L 264.09375 271.246094 C 262.183594 265.523438 257.730469 264.886719 256.140625 264.886719 C 254.550781 264.886719 250.101562 265.523438 247.554688 270.929688 L 236.109375 295.097656 L 210.667969 298.914062 C 206.535156 299.867188 203.671875 302.09375 202.398438 305.59375 Z M 202.398438 305.59375 " fill-opacity="1" fill-rule="nonzero"/></g><g clip-path="url(#19f5f7c9b5)"><path fill="#dddddd" d="M 351.226562 227.363281 C 350.273438 224.5 347.726562 222.273438 344.230469 221.957031 L 330.238281 219.730469 L 323.878906 206.375 C 322.605469 203.195312 319.742188 201.285156 316.5625 201.285156 C 313.382812 201.285156 310.519531 203.195312 309.25 206.375 L 302.890625 219.730469 L 288.898438 221.957031 C 285.398438 222.59375 282.855469 224.5 281.902344 227.363281 C 280.945312 230.226562 281.902344 233.40625 284.125 235.949219 L 294.304688 246.441406 L 291.757812 261.390625 C 291.121094 264.886719 292.394531 268.066406 294.9375 269.976562 C 296.210938 270.929688 297.800781 271.246094 299.390625 271.246094 C 300.980469 271.246094 302.570312 270.929688 303.84375 269.976562 L 316.246094 263.296875 L 328.648438 269.976562 C 331.828125 271.566406 335.007812 271.566406 337.550781 269.65625 C 340.09375 267.75 341.367188 264.570312 340.730469 261.070312 L 338.1875 246.125 L 348.363281 235.632812 C 351.226562 233.40625 352.179688 230.226562 351.226562 227.363281 Z M 351.226562 227.363281 " fill-opacity="1" fill-rule="nonzero"/></g><path fill="#dddddd" d="M 268.863281 554.273438 C 268.863281 554.898438 268.800781 555.519531 268.679688 556.132812 C 268.558594 556.746094 268.375 557.34375 268.136719 557.921875 C 267.898438 558.5 267.601562 559.050781 267.253906 559.570312 C 266.90625 560.09375 266.511719 560.574219 266.066406 561.015625 C 265.625 561.460938 265.144531 561.855469 264.621094 562.203125 C 264.101562 562.550781 263.550781 562.847656 262.972656 563.085938 C 262.394531 563.324219 261.796875 563.507812 261.183594 563.628906 C 260.570312 563.75 259.949219 563.8125 259.324219 563.8125 C 258.695312 563.8125 258.074219 563.75 257.460938 563.628906 C 256.847656 563.507812 256.25 563.324219 255.671875 563.085938 C 255.09375 562.847656 254.542969 562.550781 254.023438 562.203125 C 253.5 561.855469 253.019531 561.460938 252.578125 561.015625 C 252.132812 560.574219 251.738281 560.09375 251.390625 559.570312 C 251.042969 559.050781 250.75 558.5 250.507812 557.921875 C 250.269531 557.34375 250.085938 556.746094 249.964844 556.132812 C 249.84375 555.519531 249.78125 554.898438 249.78125 554.273438 C 249.78125 553.644531 249.84375 553.023438 249.964844 552.410156 C 250.085938 551.796875 250.269531 551.199219 250.507812 550.621094 C 250.75 550.042969 251.042969 549.492188 251.390625 548.972656 C 251.738281 548.449219 252.132812 547.96875 252.578125 547.527344 C 253.019531 547.082031 253.5 546.6875 254.023438 546.339844 C 254.542969 545.992188 255.09375 545.699219 255.671875 545.457031 C 256.25 545.21875 256.847656 545.035156 257.460938 544.914062 C 258.074219 544.792969 258.695312 544.730469 259.324219 544.730469 C 259.949219 544.730469 260.570312 544.792969 261.183594 544.914062 C 261.796875 545.035156 262.394531 545.21875 262.972656 545.457031 C 263.550781 545.699219 264.101562 545.992188 264.621094 546.339844 C 265.144531 546.6875 265.625 547.082031 266.066406 547.527344 C 266.511719 547.96875 266.90625 548.449219 267.253906 548.972656 C 267.601562 549.492188 267.898438 550.042969 268.136719 550.621094 C 268.375 551.199219 268.558594 551.796875 268.679688 552.410156 C 268.800781 553.023438 268.863281 553.644531 268.863281 554.273438 Z M 268.863281 554.273438 " fill-opacity="1" fill-rule="nonzero"/><g clip-path="url(#6a5ea52a9b)"><path fill="#dddddd" d="M 577.328125 385.730469 L 446.308594 385.730469 C 452.667969 364.421875 462.527344 317.359375 461.574219 307.183594 C 458.394531 277.609375 451.714844 241.992188 427.230469 230.542969 C 421.1875 227.679688 415.144531 226.410156 409.421875 226.726562 C 402.425781 227.042969 395.109375 230.226562 388.75 235.632812 C 374.757812 247.398438 375.394531 264.25 376.347656 278.878906 C 376.347656 282.058594 376.667969 285.238281 376.667969 288.417969 L 376.667969 305.59375 C 376.667969 316.085938 343.59375 370.464844 330.875 390.816406 C 324.832031 400.992188 321.332031 406.398438 319.742188 409.578125 C 319.105469 410.214844 317.835938 411.167969 316.246094 412.125 C 314.65625 400.992188 305.113281 392.40625 293.667969 392.40625 L 224.976562 392.40625 C 212.257812 392.40625 202.082031 402.902344 202.082031 415.621094 L 202.082031 585.4375 C 202.082031 598.15625 212.257812 608.652344 224.976562 608.652344 L 293.984375 608.652344 C 303.84375 608.652344 312.109375 602.609375 315.292969 593.703125 C 317.199219 593.703125 318.789062 593.703125 320.0625 594.339844 C 323.558594 595.613281 326.738281 597.839844 330.238281 600.382812 C 335.007812 603.5625 339.777344 606.742188 345.820312 608.652344 C 346.457031 608.652344 347.089844 608.96875 347.410156 608.96875 L 535.351562 608.96875 C 553.792969 608.96875 568.742188 594.023438 568.742188 575.578125 C 568.742188 567.308594 565.5625 559.679688 560.789062 553.953125 C 575.101562 550.136719 585.59375 537.097656 585.59375 521.515625 C 585.59375 512.613281 582.097656 504.664062 576.691406 498.621094 C 589.410156 493.851562 598.316406 481.765625 598.316406 467.457031 C 598.316406 458.550781 594.816406 450.285156 589.09375 444.242188 C 600.859375 439.152344 609.128906 427.386719 609.128906 413.714844 C 609.128906 395.90625 597.679688 385.730469 577.328125 385.730469 Z M 259.324219 576.53125 C 246.921875 576.53125 237.0625 566.675781 237.0625 554.273438 C 237.0625 541.871094 246.921875 532.011719 259.324219 532.011719 C 271.722656 532.011719 281.582031 541.871094 281.582031 554.273438 C 281.582031 566.675781 271.722656 576.53125 259.324219 576.53125 Z M 575.738281 433.746094 L 569.058594 433.746094 C 565.878906 433.746094 563.015625 436.292969 562.699219 439.472656 C 562.378906 442.652344 564.925781 445.832031 568.105469 446.148438 C 578.28125 447.738281 585.914062 456.328125 585.914062 466.503906 C 585.914062 477.949219 576.691406 487.171875 564.925781 487.171875 L 553.476562 487.171875 C 549.980469 487.171875 547.117188 490.035156 547.117188 493.53125 C 547.117188 497.03125 549.660156 499.894531 553.160156 499.894531 C 564.289062 500.527344 572.875 509.433594 572.875 520.5625 C 572.875 532.011719 563.652344 541.234375 552.203125 541.234375 L 536.621094 541.234375 C 533.125 541.234375 530.261719 544.09375 530.261719 547.59375 C 530.261719 551.089844 532.804688 553.953125 536.304688 553.953125 C 547.433594 554.589844 556.019531 563.492188 556.019531 574.625 C 556.019531 586.070312 546.796875 595.292969 535.351562 595.292969 L 348.363281 595.613281 C 344.546875 594.339844 341.050781 591.796875 337.234375 589.253906 C 333.097656 586.707031 328.964844 583.847656 324.195312 581.9375 C 321.652344 580.984375 319.105469 580.667969 316.5625 580.667969 L 316.5625 427.070312 C 329.601562 418.800781 330.238281 417.210938 330.875 415.941406 C 331.507812 414.351562 336.597656 406.082031 341.6875 397.496094 C 371.894531 348.203125 389.386719 317.359375 389.386719 305.59375 L 389.386719 288.417969 C 389.386719 284.921875 389.066406 281.742188 389.066406 278.242188 C 388.433594 264.570312 387.796875 253.121094 397.019531 245.171875 C 399.878906 242.628906 404.652344 239.765625 410.375 239.445312 C 414.191406 239.128906 418.007812 240.082031 422.140625 241.992188 C 443.128906 251.847656 447.582031 292.871094 449.171875 308.453125 C 450.125 318.628906 435.816406 381.59375 432.316406 388.589844 C 431.042969 390.5 431.042969 393.042969 432 394.953125 C 432.953125 397.175781 435.179688 398.449219 437.722656 398.449219 L 577.644531 398.449219 C 596.726562 398.449219 596.726562 409.261719 596.726562 413.078125 C 596.40625 424.527344 587.183594 433.746094 575.738281 433.746094 Z M 575.738281 433.746094 " fill-opacity="1" fill-rule="nonzero"/></g></svg>