<svg xmlns="http://www.w3.org/2000/svg" xmlns:xlink="http://www.w3.org/1999/xlink" width="1080" zoomAndPan="magnify" viewBox="0 0 810 809.999993" height="1080" preserveAspectRatio="xMidYMid meet" version="1.0"><defs><clipPath id="cd5ca003b5"><path d="M 15 63 L 801.46875 63 L 801.46875 801.46875 L 15 801.46875 Z M 15 63 " clip-rule="nonzero"/></clipPath></defs><path fill="#dddddd" d="M 16.421875 215.601562 C 13.96875 222.351562 16.421875 229.105469 21.949219 235.242188 L 57.546875 272.070312 L 48.953125 323.628906 C 47.726562 332.222656 50.183594 338.972656 55.707031 343.269531 C 58.777344 345.109375 61.84375 346.339844 65.527344 346.339844 C 69.210938 346.339844 72.277344 345.109375 75.960938 343.269531 L 119.542969 319.332031 L 163.121094 343.269531 C 170.484375 346.953125 177.238281 346.953125 183.375 343.269531 C 188.898438 338.972656 191.355469 332.222656 190.128906 323.628906 L 181.535156 272.070312 L 217.136719 235.242188 C 222.660156 229.105469 225.113281 222.351562 222.660156 215.601562 C 220.203125 208.847656 214.679688 204.550781 206.699219 203.324219 L 157.597656 195.957031 L 135.5 149.308594 C 131.816406 138.261719 123.222656 137.035156 120.15625 137.035156 C 117.085938 137.035156 108.492188 138.261719 103.582031 148.695312 L 81.484375 195.34375 L 32.382812 202.710938 C 24.402344 204.550781 18.878906 208.847656 16.421875 215.601562 Z M 16.421875 215.601562 " fill-opacity="1" fill-rule="nonzero"/><path fill="#dddddd" d="M 303.679688 64.605469 C 301.839844 59.082031 296.929688 54.785156 290.175781 54.171875 L 263.167969 49.875 L 250.894531 24.097656 C 248.4375 17.957031 242.914062 14.273438 236.777344 14.273438 C 230.636719 14.273438 225.113281 17.957031 222.660156 24.097656 L 210.382812 49.875 L 183.375 54.171875 C 176.625 55.398438 171.714844 59.082031 169.871094 64.605469 C 168.03125 70.128906 169.871094 76.269531 174.167969 81.179688 L 193.8125 101.433594 L 188.898438 130.28125 C 187.671875 137.035156 190.128906 143.171875 195.039062 146.855469 C 197.492188 148.695312 200.5625 149.308594 203.632812 149.308594 C 206.699219 149.308594 209.769531 148.695312 212.222656 146.855469 L 236.164062 133.964844 L 260.101562 146.855469 C 266.238281 149.925781 272.375 149.925781 277.285156 146.242188 C 282.195312 142.558594 284.652344 136.421875 283.425781 129.667969 L 278.515625 100.820312 L 298.15625 80.566406 C 303.679688 76.269531 305.519531 70.128906 303.679688 64.605469 Z M 303.679688 64.605469 " fill-opacity="1" fill-rule="nonzero"/><path fill="#dddddd" d="M 144.707031 695.589844 C 144.707031 696.191406 144.675781 696.792969 144.617188 697.394531 C 144.558594 697.992188 144.472656 698.589844 144.351562 699.179688 C 144.234375 699.773438 144.089844 700.355469 143.914062 700.933594 C 143.738281 701.511719 143.535156 702.078125 143.304688 702.636719 C 143.074219 703.191406 142.816406 703.738281 142.53125 704.269531 C 142.25 704.800781 141.9375 705.316406 141.605469 705.820312 C 141.269531 706.320312 140.910156 706.804688 140.527344 707.269531 C 140.144531 707.738281 139.738281 708.183594 139.3125 708.609375 C 138.886719 709.035156 138.441406 709.441406 137.976562 709.824219 C 137.507812 710.207031 137.023438 710.5625 136.523438 710.898438 C 136.023438 711.234375 135.503906 711.542969 134.972656 711.828125 C 134.441406 712.113281 133.898438 712.371094 133.339844 712.601562 C 132.78125 712.832031 132.214844 713.035156 131.636719 713.210938 C 131.0625 713.382812 130.476562 713.53125 129.886719 713.648438 C 129.292969 713.765625 128.699219 713.855469 128.097656 713.914062 C 127.496094 713.972656 126.894531 714.003906 126.292969 714.003906 C 125.691406 714.003906 125.089844 713.972656 124.488281 713.914062 C 123.886719 713.855469 123.292969 713.765625 122.699219 713.648438 C 122.109375 713.53125 121.523438 713.382812 120.949219 713.210938 C 120.371094 713.035156 119.804688 712.832031 119.246094 712.601562 C 118.6875 712.371094 118.144531 712.113281 117.613281 711.828125 C 117.082031 711.542969 116.5625 711.234375 116.0625 710.898438 C 115.5625 710.5625 115.078125 710.207031 114.613281 709.824219 C 114.144531 709.441406 113.699219 709.035156 113.273438 708.609375 C 112.847656 708.183594 112.441406 707.738281 112.058594 707.269531 C 111.675781 706.804688 111.316406 706.320312 110.984375 705.820312 C 110.648438 705.316406 110.335938 704.800781 110.054688 704.269531 C 109.769531 703.738281 109.511719 703.191406 109.28125 702.636719 C 109.050781 702.078125 108.847656 701.511719 108.671875 700.933594 C 108.496094 700.355469 108.351562 699.773438 108.234375 699.179688 C 108.117188 698.589844 108.027344 697.992188 107.96875 697.394531 C 107.910156 696.792969 107.878906 696.191406 107.878906 695.589844 C 107.878906 694.984375 107.910156 694.382812 107.96875 693.785156 C 108.027344 693.183594 108.117188 692.585938 108.234375 691.996094 C 108.351562 691.40625 108.496094 690.820312 108.671875 690.242188 C 108.847656 689.667969 109.050781 689.097656 109.28125 688.542969 C 109.511719 687.984375 109.769531 687.441406 110.054688 686.910156 C 110.335938 686.375 110.648438 685.859375 110.984375 685.359375 C 111.316406 684.855469 111.675781 684.375 112.058594 683.90625 C 112.441406 683.441406 112.847656 682.996094 113.273438 682.566406 C 113.699219 682.140625 114.144531 681.738281 114.613281 681.355469 C 115.078125 680.972656 115.5625 680.613281 116.0625 680.277344 C 116.5625 679.941406 117.082031 679.632812 117.613281 679.347656 C 118.144531 679.066406 118.6875 678.808594 119.246094 678.578125 C 119.804688 678.34375 120.371094 678.144531 120.949219 677.96875 C 121.523438 677.792969 122.109375 677.644531 122.699219 677.527344 C 123.292969 677.410156 123.886719 677.324219 124.488281 677.261719 C 125.089844 677.203125 125.691406 677.175781 126.292969 677.175781 C 126.894531 677.175781 127.496094 677.203125 128.097656 677.261719 C 128.699219 677.324219 129.292969 677.410156 129.886719 677.527344 C 130.476562 677.644531 131.0625 677.792969 131.636719 677.96875 C 132.214844 678.144531 132.78125 678.34375 133.339844 678.578125 C 133.898438 678.808594 134.441406 679.066406 134.972656 679.347656 C 135.503906 679.632812 136.023438 679.941406 136.523438 680.277344 C 137.023438 680.613281 137.507812 680.972656 137.976562 681.355469 C 138.441406 681.738281 138.886719 682.140625 139.3125 682.566406 C 139.738281 682.996094 140.144531 683.441406 140.527344 683.90625 C 140.910156 684.375 141.269531 684.855469 141.605469 685.359375 C 141.9375 685.859375 142.25 686.375 142.53125 686.910156 C 142.816406 687.441406 143.074219 687.984375 143.304688 688.542969 C 143.535156 689.097656 143.738281 689.667969 143.914062 690.242188 C 144.089844 690.820312 144.234375 691.40625 144.351562 691.996094 C 144.472656 692.585938 144.558594 693.183594 144.617188 693.785156 C 144.675781 694.382812 144.707031 694.984375 144.707031 695.589844 Z M 144.707031 695.589844 " fill-opacity="1" fill-rule="nonzero"/><g clip-path="url(#cd5ca003b5)"><path fill="#dddddd" d="M 740.089844 370.277344 L 487.203125 370.277344 C 499.480469 329.152344 518.507812 238.3125 516.667969 218.667969 C 510.527344 161.585938 497.640625 92.839844 450.378906 70.746094 C 438.714844 65.21875 427.054688 62.765625 416.003906 63.378906 C 402.5 63.992188 388.382812 70.128906 376.109375 80.566406 C 349.101562 103.277344 350.328125 135.808594 352.167969 164.042969 C 352.167969 170.179688 352.785156 176.316406 352.785156 182.457031 L 352.785156 215.601562 C 352.785156 235.855469 288.949219 340.816406 264.398438 380.097656 C 252.734375 399.738281 245.984375 410.171875 242.914062 416.3125 C 241.6875 417.539062 239.230469 419.378906 236.164062 421.222656 C 233.09375 399.738281 214.679688 383.167969 192.582031 383.167969 L 60.003906 383.167969 C 35.453125 383.167969 15.808594 403.421875 15.808594 427.972656 L 15.808594 755.742188 C 15.808594 780.292969 35.453125 800.546875 60.003906 800.546875 L 193.195312 800.546875 C 212.222656 800.546875 228.183594 788.886719 234.320312 771.699219 C 238.003906 771.699219 241.074219 771.699219 243.527344 772.925781 C 250.28125 775.382812 256.417969 779.679688 263.167969 784.589844 C 272.375 790.726562 281.582031 796.863281 293.246094 800.546875 C 294.472656 800.546875 295.699219 801.160156 296.316406 801.160156 L 659.066406 801.160156 C 694.667969 801.160156 723.515625 772.3125 723.515625 736.714844 C 723.515625 720.753906 717.378906 706.023438 708.171875 694.976562 C 735.792969 687.609375 756.046875 662.445312 756.046875 632.367188 C 756.046875 615.179688 749.296875 599.835938 738.859375 588.175781 C 763.414062 578.96875 780.597656 555.644531 780.597656 528.023438 C 780.597656 510.835938 773.847656 494.878906 762.800781 483.214844 C 785.507812 473.394531 801.46875 450.683594 801.46875 424.289062 C 801.46875 389.917969 779.371094 370.277344 740.089844 370.277344 Z M 126.292969 738.554688 C 102.355469 738.554688 83.328125 719.527344 83.328125 695.589844 C 83.328125 671.652344 102.355469 652.621094 126.292969 652.621094 C 150.230469 652.621094 169.257812 671.652344 169.257812 695.589844 C 169.257812 719.527344 150.230469 738.554688 126.292969 738.554688 Z M 737.019531 462.960938 L 724.128906 462.960938 C 717.992188 462.960938 712.46875 467.871094 711.855469 474.007812 C 711.242188 480.144531 716.152344 486.285156 722.289062 486.898438 C 741.929688 489.96875 756.660156 506.539062 756.660156 526.179688 C 756.660156 548.277344 738.859375 566.078125 716.152344 566.078125 L 694.054688 566.078125 C 687.300781 566.078125 681.777344 571.601562 681.777344 578.355469 C 681.777344 585.105469 686.6875 590.628906 693.441406 590.628906 C 714.921875 591.855469 731.496094 609.042969 731.496094 630.527344 C 731.496094 652.621094 713.695312 670.421875 691.597656 670.421875 L 661.523438 670.421875 C 654.769531 670.421875 649.246094 675.945312 649.246094 682.699219 C 649.246094 689.449219 654.15625 694.976562 660.910156 694.976562 C 682.390625 696.203125 698.964844 713.390625 698.964844 734.871094 C 698.964844 756.96875 681.164062 774.769531 659.066406 774.769531 L 298.15625 775.382812 C 290.789062 772.925781 284.039062 768.015625 276.671875 763.105469 C 268.695312 758.195312 260.714844 752.671875 251.507812 748.988281 C 246.597656 747.148438 241.6875 746.535156 236.777344 746.535156 L 236.777344 450.070312 C 261.941406 434.113281 263.167969 431.042969 264.398438 428.585938 C 265.625 425.519531 275.445312 409.558594 285.265625 392.988281 C 343.578125 297.847656 377.335938 238.3125 377.335938 215.601562 L 377.335938 182.457031 C 377.335938 175.703125 376.722656 169.566406 376.722656 162.8125 C 375.492188 136.421875 374.265625 114.324219 392.066406 98.980469 C 397.589844 94.070312 406.796875 88.542969 417.847656 87.929688 C 425.210938 87.316406 432.578125 89.160156 440.554688 92.839844 C 481.066406 111.867188 489.660156 191.046875 492.730469 221.125 C 494.570312 240.765625 466.949219 362.296875 460.199219 375.800781 C 457.742188 379.484375 457.742188 384.394531 459.585938 388.078125 C 461.425781 392.375 465.722656 394.828125 470.632812 394.828125 L 740.703125 394.828125 C 777.53125 394.828125 777.53125 415.699219 777.53125 423.0625 C 776.917969 445.160156 759.117188 462.960938 737.019531 462.960938 Z M 737.019531 462.960938 " fill-opacity="1" fill-rule="nonzero"/></g></svg>