<svg xmlns="http://www.w3.org/2000/svg" xmlns:xlink="http://www.w3.org/1999/xlink" width="500" zoomAndPan="magnify" viewBox="0 0 375 225" height="300" preserveAspectRatio="xMidYMid meet" version="1.0"><defs><g/><clipPath id="0bb6808996"><path d="M 9.46875 58 L 46 58 L 46 95 L 9.46875 95 Z M 9.46875 58 " clip-rule="nonzero"/></clipPath><clipPath id="3d9cb55ce9"><path d="M 9.46875 5 L 102.46875 5 L 102.46875 147.746094 L 9.46875 147.746094 Z M 9.46875 5 " clip-rule="nonzero"/></clipPath><clipPath id="2c82c9a164"><path d="M 244.800781 4.496094 L 367.800781 4.496094 L 367.800781 44.246094 L 244.800781 44.246094 Z M 244.800781 4.496094 " clip-rule="nonzero"/></clipPath><clipPath id="657942249f"><path d="M 127.136719 58 L 164 58 L 164 95 L 127.136719 95 Z M 127.136719 58 " clip-rule="nonzero"/></clipPath><clipPath id="bf1af6e48a"><path d="M 127.136719 5 L 220.136719 5 L 220.136719 147.746094 L 127.136719 147.746094 Z M 127.136719 5 " clip-rule="nonzero"/></clipPath><clipPath id="7c2fca41bb"><path d="M 244.4375 4.496094 L 288.6875 4.496094 L 288.6875 140.996094 L 244.4375 140.996094 Z M 244.4375 4.496094 " clip-rule="nonzero"/></clipPath><clipPath id="82c99cf39a"><path d="M 244.078125 4.496094 L 288.328125 4.496094 L 288.328125 140.996094 L 244.078125 140.996094 Z M 244.078125 4.496094 " clip-rule="nonzero"/></clipPath><clipPath id="252c2c4c2b"><path d="M 244.800781 102.082031 L 367.800781 102.082031 L 367.800781 140.996094 L 244.800781 140.996094 Z M 244.800781 102.082031 " clip-rule="nonzero"/></clipPath></defs><g clip-path="url(#0bb6808996)"><path fill="#000000" d="M 27.695312 94.148438 C 37.503906 94.148438 45.460938 86.15625 45.460938 76.296875 C 45.460938 66.4375 37.503906 58.441406 27.695312 58.441406 C 17.882812 58.441406 9.933594 66.4375 9.933594 76.296875 C 9.933594 86.15625 17.882812 94.148438 27.695312 94.148438 " fill-opacity="1" fill-rule="nonzero"/></g><g clip-path="url(#3d9cb55ce9)"><path fill="#000000" d="M 68.167969 87.980469 C 72.890625 91.183594 76 96.617188 76 102.777344 C 76 112.640625 68.046875 120.632812 58.238281 120.632812 L 9.46875 120.351562 L 9.46875 147.085938 L 58.238281 147.234375 C 82.664062 147.234375 102.46875 127.332031 102.46875 102.777344 C 102.46875 92.84375 99.226562 83.667969 93.746094 76.265625 L 94.328125 75.453125 C 99.496094 68.175781 102.46875 59.183594 102.46875 49.5625 C 102.46875 25.011719 82.664062 5.113281 58.238281 5.113281 L 9.46875 5.011719 L 9.46875 31.246094 L 58.238281 31.714844 C 68.046875 31.714844 76 39.707031 76 49.5625 C 76 55.710938 72.910156 61.132812 68.203125 64.339844 L 50.355469 64.339844 L 50.355469 87.929688 L 68.167969 87.980469 " fill-opacity="1" fill-rule="nonzero"/></g><g clip-path="url(#2c82c9a164)"><path fill="#fadb45" d="M 353.414062 102.453125 L 352.882812 102.964844 C 342.710938 112.753906 328.984375 118.601562 316.175781 118.601562 C 289.828125 118.601562 269.1875 98.214844 269.1875 72.1875 C 269.1875 46.261719 289.828125 25.957031 316.175781 25.957031 C 329.417969 25.957031 343.128906 32.21875 352.855469 42.710938 L 353.414062 43.3125 L 367.492188 25.765625 L 367.035156 25.316406 C 353.8125 12.277344 334.65625 4.496094 315.792969 4.496094 C 296.488281 4.496094 278.589844 11.4375 265.390625 24.035156 C 252.160156 36.667969 244.878906 53.832031 244.878906 72.371094 C 244.878906 91.101562 252.074219 108.449219 265.144531 121.222656 C 278.199219 133.980469 295.914062 141.003906 315.027344 141.003906 C 333.648438 141.003906 353.160156 132.726562 367.226562 118.859375 L 367.710938 118.382812 Z M 353.414062 102.453125 " fill-opacity="1" fill-rule="nonzero"/></g><g clip-path="url(#657942249f)"><path fill="#000000" d="M 145.363281 94.148438 C 155.171875 94.148438 163.125 86.15625 163.125 76.296875 C 163.125 66.4375 155.171875 58.441406 145.363281 58.441406 C 135.546875 58.441406 127.597656 66.4375 127.597656 76.296875 C 127.597656 86.15625 135.546875 94.148438 145.363281 94.148438 " fill-opacity="1" fill-rule="nonzero"/></g><g clip-path="url(#bf1af6e48a)"><path fill="#000000" d="M 185.835938 87.980469 C 190.554688 91.183594 193.664062 96.617188 193.664062 102.777344 C 193.664062 112.640625 185.710938 120.632812 175.902344 120.632812 L 127.136719 120.351562 L 127.136719 147.085938 L 175.902344 147.234375 C 200.332031 147.234375 220.132812 127.332031 220.132812 102.777344 C 220.132812 92.84375 216.890625 83.667969 211.410156 76.265625 L 211.996094 75.453125 C 217.160156 68.175781 220.132812 59.183594 220.132812 49.5625 C 220.132812 25.011719 200.332031 5.113281 175.902344 5.113281 L 127.136719 5.011719 L 127.136719 31.246094 L 175.902344 31.714844 C 185.710938 31.714844 193.664062 39.707031 193.664062 49.5625 C 193.664062 55.710938 190.574219 61.132812 185.867188 64.339844 L 168.019531 64.339844 L 168.019531 87.929688 L 185.835938 87.980469 " fill-opacity="1" fill-rule="nonzero"/></g><g fill="#000000" fill-opacity="1"><g transform="translate(15.132251, 209.49451)"><g><path d="M 2.765625 0 L 2.765625 -41.859375 L 9 -41.859375 C 11.375 -41.859375 13.109375 -41.332031 14.203125 -40.28125 C 15.304688 -39.238281 15.875 -37.515625 15.90625 -35.109375 C 15.90625 -33.367188 15.90625 -31.84375 15.90625 -30.53125 C 15.90625 -29.226562 15.890625 -27.960938 15.859375 -26.734375 C 15.785156 -25.273438 15.503906 -24.132812 15.015625 -23.3125 C 14.523438 -22.488281 13.757812 -21.882812 12.71875 -21.5 L 12.71875 -20.5625 C 14.769531 -19.863281 15.832031 -18.101562 15.90625 -15.28125 C 15.9375 -13.75 15.953125 -12.328125 15.953125 -11.015625 C 15.953125 -9.703125 15.9375 -8.28125 15.90625 -6.75 C 15.832031 -4.34375 15.265625 -2.613281 14.203125 -1.5625 C 13.140625 -0.519531 11.40625 0 9 0 Z M 6.234375 -22.609375 L 8.953125 -22.609375 C 11.179688 -22.609375 12.332031 -24.003906 12.40625 -26.796875 C 12.507812 -29.617188 12.507812 -32.441406 12.40625 -35.265625 C 12.332031 -37.566406 11.195312 -38.71875 9 -38.71875 L 6.234375 -38.71875 Z M 6.234375 -3.140625 L 9 -3.140625 C 11.226562 -3.140625 12.378906 -4.359375 12.453125 -6.796875 C 12.554688 -9.585938 12.554688 -12.378906 12.453125 -15.171875 C 12.421875 -16.742188 12.113281 -17.859375 11.53125 -18.515625 C 10.957031 -19.179688 10.046875 -19.515625 8.796875 -19.515625 L 6.234375 -19.515625 Z M 6.234375 -3.140625 "/></g></g></g><g fill="#000000" fill-opacity="1"><g transform="translate(42.339943, 209.49451)"><g><path d="M 2.765625 0 L 2.765625 -41.859375 L 6.234375 -41.859375 L 6.234375 0 Z M 2.765625 0 "/></g></g></g><g fill="#000000" fill-opacity="1"><g transform="translate(60.549002, 209.49451)"><g><path d="M 9.734375 0.359375 C 7.328125 0.359375 5.597656 -0.171875 4.546875 -1.234375 C 3.503906 -2.296875 2.945312 -4.066406 2.875 -6.546875 C 2.695312 -16.140625 2.695312 -25.679688 2.875 -35.171875 C 2.945312 -37.710938 3.503906 -39.523438 4.546875 -40.609375 C 5.597656 -41.691406 7.328125 -42.234375 9.734375 -42.234375 C 12.035156 -42.234375 13.707031 -41.695312 14.75 -40.625 C 15.800781 -39.5625 16.378906 -37.8125 16.484375 -35.375 C 16.585938 -32.6875 16.585938 -30.019531 16.484375 -27.375 L 13.03125 -27.375 C 13.132812 -30.195312 13.132812 -33.035156 13.03125 -35.890625 C 12.925781 -38.128906 11.828125 -39.25 9.734375 -39.25 C 7.566406 -39.25 6.453125 -38.128906 6.390625 -35.890625 C 6.140625 -25.921875 6.140625 -15.960938 6.390625 -6.015625 C 6.390625 -4.828125 6.65625 -3.960938 7.1875 -3.421875 C 7.726562 -2.878906 8.578125 -2.609375 9.734375 -2.609375 C 12.035156 -2.609375 13.222656 -3.742188 13.296875 -6.015625 C 13.359375 -8.835938 13.359375 -11.679688 13.296875 -14.546875 L 9.78125 -14.546875 L 9.78125 -17.640625 L 16.6875 -17.640625 C 16.726562 -16.273438 16.75 -14.691406 16.75 -12.890625 C 16.75 -11.097656 16.726562 -8.984375 16.6875 -6.546875 C 16.582031 -4.066406 16 -2.296875 14.9375 -1.234375 C 13.875 -0.171875 12.140625 0.359375 9.734375 0.359375 Z M 9.734375 0.359375 "/></g></g></g><g fill="#000000" fill-opacity="1"><g transform="translate(88.227545, 209.49451)"><g/></g></g><g fill="#000000" fill-opacity="1"><g transform="translate(108.26772, 209.49451)"><g><path d="M 2.765625 0 L 2.765625 -41.859375 L 9 -41.859375 C 11.375 -41.859375 13.109375 -41.332031 14.203125 -40.28125 C 15.304688 -39.238281 15.875 -37.515625 15.90625 -35.109375 C 15.90625 -33.367188 15.90625 -31.84375 15.90625 -30.53125 C 15.90625 -29.226562 15.890625 -27.960938 15.859375 -26.734375 C 15.785156 -25.273438 15.503906 -24.132812 15.015625 -23.3125 C 14.523438 -22.488281 13.757812 -21.882812 12.71875 -21.5 L 12.71875 -20.5625 C 14.769531 -19.863281 15.832031 -18.101562 15.90625 -15.28125 C 15.9375 -13.75 15.953125 -12.328125 15.953125 -11.015625 C 15.953125 -9.703125 15.9375 -8.28125 15.90625 -6.75 C 15.832031 -4.34375 15.265625 -2.613281 14.203125 -1.5625 C 13.140625 -0.519531 11.40625 0 9 0 Z M 6.234375 -22.609375 L 8.953125 -22.609375 C 11.179688 -22.609375 12.332031 -24.003906 12.40625 -26.796875 C 12.507812 -29.617188 12.507812 -32.441406 12.40625 -35.265625 C 12.332031 -37.566406 11.195312 -38.71875 9 -38.71875 L 6.234375 -38.71875 Z M 6.234375 -3.140625 L 9 -3.140625 C 11.226562 -3.140625 12.378906 -4.359375 12.453125 -6.796875 C 12.554688 -9.585938 12.554688 -12.378906 12.453125 -15.171875 C 12.421875 -16.742188 12.113281 -17.859375 11.53125 -18.515625 C 10.957031 -19.179688 10.046875 -19.515625 8.796875 -19.515625 L 6.234375 -19.515625 Z M 6.234375 -3.140625 "/></g></g></g><g fill="#000000" fill-opacity="1"><g transform="translate(135.475416, 209.49451)"><g><path d="M 9.78125 0.359375 C 7.375 0.359375 5.640625 -0.160156 4.578125 -1.203125 C 3.515625 -2.242188 2.96875 -3.988281 2.9375 -6.4375 C 2.820312 -11.425781 2.765625 -16.25 2.765625 -20.90625 C 2.765625 -25.5625 2.820312 -30.398438 2.9375 -35.421875 C 2.96875 -37.867188 3.515625 -39.613281 4.578125 -40.65625 C 5.640625 -41.707031 7.375 -42.234375 9.78125 -42.234375 C 12.226562 -42.234375 13.972656 -41.707031 15.015625 -40.65625 C 16.066406 -39.613281 16.625 -37.867188 16.6875 -35.421875 C 16.757812 -30.398438 16.796875 -25.5625 16.796875 -20.90625 C 16.796875 -16.25 16.757812 -11.425781 16.6875 -6.4375 C 16.625 -3.988281 16.066406 -2.242188 15.015625 -1.203125 C 13.972656 -0.160156 12.226562 0.359375 9.78125 0.359375 Z M 9.78125 -2.609375 C 11 -2.609375 11.867188 -2.851562 12.390625 -3.34375 C 12.921875 -3.832031 13.1875 -4.6875 13.1875 -5.90625 C 13.363281 -11.039062 13.441406 -16.082031 13.421875 -21.03125 C 13.398438 -25.988281 13.320312 -30.960938 13.1875 -35.953125 C 13.1875 -37.171875 12.921875 -38.023438 12.390625 -38.515625 C 11.867188 -39.003906 11 -39.25 9.78125 -39.25 C 8.59375 -39.25 7.738281 -39.003906 7.21875 -38.515625 C 6.695312 -38.023438 6.421875 -37.171875 6.390625 -35.953125 C 6.242188 -30.960938 6.171875 -25.988281 6.171875 -21.03125 C 6.171875 -16.082031 6.242188 -11.039062 6.390625 -5.90625 C 6.421875 -4.6875 6.695312 -3.832031 7.21875 -3.34375 C 7.738281 -2.851562 8.59375 -2.609375 9.78125 -2.609375 Z M 9.78125 -2.609375 "/></g></g></g><g fill="#000000" fill-opacity="1"><g transform="translate(164.252639, 209.49451)"><g><path d="M 7.109375 0 L 7.109375 -10.9375 L 6.75 -12.875 L 1.359375 -41.859375 L 4.96875 -41.859375 L 6.796875 -30.03125 L 8.421875 -18.046875 L 9.3125 -18.046875 L 10.890625 -30.03125 L 12.71875 -41.859375 L 16.28125 -41.859375 L 10.9375 -12.875 L 10.5625 -10.9375 L 10.5625 0 Z M 7.109375 0 "/></g></g></g><g fill="#000000" fill-opacity="1"><g transform="translate(191.146434, 209.49451)"><g/></g></g><g fill="#000000" fill-opacity="1"><g transform="translate(211.186615, 209.49451)"><g><path d="M 9.625 0.359375 C 7.25 0.359375 5.539062 -0.171875 4.5 -1.234375 C 3.457031 -2.296875 2.914062 -4.046875 2.875 -6.484375 C 2.800781 -11.398438 2.765625 -16.203125 2.765625 -20.890625 C 2.765625 -25.585938 2.800781 -30.398438 2.875 -35.328125 C 2.914062 -37.585938 3.457031 -39.289062 4.5 -40.4375 C 5.539062 -41.59375 7.25 -42.171875 9.625 -42.171875 C 12 -42.171875 13.71875 -41.640625 14.78125 -40.578125 C 15.84375 -39.515625 16.410156 -37.765625 16.484375 -35.328125 C 16.515625 -34.660156 16.53125 -33.820312 16.53125 -32.8125 C 16.53125 -31.800781 16.519531 -30.796875 16.5 -29.796875 C 16.488281 -28.804688 16.484375 -27.976562 16.484375 -27.3125 L 12.984375 -27.3125 C 13.015625 -28.632812 13.035156 -30.054688 13.046875 -31.578125 C 13.066406 -33.097656 13.0625 -34.519531 13.03125 -35.84375 C 13 -37.0625 12.71875 -37.929688 12.1875 -38.453125 C 11.664062 -38.984375 10.8125 -39.25 9.625 -39.25 C 8.476562 -39.25 7.648438 -38.984375 7.140625 -38.453125 C 6.640625 -37.929688 6.367188 -37.0625 6.328125 -35.84375 C 6.222656 -30.675781 6.171875 -25.703125 6.171875 -20.921875 C 6.171875 -16.148438 6.222656 -11.164062 6.328125 -5.96875 C 6.367188 -4.75 6.648438 -3.875 7.171875 -3.34375 C 7.691406 -2.820312 8.507812 -2.5625 9.625 -2.5625 C 10.882812 -2.5625 11.789062 -2.820312 12.34375 -3.34375 C 12.90625 -3.875 13.203125 -4.75 13.234375 -5.96875 C 13.273438 -7.394531 13.285156 -8.910156 13.265625 -10.515625 C 13.242188 -12.117188 13.21875 -13.640625 13.1875 -15.078125 L 16.6875 -15.078125 C 16.726562 -13.609375 16.75 -12.175781 16.75 -10.78125 C 16.75 -9.382812 16.726562 -7.953125 16.6875 -6.484375 C 16.625 -4.046875 16.050781 -2.296875 14.96875 -1.234375 C 13.882812 -0.171875 12.101562 0.359375 9.625 0.359375 Z M 9.625 0.359375 "/></g></g></g><g fill="#000000" fill-opacity="1"><g transform="translate(239.179085, 209.49451)"><g><path d="M 2.765625 0 L 2.765625 -41.859375 L 6.234375 -41.859375 L 6.234375 -22.609375 L 12.921875 -22.609375 L 12.921875 -41.859375 L 16.375 -41.859375 L 16.375 0 L 12.921875 0 L 12.921875 -19.515625 L 6.234375 -19.515625 L 6.234375 0 Z M 2.765625 0 "/></g></g></g><g fill="#000000" fill-opacity="1"><g transform="translate(267.537766, 209.49451)"><g><path d="M 9.78125 0.359375 C 7.375 0.359375 5.640625 -0.160156 4.578125 -1.203125 C 3.515625 -2.242188 2.96875 -3.988281 2.9375 -6.4375 C 2.820312 -11.425781 2.765625 -16.25 2.765625 -20.90625 C 2.765625 -25.5625 2.820312 -30.398438 2.9375 -35.421875 C 2.96875 -37.867188 3.515625 -39.613281 4.578125 -40.65625 C 5.640625 -41.707031 7.375 -42.234375 9.78125 -42.234375 C 12.226562 -42.234375 13.972656 -41.707031 15.015625 -40.65625 C 16.066406 -39.613281 16.625 -37.867188 16.6875 -35.421875 C 16.757812 -30.398438 16.796875 -25.5625 16.796875 -20.90625 C 16.796875 -16.25 16.757812 -11.425781 16.6875 -6.4375 C 16.625 -3.988281 16.066406 -2.242188 15.015625 -1.203125 C 13.972656 -0.160156 12.226562 0.359375 9.78125 0.359375 Z M 9.78125 -2.609375 C 11 -2.609375 11.867188 -2.851562 12.390625 -3.34375 C 12.921875 -3.832031 13.1875 -4.6875 13.1875 -5.90625 C 13.363281 -11.039062 13.441406 -16.082031 13.421875 -21.03125 C 13.398438 -25.988281 13.320312 -30.960938 13.1875 -35.953125 C 13.1875 -37.171875 12.921875 -38.023438 12.390625 -38.515625 C 11.867188 -39.003906 11 -39.25 9.78125 -39.25 C 8.59375 -39.25 7.738281 -39.003906 7.21875 -38.515625 C 6.695312 -38.023438 6.421875 -37.171875 6.390625 -35.953125 C 6.242188 -30.960938 6.171875 -25.988281 6.171875 -21.03125 C 6.171875 -16.082031 6.242188 -11.039062 6.390625 -5.90625 C 6.421875 -4.6875 6.695312 -3.832031 7.21875 -3.34375 C 7.738281 -2.851562 8.59375 -2.609375 9.78125 -2.609375 Z M 9.78125 -2.609375 "/></g></g></g><g fill="#000000" fill-opacity="1"><g transform="translate(296.314988, 209.49451)"><g><path d="M 2.765625 0 L 2.765625 -41.859375 L 6.234375 -41.859375 L 6.234375 0 Z M 2.765625 0 "/></g></g></g><g fill="#000000" fill-opacity="1"><g transform="translate(314.524053, 209.49451)"><g><path d="M 9.625 0.359375 C 7.25 0.359375 5.539062 -0.171875 4.5 -1.234375 C 3.457031 -2.296875 2.914062 -4.046875 2.875 -6.484375 C 2.800781 -11.398438 2.765625 -16.203125 2.765625 -20.890625 C 2.765625 -25.585938 2.800781 -30.398438 2.875 -35.328125 C 2.914062 -37.585938 3.457031 -39.289062 4.5 -40.4375 C 5.539062 -41.59375 7.25 -42.171875 9.625 -42.171875 C 12 -42.171875 13.71875 -41.640625 14.78125 -40.578125 C 15.84375 -39.515625 16.410156 -37.765625 16.484375 -35.328125 C 16.515625 -34.660156 16.53125 -33.820312 16.53125 -32.8125 C 16.53125 -31.800781 16.519531 -30.796875 16.5 -29.796875 C 16.488281 -28.804688 16.484375 -27.976562 16.484375 -27.3125 L 12.984375 -27.3125 C 13.015625 -28.632812 13.035156 -30.054688 13.046875 -31.578125 C 13.066406 -33.097656 13.0625 -34.519531 13.03125 -35.84375 C 13 -37.0625 12.71875 -37.929688 12.1875 -38.453125 C 11.664062 -38.984375 10.8125 -39.25 9.625 -39.25 C 8.476562 -39.25 7.648438 -38.984375 7.140625 -38.453125 C 6.640625 -37.929688 6.367188 -37.0625 6.328125 -35.84375 C 6.222656 -30.675781 6.171875 -25.703125 6.171875 -20.921875 C 6.171875 -16.148438 6.222656 -11.164062 6.328125 -5.96875 C 6.367188 -4.75 6.648438 -3.875 7.171875 -3.34375 C 7.691406 -2.820312 8.507812 -2.5625 9.625 -2.5625 C 10.882812 -2.5625 11.789062 -2.820312 12.34375 -3.34375 C 12.90625 -3.875 13.203125 -4.75 13.234375 -5.96875 C 13.273438 -7.394531 13.285156 -8.910156 13.265625 -10.515625 C 13.242188 -12.117188 13.21875 -13.640625 13.1875 -15.078125 L 16.6875 -15.078125 C 16.726562 -13.609375 16.75 -12.175781 16.75 -10.78125 C 16.75 -9.382812 16.726562 -7.953125 16.6875 -6.484375 C 16.625 -4.046875 16.050781 -2.296875 14.96875 -1.234375 C 13.882812 -0.171875 12.101562 0.359375 9.625 0.359375 Z M 9.625 0.359375 "/></g></g></g><g fill="#000000" fill-opacity="1"><g transform="translate(342.516523, 209.49451)"><g><path d="M 2.765625 0 L 2.765625 -41.859375 L 14.546875 -41.859375 L 14.546875 -38.71875 L 6.234375 -38.71875 L 6.234375 -22.609375 L 14.03125 -22.609375 L 14.03125 -19.515625 L 6.234375 -19.515625 L 6.234375 -3.140625 L 14.546875 -3.140625 L 14.546875 0 Z M 2.765625 0 "/></g></g></g><g fill="#000000" fill-opacity="1"><g transform="translate(367.991297, 209.49451)"><g/></g></g><g clip-path="url(#7c2fca41bb)"><path fill="#fadb45" d="M 353.050781 102.453125 L 352.523438 102.964844 C 342.347656 112.753906 328.625 118.601562 315.8125 118.601562 C 289.464844 118.601562 268.828125 98.214844 268.828125 72.1875 C 268.828125 46.261719 289.464844 25.957031 315.8125 25.957031 C 329.054688 25.957031 342.765625 32.21875 352.492188 42.710938 L 353.050781 43.3125 L 367.132812 25.765625 L 366.675781 25.316406 C 353.453125 12.277344 334.296875 4.496094 315.433594 4.496094 C 296.125 4.496094 278.226562 11.4375 265.03125 24.035156 C 251.800781 36.667969 244.515625 53.832031 244.515625 72.371094 C 244.515625 91.101562 251.714844 108.449219 264.785156 121.222656 C 277.839844 133.980469 295.554688 141.003906 314.667969 141.003906 C 333.285156 141.003906 352.800781 132.726562 366.867188 118.859375 L 367.347656 118.382812 Z M 353.050781 102.453125 " fill-opacity="1" fill-rule="nonzero"/></g><g clip-path="url(#82c99cf39a)"><path fill="#fadb45" d="M 352.691406 102.453125 L 352.160156 102.964844 C 341.988281 112.753906 328.261719 118.601562 315.453125 118.601562 C 289.105469 118.601562 268.464844 98.214844 268.464844 72.1875 C 268.464844 46.261719 289.105469 25.957031 315.453125 25.957031 C 328.695312 25.957031 342.40625 32.21875 352.132812 42.710938 L 352.691406 43.3125 L 366.769531 25.765625 L 366.3125 25.316406 C 353.089844 12.277344 333.933594 4.496094 315.070312 4.496094 C 295.765625 4.496094 277.867188 11.4375 264.667969 24.035156 C 251.4375 36.667969 244.15625 53.832031 244.15625 72.371094 C 244.15625 91.101562 251.351562 108.449219 264.421875 121.222656 C 277.476562 133.980469 295.191406 141.003906 314.304688 141.003906 C 332.925781 141.003906 352.4375 132.726562 366.503906 118.859375 L 366.988281 118.382812 Z M 352.691406 102.453125 " fill-opacity="1" fill-rule="nonzero"/></g><g clip-path="url(#252c2c4c2b)"><path fill="#fadb45" d="M 353.414062 102.453125 L 352.882812 102.964844 C 342.710938 112.753906 328.984375 118.601562 316.175781 118.601562 C 289.828125 118.601562 269.1875 98.214844 269.1875 72.1875 C 269.1875 46.261719 289.828125 25.957031 316.175781 25.957031 C 329.417969 25.957031 343.128906 32.21875 352.855469 42.710938 L 353.414062 43.3125 L 367.492188 25.765625 L 367.035156 25.316406 C 353.8125 12.277344 334.65625 4.496094 315.792969 4.496094 C 296.488281 4.496094 278.589844 11.4375 265.390625 24.035156 C 252.160156 36.667969 244.878906 53.832031 244.878906 72.371094 C 244.878906 91.101562 252.074219 108.449219 265.144531 121.222656 C 278.199219 133.980469 295.914062 141.003906 315.027344 141.003906 C 333.648438 141.003906 353.160156 132.726562 367.226562 118.859375 L 367.710938 118.382812 Z M 353.414062 102.453125 " fill-opacity="1" fill-rule="nonzero"/></g></svg>