<svg xmlns="http://www.w3.org/2000/svg" xmlns:xlink="http://www.w3.org/1999/xlink" width="800" zoomAndPan="magnify" viewBox="0 0 600 599.999999" height="800" preserveAspectRatio="xMidYMid meet" version="1.0"><defs><clipPath id="347b227a25"><path d="M 72.351562 81.214844 L 406.851562 81.214844 L 406.851562 415.714844 L 72.351562 415.714844 Z M 72.351562 81.214844 " clip-rule="nonzero"/></clipPath><clipPath id="000c7ed23b"><path d="M 10 19 L 469 19 L 469 477 L 10 477 Z M 10 19 " clip-rule="nonzero"/></clipPath><clipPath id="3b7f801533"><path d="M -7.207031 38.617188 L 554.175781 -7.207031 L 600 554.175781 L 38.617188 600 Z M -7.207031 38.617188 " clip-rule="nonzero"/></clipPath><clipPath id="4993465275"><path d="M -7.207031 38.617188 L 554.175781 -7.207031 L 600 554.175781 L 38.617188 600 Z M -7.207031 38.617188 " clip-rule="nonzero"/></clipPath><clipPath id="bce6e20cc8"><path d="M -7.207031 38.617188 L 554.175781 -7.207031 L 600 554.175781 L 38.617188 600 Z M -7.207031 38.617188 " clip-rule="nonzero"/></clipPath><clipPath id="559c23c274"><path d="M 226 90 L 397 90 L 397 240 L 226 240 Z M 226 90 " clip-rule="nonzero"/></clipPath><clipPath id="1f66160fe8"><path d="M -7.207031 38.617188 L 554.175781 -7.207031 L 600 554.175781 L 38.617188 600 Z M -7.207031 38.617188 " clip-rule="nonzero"/></clipPath><clipPath id="c8ac11e512"><path d="M -7.207031 38.617188 L 554.175781 -7.207031 L 600 554.175781 L 38.617188 600 Z M -7.207031 38.617188 " clip-rule="nonzero"/></clipPath><clipPath id="e749635eda"><path d="M -7.207031 38.617188 L 554.175781 -7.207031 L 600 554.175781 L 38.617188 600 Z M -7.207031 38.617188 " clip-rule="nonzero"/></clipPath><clipPath id="c1bb823a10"><path d="M 374 357 L 597 357 L 597 558 L 374 558 Z M 374 357 " clip-rule="nonzero"/></clipPath><clipPath id="91d1fdac06"><path d="M -7.207031 38.617188 L 554.175781 -7.207031 L 600 554.175781 L 38.617188 600 Z M -7.207031 38.617188 " clip-rule="nonzero"/></clipPath><clipPath id="1ae5b277fb"><path d="M -7.207031 38.617188 L 554.175781 -7.207031 L 600 554.175781 L 38.617188 600 Z M -7.207031 38.617188 " clip-rule="nonzero"/></clipPath><clipPath id="418213aca2"><path d="M -7.207031 38.617188 L 554.175781 -7.207031 L 600 554.175781 L 38.617188 600 Z M -7.207031 38.617188 " clip-rule="nonzero"/></clipPath></defs><g clip-path="url(#347b227a25)"><path fill="#fadb45" d="M 239.601562 81.214844 C 147.230469 81.214844 72.351562 156.097656 72.351562 248.464844 C 72.351562 340.835938 147.230469 415.714844 239.601562 415.714844 C 331.972656 415.714844 406.851562 340.835938 406.851562 248.464844 C 406.851562 156.097656 331.972656 81.214844 239.601562 81.214844 " fill-opacity="1" fill-rule="nonzero"/></g><g clip-path="url(#000c7ed23b)"><g clip-path="url(#3b7f801533)"><g clip-path="url(#4993465275)"><g clip-path="url(#bce6e20cc8)"><path fill="#000000" d="M 225.417969 77 C 130.988281 84.710938 60.6875 167.507812 68.394531 261.9375 C 76.105469 356.367188 158.902344 426.667969 253.332031 418.960938 C 347.761719 411.253906 418.0625 328.453125 410.355469 234.023438 C 402.648438 139.59375 319.847656 69.292969 225.417969 77 Z M 11.402344 266.589844 C 1.125 140.683594 94.859375 30.285156 220.765625 20.007812 C 346.671875 9.730469 457.070312 103.464844 467.347656 229.371094 C 477.625 355.277344 383.890625 465.675781 257.984375 475.953125 C 132.078125 486.230469 21.679688 392.496094 11.402344 266.589844 Z M 11.402344 266.589844 " fill-opacity="1" fill-rule="evenodd"/></g></g></g></g><g clip-path="url(#559c23c274)"><g clip-path="url(#1f66160fe8)"><g clip-path="url(#c8ac11e512)"><g clip-path="url(#e749635eda)"><path fill="#000000" d="M 339.113281 239.839844 C 334.617188 184.753906 286.316406 143.746094 231.234375 148.242188 L 226.582031 91.25 C 313.144531 84.183594 389.039062 148.628906 396.105469 235.1875 Z M 339.113281 239.839844 " fill-opacity="1" fill-rule="evenodd"/></g></g></g></g><g clip-path="url(#c1bb823a10)"><g clip-path="url(#91d1fdac06)"><g clip-path="url(#1ae5b277fb)"><g clip-path="url(#418213aca2)"><path fill="#000000" d="M 411.996094 357.039062 L 596.933594 514.0625 L 559.921875 557.652344 L 374.988281 400.628906 Z M 411.996094 357.039062 " fill-opacity="1" fill-rule="evenodd"/></g></g></g></g></svg>