<svg xmlns="http://www.w3.org/2000/svg" xmlns:xlink="http://www.w3.org/1999/xlink" width="1080" zoomAndPan="magnify" viewBox="0 0 810 675.000002" height="900" preserveAspectRatio="xMidYMid meet" version="1.0"><defs><clipPath id="803d389b86"><path d="M 53.191406 0 L 727.191406 0 L 727.191406 674 L 53.191406 674 Z M 53.191406 0 " clip-rule="nonzero"/></clipPath></defs><path fill="#f9cc40" d="M 718.867188 337 C 718.867188 364.761719 678.640625 386.863281 671.796875 412.46875 C 664.714844 438.964844 688.292969 478.179688 674.871094 501.371094 C 661.257812 524.898438 615.382812 524.003906 596.289062 543.097656 C 577.195312 562.1875 578.089844 608.066406 554.5625 621.679688 C 531.371094 635.101562 492.148438 611.523438 465.660156 618.605469 C 440.054688 625.449219 417.953125 665.675781 390.191406 665.675781 C 362.429688 665.675781 340.328125 625.449219 314.722656 618.605469 C 288.230469 611.523438 249.015625 635.101562 225.820312 621.679688 C 202.292969 608.066406 203.191406 562.1875 184.09375 543.097656 C 165 524.003906 119.128906 524.898438 105.511719 501.371094 C 92.09375 478.179688 115.667969 438.957031 108.589844 412.46875 C 101.746094 386.863281 61.519531 364.761719 61.519531 337 C 61.519531 309.238281 101.746094 287.136719 108.589844 261.53125 C 115.667969 235.035156 92.09375 195.824219 105.511719 172.628906 C 119.128906 149.101562 165 150 184.097656 130.90625 C 203.191406 111.804688 202.292969 65.933594 225.820312 52.320312 C 249.015625 38.898438 288.230469 62.480469 314.722656 55.398438 C 340.328125 48.554688 362.429688 8.328125 390.191406 8.328125 C 417.953125 8.328125 440.054688 48.554688 465.660156 55.398438 C 492.148438 62.480469 531.371094 38.898438 554.5625 52.320312 C 578.089844 65.933594 577.195312 111.8125 596.289062 130.90625 C 615.382812 150 661.257812 149.101562 674.871094 172.628906 C 688.292969 195.824219 664.714844 235.042969 671.796875 261.53125 C 678.640625 287.136719 718.867188 309.238281 718.867188 337 " fill-opacity="1" fill-rule="nonzero"/><g clip-path="url(#803d389b86)"><path fill="#231f20" d="M 303.300781 608.925781 C 307.960938 608.925781 312.507812 609.398438 316.871094 610.5625 C 330.238281 614.136719 341.96875 624.742188 353.308594 635.003906 C 365.460938 645.988281 378.027344 657.351562 390.191406 657.351562 C 402.363281 657.351562 414.921875 645.988281 427.074219 635.003906 C 438.421875 624.742188 450.144531 614.136719 463.511719 610.5625 C 477.472656 606.832031 493.332031 610.195312 508.667969 613.453125 C 525.039062 616.921875 540.503906 620.195312 550.398438 614.476562 C 560.542969 608.605469 565.457031 593.40625 570.65625 577.308594 C 575.429688 562.53125 580.371094 547.242188 590.402344 537.210938 C 600.4375 527.1875 615.722656 522.246094 630.5 517.464844 C 646.597656 512.265625 661.796875 507.351562 667.667969 497.207031 C 673.394531 487.3125 670.113281 471.847656 666.644531 455.476562 C 663.386719 440.140625 660.023438 424.28125 663.753906 410.320312 C 667.328125 396.953125 677.933594 385.226562 688.195312 373.882812 C 699.179688 361.730469 710.542969 349.171875 710.542969 337 C 710.542969 324.832031 699.179688 312.269531 688.195312 300.121094 C 677.933594 288.773438 667.328125 277.050781 663.753906 263.675781 C 660.023438 249.71875 663.386719 233.863281 666.644531 218.523438 C 670.113281 202.152344 673.394531 186.6875 667.667969 176.796875 C 661.796875 166.648438 646.597656 161.734375 630.5 156.535156 C 615.722656 151.765625 600.4375 146.824219 590.402344 136.789062 C 580.378906 126.757812 575.4375 111.472656 570.65625 96.691406 C 565.457031 80.59375 560.542969 65.398438 550.398438 59.523438 C 540.503906 53.796875 525.039062 57.082031 508.667969 60.550781 C 493.332031 63.804688 477.472656 67.167969 463.511719 63.4375 C 450.144531 59.863281 438.421875 49.257812 427.074219 39 C 414.921875 28.015625 402.355469 16.648438 390.191406 16.648438 C 378.027344 16.648438 365.460938 28.015625 353.308594 39 C 341.96875 49.257812 330.238281 59.863281 316.871094 63.4375 C 302.910156 67.167969 287.054688 63.804688 271.71875 60.550781 C 255.34375 57.082031 239.882812 53.796875 229.988281 59.523438 C 219.84375 65.398438 214.929688 80.59375 209.726562 96.6875 C 204.949219 111.472656 200.011719 126.757812 189.980469 136.789062 C 179.949219 146.816406 164.664062 151.757812 149.882812 156.535156 C 133.789062 161.734375 118.585938 166.648438 112.714844 176.796875 C 106.992188 186.6875 110.273438 202.152344 113.742188 218.523438 C 116.996094 233.863281 120.359375 249.71875 116.628906 263.675781 C 113.054688 277.050781 102.449219 288.773438 92.191406 300.121094 C 81.207031 312.269531 69.839844 324.832031 69.839844 337 C 69.839844 349.171875 81.207031 361.730469 92.191406 373.882812 C 102.449219 385.226562 113.054688 396.953125 116.628906 410.320312 C 120.359375 424.28125 116.996094 440.140625 113.742188 455.476562 C 110.273438 471.847656 106.992188 487.3125 112.714844 497.207031 C 118.585938 507.351562 133.785156 512.265625 149.882812 517.464844 C 164.664062 522.246094 179.945312 527.1875 189.980469 537.210938 C 200.011719 547.242188 204.949219 562.53125 209.726562 577.308594 C 214.929688 593.40625 219.84375 608.605469 229.988281 614.476562 C 239.882812 620.195312 255.34375 616.921875 271.71875 613.453125 C 282.261719 611.214844 293.050781 608.925781 303.300781 608.925781 Z M 390.191406 673.996094 C 371.617188 673.996094 356.632812 660.445312 342.144531 647.34375 C 331.816406 638.003906 322.058594 629.175781 312.574219 626.648438 C 302.46875 623.945312 288.589844 626.886719 275.167969 629.730469 C 256.441406 633.707031 237.078125 637.8125 221.652344 628.882812 C 205.96875 619.808594 199.832031 600.808594 193.890625 582.425781 C 189.71875 569.527344 185.40625 556.175781 178.210938 548.980469 C 171.011719 541.785156 157.671875 537.472656 144.761719 533.300781 C 126.386719 527.363281 107.382812 521.21875 98.308594 505.542969 C 89.382812 490.113281 93.492188 470.75 97.460938 452.019531 C 100.308594 438.601562 103.25 424.726562 100.546875 414.621094 C 98.011719 405.132812 89.1875 395.382812 79.851562 385.050781 C 66.746094 370.5625 53.199219 355.574219 53.199219 337 C 53.199219 318.425781 66.746094 303.441406 79.851562 288.953125 C 89.1875 278.621094 98.011719 268.867188 100.546875 259.382812 C 103.25 249.277344 100.308594 235.402344 97.460938 221.980469 C 93.492188 203.253906 89.382812 183.886719 98.3125 168.460938 C 107.382812 152.78125 126.386719 146.636719 144.761719 140.699219 C 157.671875 136.53125 171.011719 132.214844 178.210938 125.019531 C 185.40625 117.824219 189.722656 104.476562 193.890625 91.574219 C 199.832031 73.191406 205.96875 54.191406 221.65625 45.117188 C 237.082031 36.191406 256.445312 40.296875 275.171875 44.273438 C 288.589844 47.113281 302.46875 50.054688 312.574219 47.355469 C 322.058594 44.824219 331.816406 35.996094 342.144531 26.65625 C 356.632812 13.554688 371.617188 0.00390625 390.191406 0.00390625 C 408.765625 0.00390625 423.753906 13.554688 438.242188 26.65625 C 448.574219 35.996094 458.324219 44.824219 467.8125 47.355469 C 477.917969 50.054688 491.792969 47.113281 505.214844 44.273438 C 523.941406 40.296875 543.304688 36.191406 558.734375 45.117188 C 574.410156 54.191406 580.558594 73.191406 586.492188 91.574219 C 590.664062 104.476562 594.976562 117.824219 602.171875 125.019531 C 609.367188 132.214844 622.71875 136.53125 635.617188 140.699219 C 654.003906 146.636719 673 152.78125 682.074219 168.460938 C 690.996094 183.886719 686.898438 203.253906 682.921875 221.980469 C 680.078125 235.402344 677.136719 249.277344 679.839844 259.382812 C 682.371094 268.867188 691.195312 278.621094 700.535156 288.953125 C 713.636719 303.441406 727.1875 318.425781 727.1875 337 C 727.1875 355.574219 713.636719 370.5625 700.535156 385.050781 C 691.195312 395.382812 682.371094 405.132812 679.839844 414.621094 C 677.136719 424.726562 680.078125 438.609375 682.921875 452.019531 C 686.898438 470.75 690.996094 490.113281 682.074219 505.542969 C 673 521.21875 654.003906 527.363281 635.617188 533.300781 C 622.71875 537.472656 609.367188 541.785156 602.171875 548.980469 C 594.976562 556.175781 590.664062 569.527344 586.492188 582.425781 C 580.558594 600.808594 574.410156 619.808594 558.734375 628.882812 C 543.304688 637.8125 523.941406 633.707031 505.214844 629.730469 C 491.792969 626.886719 477.917969 623.945312 467.8125 626.648438 C 458.324219 629.175781 448.574219 638.003906 438.242188 647.34375 C 423.753906 660.445312 408.765625 673.996094 390.191406 673.996094 " fill-opacity="1" fill-rule="nonzero"/></g><path fill="#00ccb9" d="M 601.515625 337 C 601.515625 453.710938 506.902344 548.324219 390.191406 548.324219 C 273.484375 548.324219 178.871094 453.710938 178.871094 337 C 178.871094 220.289062 273.484375 125.679688 390.191406 125.679688 C 506.902344 125.679688 601.515625 220.289062 601.515625 337 " fill-opacity="1" fill-rule="nonzero"/><path fill="#231f20" d="M 390.191406 134 C 335.96875 134 284.992188 155.121094 246.652344 193.460938 C 208.308594 231.800781 187.195312 282.777344 187.195312 337 C 187.195312 391.226562 208.308594 442.203125 246.652344 480.542969 C 284.992188 518.882812 335.96875 540 390.191406 540 C 444.417969 540 495.394531 518.882812 533.734375 480.542969 C 572.074219 442.203125 593.191406 391.226562 593.191406 337 C 593.191406 282.777344 572.074219 231.800781 533.734375 193.460938 C 495.394531 155.121094 444.417969 134 390.191406 134 Z M 390.191406 556.644531 C 331.523438 556.644531 276.367188 533.796875 234.882812 492.3125 C 193.398438 450.824219 170.550781 395.671875 170.550781 337 C 170.550781 278.328125 193.398438 223.171875 234.882812 181.691406 C 276.367188 140.207031 331.523438 117.355469 390.191406 117.355469 C 448.859375 117.355469 504.015625 140.207031 545.503906 181.691406 C 586.988281 223.171875 609.835938 278.328125 609.835938 337 C 609.835938 395.671875 586.988281 450.824219 545.503906 492.3125 C 504.015625 533.796875 448.859375 556.644531 390.191406 556.644531 " fill-opacity="1" fill-rule="nonzero"/><path fill="#ffffff" d="M 411.496094 304.953125 L 430.335938 268.617188 C 436.035156 253.714844 435.96875 238.960938 423.21875 231.480469 C 412.972656 226.1875 400.414062 231.429688 393.320312 240.40625 L 356.316406 287.28125 C 347.511719 298.441406 334.078125 304.953125 319.863281 304.953125 L 319.863281 444.636719 L 473.9375 444.636719 C 488.035156 444.636719 499.460938 433.207031 499.460938 419.113281 L 499.460938 330.476562 C 499.460938 316.382812 488.035156 304.953125 473.9375 304.953125 L 411.496094 304.953125 " fill-opacity="1" fill-rule="nonzero"/><path fill="#231f20" d="M 328.1875 436.316406 L 473.9375 436.316406 C 483.421875 436.316406 491.140625 428.601562 491.140625 419.113281 L 491.140625 330.476562 C 491.140625 320.988281 483.421875 313.273438 473.9375 313.273438 L 411.496094 313.273438 C 408.585938 313.273438 405.890625 311.753906 404.378906 309.273438 C 402.875 306.789062 402.769531 303.699219 404.105469 301.125 L 422.726562 265.214844 C 427.652344 252.078125 426.46875 243.191406 419.210938 238.777344 C 414.273438 236.375 405.890625 237.917969 399.851562 245.558594 L 362.851562 292.441406 C 354.144531 303.472656 341.8125 310.585938 328.1875 312.648438 Z M 473.9375 452.960938 L 319.863281 452.960938 C 315.269531 452.960938 311.542969 449.230469 311.542969 444.636719 L 311.542969 304.953125 C 311.542969 300.359375 315.269531 296.628906 319.863281 296.628906 C 331.605469 296.628906 342.511719 291.34375 349.785156 282.128906 L 386.789062 235.25 C 395.691406 223.96875 412.378906 216.515625 427.042969 224.089844 C 427.175781 224.15625 427.308594 224.230469 427.433594 224.300781 C 442.359375 233.0625 446.253906 250.300781 438.113281 271.582031 C 438 271.878906 437.875 272.164062 437.726562 272.445312 L 425.183594 296.628906 L 473.9375 296.628906 C 492.601562 296.628906 507.78125 311.816406 507.78125 330.476562 L 507.78125 419.113281 C 507.78125 437.777344 492.601562 452.960938 473.9375 452.960938 " fill-opacity="1" fill-rule="nonzero"/><path fill="#df4c57" d="M 319.769531 444.34375 L 280.921875 444.34375 L 280.921875 304.878906 L 319.769531 304.878906 L 319.769531 444.34375 " fill-opacity="1" fill-rule="nonzero"/><path fill="#231f20" d="M 289.242188 436.023438 L 311.445312 436.023438 L 311.445312 313.199219 L 289.242188 313.199219 Z M 319.769531 452.667969 L 280.921875 452.667969 C 276.324219 452.667969 272.601562 448.941406 272.601562 444.34375 L 272.601562 304.878906 C 272.601562 300.277344 276.324219 296.558594 280.921875 296.558594 L 319.769531 296.558594 C 324.363281 296.558594 328.089844 300.277344 328.089844 304.878906 L 328.089844 444.34375 C 328.089844 448.941406 324.363281 452.667969 319.769531 452.667969 " fill-opacity="1" fill-rule="nonzero"/></svg>