<svg xmlns="http://www.w3.org/2000/svg" xmlns:xlink="http://www.w3.org/1999/xlink" width="1080" zoomAndPan="magnify" viewBox="0 0 810 299.999988" height="400" preserveAspectRatio="xMidYMid meet" version="1.0"><defs><clipPath id="bc1ebb62af"><path d="M 601.492188 134 L 809.992188 134 L 809.992188 278.714844 L 601.492188 278.714844 Z M 601.492188 134 " clip-rule="nonzero"/></clipPath><clipPath id="873c3bd3dd"><path d="M 321.433594 210 L 389.636719 210 L 389.636719 278.710938 L 321.433594 278.710938 Z M 321.433594 210 " clip-rule="nonzero"/></clipPath><clipPath id="3e1cc5289b"><path d="M 322 211.714844 L 389 211.714844 L 389 278 L 322 278 Z M 322 211.714844 " clip-rule="nonzero"/></clipPath><clipPath id="050dd7be39"><path d="M 142 210 L 211 210 L 211 278.710938 L 142 278.710938 Z M 142 210 " clip-rule="nonzero"/></clipPath><clipPath id="ddd353aecd"><path d="M 143 211.714844 L 210 211.714844 L 210 278 L 143 278 Z M 143 211.714844 " clip-rule="nonzero"/></clipPath><clipPath id="5c35f92a59"><path d="M 104.636719 142 L 350 142 L 350 247 L 104.636719 247 Z M 104.636719 142 " clip-rule="nonzero"/></clipPath><clipPath id="39aa8c7767"><path d="M 123 171 L 219 171 L 219 246 L 123 246 Z M 123 171 " clip-rule="nonzero"/></clipPath><clipPath id="5e429b0535"><path d="M 216.863281 245.734375 L 128.136719 229.457031 C 125.648438 228.910156 123.957031 226.71875 123.957031 224.277344 C 123.957031 223.925781 123.992188 223.574219 124.0625 223.21875 L 126.953125 207.703125 C 128.859375 197.46875 133.519531 187.941406 140.453125 180.183594 L 144.261719 175.90625 L 136.5 175.90625 L 148.707031 171.011719 L 165.945312 173.539062 C 192.179688 177.425781 212.683594 198.230469 216.230469 224.5625 L 218.453125 241.261719 L 216.863281 245.734375 " clip-rule="nonzero"/></clipPath><clipPath id="e5b9384042"><path d="M 104.636719 164 L 149 164 L 149 176 L 104.636719 176 Z M 104.636719 164 " clip-rule="nonzero"/></clipPath><clipPath id="77c2c7f322"><path d="M 240 21.183594 L 284 21.183594 L 284 65 L 240 65 Z M 240 21.183594 " clip-rule="nonzero"/></clipPath><clipPath id="4d200e6559"><path d="M 179 69 L 202.617188 69 L 202.617188 70.863281 L 179 70.863281 Z M 179 69 " clip-rule="nonzero"/></clipPath><clipPath id="aa08517c71"><path d="M 169 69 L 177 69 L 177 70.863281 L 169 70.863281 Z M 169 69 " clip-rule="nonzero"/></clipPath><clipPath id="0b4888b00f"><path d="M 101 69 L 148 69 L 148 70.863281 L 101 70.863281 Z M 101 69 " clip-rule="nonzero"/></clipPath><clipPath id="d67778132f"><path d="M 76.617188 57 L 178 57 L 178 59 L 76.617188 59 Z M 76.617188 57 " clip-rule="nonzero"/></clipPath><clipPath id="2045acaf2e"><path d="M 158 34.113281 L 181 34.113281 L 181 36 L 158 36 Z M 158 34.113281 " clip-rule="nonzero"/></clipPath><clipPath id="0e885fa6b7"><path d="M 141 34.113281 L 151 34.113281 L 151 36 L 141 36 Z M 141 34.113281 " clip-rule="nonzero"/></clipPath><clipPath id="185a2b6051"><path d="M 79 34.113281 L 132 34.113281 L 132 36 L 79 36 Z M 79 34.113281 " clip-rule="nonzero"/></clipPath><clipPath id="7d479efcdc"><path d="M 86 224 L 105 224 L 105 226.019531 L 86 226.019531 Z M 86 224 " clip-rule="nonzero"/></clipPath><clipPath id="9486550355"><path d="M 77 224 L 83 224 L 83 226.019531 L 77 226.019531 Z M 77 224 " clip-rule="nonzero"/></clipPath><clipPath id="55a7be4b79"><path d="M 20 224 L 60 224 L 60 226.019531 L 20 226.019531 Z M 20 224 " clip-rule="nonzero"/></clipPath><clipPath id="c32f8a5cb1"><path d="M 68 196.019531 L 87 196.019531 L 87 198 L 68 198 Z M 68 196.019531 " clip-rule="nonzero"/></clipPath><clipPath id="f26d327336"><path d="M 54 196.019531 L 62 196.019531 L 62 198 L 54 198 Z M 54 196.019531 " clip-rule="nonzero"/></clipPath><clipPath id="dbea4585ea"><path d="M 2 196.019531 L 46 196.019531 L 46 198 L 2 198 Z M 2 196.019531 " clip-rule="nonzero"/></clipPath><clipPath id="a50ae0a9e0"><path d="M 593 155 L 593.65625 155 L 593.65625 202 L 593 202 Z M 593 155 " clip-rule="nonzero"/></clipPath></defs><g clip-path="url(#bc1ebb62af)"><path fill="#000000" d="M 615.046875 273.808594 C 610.257812 273.808594 606.359375 269.910156 606.359375 265.113281 L 606.359375 147.566406 C 606.359375 142.773438 610.257812 138.875 615.046875 138.875 L 796.4375 138.875 C 801.226562 138.875 805.121094 142.773438 805.121094 147.566406 L 805.121094 219.4375 C 805.121094 224.992188 802.09375 233.253906 798.511719 237.480469 L 774.195312 266.179688 C 770.691406 270.3125 763.15625 273.808594 757.742188 273.808594 Z M 777.910156 269.332031 L 802.226562 240.632812 C 806.578125 235.496094 809.992188 226.1875 809.992188 219.4375 L 809.992188 147.566406 C 809.992188 140.085938 803.910156 134 796.4375 134 L 615.046875 134 C 607.574219 134 601.492188 140.085938 601.492188 147.566406 L 601.492188 265.117188 C 601.492188 272.59375 607.574219 278.679688 615.046875 278.679688 L 757.746094 278.679688 C 764.609375 278.679688 773.46875 274.574219 777.910156 269.332031 Z M 689.769531 240.976562 C 687.996094 237.351562 687.039062 232.730469 687.039062 229.242188 C 687.039062 224.117188 688.429688 221.226562 692.292969 215.910156 L 725.519531 216.03125 L 725.519531 230.160156 C 725.519531 236.125 720.675781 240.976562 714.71875 240.976562 Z M 661.992188 240.976562 C 663.507812 237.140625 664.316406 232.8125 664.316406 229.246094 C 664.316406 222.703125 662.355469 218.921875 657.960938 212.941406 C 653.824219 207.269531 652.5 203.96875 652.5 199.339844 C 652.5 194.101562 654.578125 189.175781 658.289062 185.542969 C 658.53125 185.332031 663.832031 180.152344 664.316406 172.519531 C 664.617188 167.765625 663.667969 163.859375 662.167969 160.824219 L 684.351562 160.824219 C 684.054688 161.640625 683.785156 162.546875 683.550781 163.570312 C 683.492188 163.824219 683.464844 164.082031 683.464844 164.335938 C 683.464844 165.554688 684.109375 166.679688 685.097656 167.027344 C 686.289062 167.449219 687.53125 166.585938 687.867188 165.09375 C 688.292969 163.226562 688.832031 161.84375 689.4375 160.824219 L 714.71875 160.824219 C 720.675781 160.824219 725.519531 165.675781 725.519531 171.644531 L 725.519531 184.628906 C 717 184.605469 693.777344 184.53125 693.691406 184.539062 C 693.058594 183.746094 692.378906 182.984375 691.640625 182.261719 C 690.753906 181.398438 689.332031 181.414062 688.46875 182.304688 C 687.601562 183.191406 687.613281 184.621094 688.507812 185.476562 C 692.292969 189.171875 694.378906 194.097656 694.378906 199.335938 C 694.378906 203.964844 693.050781 207.265625 688.902344 212.9375 C 684.511719 218.933594 682.550781 222.710938 682.554688 229.242188 C 682.554688 233.070312 683.34375 237.277344 684.824219 240.976562 Z M 635.835938 240.976562 C 629.878906 240.976562 625.03125 236.125 625.03125 230.160156 L 625.03125 215.640625 C 634.21875 215.648438 654.074219 215.648438 654.320312 215.554688 C 654.328125 215.566406 654.335938 215.578125 654.34375 215.59375 C 658.390625 221.109375 659.828125 224.003906 659.828125 229.242188 C 659.828125 232.730469 658.875 237.351562 657.105469 240.976562 Z M 625.03125 211.160156 L 625.03125 188.742188 L 650.457031 188.835938 C 648.863281 192.066406 648.015625 195.636719 648.015625 199.339844 C 648.015625 203.9375 649.246094 207.527344 651.449219 211.253906 Z M 652.851562 184.355469 L 625.03125 184.246094 L 625.03125 171.644531 C 625.03125 165.675781 629.878906 160.824219 635.835938 160.824219 L 656.449219 160.824219 C 658.183594 163.21875 659.9375 167.019531 659.824219 172.4375 C 659.722656 178.09375 655.328125 182.167969 655.222656 182.269531 C 654.53125 182.945312 653.886719 183.660156 653.289062 184.40625 C 653.152344 184.375 653.003906 184.355469 652.851562 184.355469 Z M 725.519531 189.121094 L 725.519531 211.539062 L 695.324219 211.429688 C 697.601562 207.644531 698.867188 204.011719 698.867188 199.339844 C 698.867188 195.703125 698.058594 192.195312 696.519531 189.015625 Z M 730.390625 230.160156 L 730.390625 171.644531 C 730.390625 162.992188 723.359375 155.949219 714.71875 155.949219 L 635.835938 155.949219 C 627.191406 155.949219 620.160156 162.992188 620.160156 171.644531 L 620.160156 230.160156 C 620.160156 238.8125 627.191406 245.851562 635.835938 245.851562 L 714.71875 245.851562 C 723.359375 245.851562 730.390625 238.8125 730.390625 230.160156 " fill-opacity="1" fill-rule="nonzero"/></g><path fill="#373f51" d="M 342.890625 269.347656 L 360.707031 216.097656 L 368.753906 218.800781 L 350.933594 272.050781 L 342.890625 269.347656 " fill-opacity="1" fill-rule="nonzero"/><path fill="#373f51" d="M 327.890625 239.195312 L 330.589844 231.117188 L 383.75 248.96875 L 381.050781 257.027344 L 327.890625 239.195312 " fill-opacity="1" fill-rule="nonzero"/><g clip-path="url(#873c3bd3dd)"><path fill="#373f51" d="M 355.804688 220.496094 C 342.34375 220.496094 331.421875 231.4375 331.421875 244.921875 C 331.421875 258.421875 342.34375 269.347656 355.804688 269.347656 C 369.28125 269.347656 380.203125 258.421875 380.203125 244.921875 C 380.203125 231.4375 369.28125 220.496094 355.804688 220.496094 M 355.804688 278.710938 C 337.085938 278.695312 321.929688 263.476562 321.945312 244.726562 C 321.964844 225.957031 337.171875 210.777344 355.890625 210.792969 C 374.609375 210.828125 389.75 226.027344 389.75 244.761719 C 389.730469 263.511719 374.539062 278.710938 355.804688 278.710938 " fill-opacity="1" fill-rule="nonzero"/></g><g clip-path="url(#3e1cc5289b)"><path fill="#373f51" d="M 355.804688 270.050781 C 341.847656 270.070312 330.503906 258.742188 330.484375 244.761719 C 330.46875 230.765625 341.757812 219.417969 355.734375 219.382812 C 369.6875 219.367188 381.035156 230.695312 381.050781 244.675781 L 381.050781 244.761719 C 381.085938 258.722656 369.792969 270.070312 355.855469 270.089844 L 355.804688 270.089844 L 355.804688 270.050781 M 355.804688 211.820312 C 337.648438 211.820312 322.933594 226.558594 322.933594 244.761719 C 322.933594 262.949219 337.648438 277.707031 355.804688 277.707031 C 373.976562 277.707031 388.707031 262.949219 388.707031 244.761719 C 388.707031 226.558594 373.976562 211.820312 355.804688 211.820312 " fill-opacity="1" fill-rule="nonzero"/></g><path fill="#373f51" d="M 355.804688 234.371094 C 361.148438 234.371094 365.488281 238.71875 365.488281 244.074219 C 365.488281 249.429688 361.148438 253.757812 355.804688 253.757812 C 350.457031 253.757812 346.136719 249.429688 346.136719 244.074219 C 346.136719 238.71875 350.457031 234.371094 355.804688 234.371094 " fill-opacity="1" fill-rule="nonzero"/><path fill="#196893" d="M 346.980469 225.304688 C 346.980469 225.304688 360.074219 244.921875 360.074219 245.859375 C 360.074219 246.792969 359.03125 250.699219 355.328125 248.136719 C 351.621094 245.574219 340.773438 228.308594 340.773438 228.308594 C 341.988281 226.082031 344.496094 224.878906 346.980469 225.304688 " fill-opacity="1" fill-rule="nonzero"/><path fill="#373f51" d="M 157.582031 222.828125 L 164.710938 218.199219 L 195.199219 265.316406 L 188.070312 269.945312 L 157.582031 222.828125 " fill-opacity="1" fill-rule="nonzero"/><path fill="#373f51" d="M 150.5625 255.773438 L 197.597656 225.234375 L 202.21875 232.375 L 155.183594 262.914062 L 150.5625 255.773438 " fill-opacity="1" fill-rule="nonzero"/><g clip-path="url(#050dd7be39)"><path fill="#373f51" d="M 176.425781 220.496094 C 162.945312 220.496094 152.027344 231.4375 152.027344 244.921875 C 152.027344 258.421875 162.945312 269.347656 176.425781 269.347656 C 189.886719 269.347656 200.808594 258.421875 200.808594 244.921875 C 200.808594 231.4375 189.886719 220.496094 176.425781 220.496094 M 176.425781 278.710938 C 157.707031 278.710938 142.515625 263.511719 142.515625 244.761719 C 142.515625 226.011719 157.707031 210.792969 176.425781 210.792969 C 195.144531 210.792969 210.335938 226.011719 210.335938 244.761719 C 210.300781 263.511719 195.144531 278.695312 176.425781 278.710938 " fill-opacity="1" fill-rule="nonzero"/></g><g clip-path="url(#ddd353aecd)"><path fill="#373f51" d="M 176.425781 270.050781 C 162.453125 270.070312 151.125 258.742188 151.089844 244.761719 C 151.074219 230.765625 162.382812 219.417969 176.335938 219.382812 C 190.3125 219.367188 201.636719 230.695312 201.671875 244.675781 L 201.671875 244.761719 C 201.671875 258.722656 190.363281 270.070312 176.425781 270.089844 L 176.425781 270.050781 M 176.425781 211.820312 C 158.253906 211.800781 143.523438 226.523438 143.503906 244.726562 C 143.46875 262.914062 158.183594 277.6875 176.335938 277.707031 C 194.511719 277.722656 209.242188 263 209.261719 244.796875 L 209.261719 244.761719 C 209.261719 226.578125 194.5625 211.835938 176.425781 211.820312 " fill-opacity="1" fill-rule="nonzero"/></g><path fill="#373f51" d="M 176.425781 228.46875 C 185.019531 228.46875 191.988281 235.449219 191.988281 244.074219 C 191.988281 252.679688 185.019531 259.660156 176.425781 259.660156 C 167.816406 259.660156 160.863281 252.679688 160.863281 244.074219 C 160.863281 235.449219 167.816406 228.46875 176.425781 228.46875 " fill-opacity="1" fill-rule="nonzero"/><path fill="#f1f2f2" d="M 346.136719 190.398438 L 378.652344 211.570312 C 381.210938 213.039062 382.109375 216.289062 380.644531 218.855469 C 380.363281 219.367188 379.992188 219.824219 379.550781 220.214844 L 374.136719 225.304688 C 368.789062 229.953125 361.378906 231.402344 354.675781 229.085938 C 350.8125 227.742188 346.539062 228.433594 343.292969 230.925781 C 338.460938 234.546875 332.125 235.554688 326.429688 233.558594 L 320.078125 231.117188 L 346.136719 190.398438 " fill-opacity="1" fill-rule="nonzero"/><path fill="#373f51" d="M 172.527344 170.039062 L 174.148438 161.574219 C 175.457031 155.054688 181.4375 150.546875 188.054688 151.058594 L 231.578125 154.683594 C 236.710938 155.105469 241.125 158.5 242.851562 163.359375 L 244.191406 178.097656 L 172.527344 170.039062 " fill-opacity="1" fill-rule="nonzero"/><path fill="#373f51" d="M 290.613281 127.199219 C 290.613281 127.199219 274.117188 129.234375 273.816406 129.691406 C 272.722656 132.007812 273.355469 134.765625 275.367188 136.371094 C 280.875 136.25 286.34375 135.402344 291.636719 133.84375 C 292.339844 131.582031 291.972656 129.125 290.613281 127.199219 " fill-opacity="1" fill-rule="nonzero"/><path fill="#f1f2f2" d="M 291.335938 123.738281 L 305.519531 119.988281 C 308.273438 119.210938 311.132812 120.765625 311.960938 123.488281 L 318.382812 142.804688 L 303.140625 151.996094 L 300.722656 140.121094 C 300.191406 137.292969 297.457031 135.4375 294.636719 135.964844 L 294.351562 136.035156 C 291.566406 136.742188 288.742188 135.046875 288.035156 132.253906 L 287.964844 131.972656 L 287.558594 129.691406 C 287.117188 127.023438 288.742188 124.460938 291.335938 123.738281 " fill-opacity="1" fill-rule="nonzero"/><path fill="#ffe7a2" d="M 326.339844 105.585938 C 332.867188 115.164062 332.867188 127.785156 326.339844 137.378906 C 319.28125 127.960938 319.28125 115.007812 326.339844 105.585938 " fill-opacity="1" fill-rule="nonzero"/><path fill="#196893" d="M 313.335938 119.425781 C 313.335938 119.425781 317.394531 139.128906 326.339844 137.222656 C 324.75 128.878906 322.28125 113.308594 326.339844 105.425781 C 322.316406 106.3125 316.019531 109.050781 313.335938 119.425781 " fill-opacity="1" fill-rule="nonzero"/><path fill="#f1f2f2" d="M 311.5 121.828125 C 311.113281 129.621094 316.757812 136.410156 324.46875 137.46875 C 321.222656 127.304688 321.097656 116.417969 324.152344 106.1875 C 316.828125 107.867188 311.625 114.316406 311.5 121.828125 " fill-opacity="1" fill-rule="nonzero"/><g clip-path="url(#5c35f92a59)"><path fill="#f1f2f2" d="M 347.8125 182.90625 L 332.285156 156.078125 L 318.328125 142.753906 C 315.648438 142.804688 312.984375 143.210938 310.40625 143.9375 C 306.332031 145.085938 303.246094 152.085938 303.246094 152.085938 L 311.820312 210.441406 L 302.433594 229.050781 C 300.773438 232.339844 297.421875 234.40625 293.734375 234.421875 L 256.101562 234.421875 C 251.816406 234.335938 248.09375 231.453125 246.910156 227.335938 L 245.570312 222.847656 C 244.175781 218.039062 243.59375 213.039062 243.859375 208.039062 L 245.128906 183.277344 C 245.570312 176.5625 240.488281 170.746094 233.785156 170.289062 L 166.863281 164.542969 C 165.75 164.457031 164.621094 164.457031 163.492188 164.542969 L 104.636719 164.542969 L 104.636719 165.234375 C 104.636719 171.136719 109.398438 175.90625 115.292969 175.90625 L 144.261719 175.90625 L 140.453125 180.183594 C 133.519531 187.941406 128.859375 197.46875 126.953125 207.703125 L 124.0625 223.21875 C 123.496094 226.0625 125.296875 228.839844 128.136719 229.457031 L 218.453125 246.140625 L 306.984375 245.664062 C 310.109375 245.628906 313.054688 244.125 314.871094 241.582031 L 347.160156 196.796875 C 350.140625 192.714844 350.40625 187.234375 347.8125 182.90625 " fill-opacity="1" fill-rule="nonzero"/></g><g clip-path="url(#39aa8c7767)"><g clip-path="url(#5e429b0535)"><path fill="#c8c8c8" d="M 123.957031 245.734375 L 218.453125 245.734375 L 218.453125 171.011719 L 123.957031 171.011719 Z M 123.957031 245.734375 " fill-opacity="1" fill-rule="nonzero"/></g></g><path fill="#196893" d="M 332.285156 156.078125 L 318.328125 142.753906 C 316.828125 142.789062 315.347656 142.910156 313.867188 143.160156 C 313.902344 143.761719 313.902344 144.359375 313.867188 144.960938 L 327.804688 158.269531 L 343.453125 185.1875 C 345.976562 189.5 345.730469 194.890625 342.800781 198.953125 L 314.960938 236.949219 C 313.125 239.476562 310.195312 240.996094 307.074219 241.015625 L 218.453125 241.261719 L 128.332031 224.5625 C 126.53125 224.261719 124.996094 223.078125 124.273438 221.378906 L 123.9375 223.21875 C 123.375 226.0625 125.191406 228.839844 128.011719 229.457031 L 218.453125 246.140625 L 306.984375 245.664062 C 310.109375 245.628906 313.054688 244.125 314.871094 241.582031 L 347.160156 196.796875 C 350.070312 192.75 350.335938 187.359375 347.8125 183.066406 L 332.285156 156.078125 " fill-opacity="1" fill-rule="nonzero"/><g clip-path="url(#e5b9384042)"><path fill="#373f51" d="M 144.878906 175.289062 L 148.707031 171.222656 L 115.292969 171.222656 C 110.96875 171.171875 107.105469 168.539062 105.484375 164.542969 L 104.636719 164.542969 L 104.636719 165.234375 C 104.636719 171.136719 109.398438 175.90625 115.292969 175.90625 L 144.351562 175.90625 L 144.878906 175.289062 " fill-opacity="1" fill-rule="nonzero"/></g><path fill="#c8c8c8" d="M 369.917969 215.601562 C 365.683594 215.601562 350.15625 212.296875 346.066406 212.066406 C 341.089844 211.785156 350.121094 206.359375 350.121094 206.359375 C 350.121094 206.359375 369.140625 213.074219 370.886719 215.125 C 371.1875 215.460938 370.800781 215.601562 369.917969 215.601562 " fill-opacity="1" fill-rule="nonzero"/><path fill="#f7bda6" d="M 202.644531 137.503906 L 234.71875 146.746094 L 249.433594 121.828125 L 251.179688 116.984375 C 254.320312 108.414062 255.644531 99.292969 255.042969 90.191406 L 254.460938 82.046875 L 260 71.015625 L 249.027344 62.871094 L 247 64.125 L 240.398438 67.871094 L 236.625 70.027344 C 233.167969 71.988281 230.183594 74.695312 227.890625 77.925781 C 216.386719 94.117188 208.253906 112.445312 203.984375 131.847656 L 202.644531 137.503906 " fill-opacity="1" fill-rule="nonzero"/><path fill="#f9ecef" d="M 258.820312 73.367188 L 259.207031 72.574219 L 258.820312 73.367188 M 246.308594 64.515625 C 246.308594 64.515625 246.308594 64.496094 246.292969 64.496094 L 246.910156 64.125 L 247.070312 64.054688 C 247.085938 64.054688 247.105469 64.054688 247.121094 64.054688 L 247 64.125 L 246.308594 64.515625 " fill-opacity="1" fill-rule="nonzero"/><path fill="#f2b19f" d="M 258.820312 73.367188 C 253.507812 72.503906 248.902344 69.234375 246.308594 64.515625 L 247 64.125 L 247.121094 64.054688 C 247.261719 64.035156 247.402344 64.035156 247.546875 64.035156 C 250.386719 67.90625 254.761719 70.558594 259.789062 71.070312 L 259.914062 71.175781 L 259.207031 72.574219 L 258.820312 73.367188 " fill-opacity="1" fill-rule="nonzero"/><path fill="#f7bda6" d="M 261.625 34.804688 L 262.878906 34.804688 C 272.546875 34.804688 280.363281 42.652344 280.363281 52.320312 L 280.363281 53.664062 C 280.363281 63.328125 272.546875 71.175781 262.878906 71.175781 L 261.625 71.175781 C 251.972656 71.175781 244.140625 63.328125 244.140625 53.664062 L 244.140625 52.320312 C 244.140625 42.652344 251.972656 34.804688 261.625 34.804688 " fill-opacity="1" fill-rule="nonzero"/><path fill="#ffcc49" d="M 202.644531 137.503906 L 234.71875 146.746094 L 249.433594 121.828125 L 251.179688 116.984375 C 254.320312 108.414062 255.644531 99.292969 255.042969 90.191406 L 254.460938 82.046875 L 240.398438 67.710938 L 236.625 69.867188 C 233.167969 71.832031 219.035156 76.832031 204.109375 131.691406 L 202.644531 137.503906 " fill-opacity="1" fill-rule="nonzero"/><path fill="#373f51" d="M 234.71875 66.492188 L 246.910156 76.019531 C 250.402344 78.671875 252.75 82.539062 253.492188 86.851562 L 254.074219 90.441406 C 254.691406 94.292969 254.003906 98.269531 252.078125 101.679688 L 244.226562 115.359375 C 239.957031 122.851562 232.441406 127.960938 223.902344 129.164062 L 203.949219 131.917969 L 202.203125 121.828125 L 217.921875 120.167969 C 228.085938 119.070312 237.101562 113.097656 242.074219 104.15625 L 242.851562 103.128906 C 246.453125 96.679688 247.6875 89.167969 246.34375 81.886719 L 229.074219 69.675781 L 234.71875 66.492188 " fill-opacity="1" fill-rule="nonzero"/><path fill="#373f51" d="M 240.277344 67.871094 L 234.71875 63.3125 C 231.15625 60.464844 226.320312 59.832031 222.15625 61.6875 L 210.777344 66.8125 C 209.207031 67.519531 207.53125 67.871094 205.820312 67.871094 C 200.808594 67.90625 196.328125 70.980469 194.511719 75.648438 L 183.855469 103.128906 C 182.847656 105.867188 182.847656 108.875 183.855469 111.613281 L 187.152344 120.765625 C 187.910156 122.851562 189.21875 124.707031 190.929688 126.105469 L 202.730469 137.539062 L 211.835938 110.957031 C 216.527344 97.582031 223.972656 85.316406 233.695312 74.992188 L 240.277344 67.871094 " fill-opacity="1" fill-rule="nonzero"/><path fill="#ff6c49" d="M 202.644531 137.503906 L 202.644531 148.019531 C 202.484375 156.042969 208.394531 162.898438 216.335938 163.890625 L 256.066406 169.015625 C 257.285156 169.191406 258.238281 170.21875 258.289062 171.472656 L 259.878906 222.53125 L 273.464844 222.53125 L 275.773438 163.820312 C 275.984375 158.90625 272.703125 154.523438 267.921875 153.390625 L 202.644531 137.503906 " fill-opacity="1" fill-rule="nonzero"/><path fill="#373f51" d="M 260.40625 222.53125 L 270.003906 222.53125 C 275.527344 228.46875 286.75 227.054688 291.140625 234.371094 L 260.40625 234.371094 L 260.40625 222.53125 " fill-opacity="1" fill-rule="nonzero"/><path fill="#f7bda6" d="M 257.601562 127.765625 L 251.746094 100.035156 L 237.402344 104.121094 L 245.90625 134.660156 C 246.785156 137.855469 249.925781 139.890625 253.207031 139.378906 L 283.007812 134.816406 C 284.5625 134.535156 285.796875 133.402344 286.21875 131.882812 C 286.660156 129.675781 285.25 127.535156 283.0625 127.078125 L 282.144531 127.007812 L 257.601562 127.765625 " fill-opacity="1" fill-rule="nonzero"/><path fill="#196893" d="M 263.175781 73.015625 L 261.378906 73.015625 C 260.917969 73.03125 260.496094 72.765625 260.285156 72.359375 L 252.855469 58.628906 L 259.4375 54.5625 L 264.058594 71.140625 C 264.429688 71.707031 264.253906 72.449219 263.6875 72.820312 L 263.175781 73.015625 " fill-opacity="1" fill-rule="nonzero"/><g clip-path="url(#77c2c7f322)"><path fill="#196893" d="M 260.25 21.691406 C 249.222656 21.691406 240.277344 30.652344 240.277344 41.699219 L 240.277344 49.84375 C 240.292969 53.664062 241.601562 57.390625 243.980469 60.378906 L 246.875 64.054688 C 252.714844 64.054688 257.847656 60.148438 259.4375 54.527344 L 260.160156 51.878906 C 261.429688 47.476562 265.4375 44.472656 270.003906 44.507812 L 283.007812 44.507812 C 283.007812 31.90625 272.808594 21.691406 260.25 21.691406 " fill-opacity="1" fill-rule="nonzero"/></g><path fill="#1b597c" d="M 270.253906 32.648438 C 267.957031 32.648438 264.746094 32.488281 261.625 32.332031 C 258.5 32.171875 255.484375 32.011719 253.578125 32.011719 C 253.101562 32.011719 252.714844 32.011719 252.398438 32.046875 C 252.292969 32.046875 252.1875 32.046875 252.097656 32.046875 C 248.585938 32.046875 255.042969 26.871094 255.042969 26.871094 C 261.253906 28.125 267.375 29.855469 273.339844 32.046875 C 273.832031 32.507812 272.492188 32.648438 270.253906 32.648438 " fill-opacity="1" fill-rule="nonzero"/><path fill="#1b597c" d="M 249.046875 40.902344 C 247.632812 40.902344 250.121094 36.394531 250.121094 36.394531 C 254.726562 35.511719 259.382812 34.964844 264.058594 34.769531 C 265.613281 35.335938 252.519531 39.292969 249.75 40.671875 C 249.449219 40.832031 249.222656 40.902344 249.046875 40.902344 " fill-opacity="1" fill-rule="nonzero"/><path fill="#ffe7a2" d="M 281.332031 34.804688 L 281.332031 37.703125 L 277.273438 37.703125 L 277.273438 39.984375 L 267.765625 44.753906 L 278.828125 46.945312 C 283.097656 46.929688 286.554688 43.449219 286.589844 39.171875 C 286.589844 36.765625 284.632812 34.804688 282.230469 34.804688 L 281.332031 34.804688 " fill-opacity="1" fill-rule="nonzero"/><path fill="#ff994d" d="M 252.855469 101.839844 L 249.75 87.789062 C 248.921875 82.839844 244.246094 79.519531 239.304688 80.347656 L 238.777344 80.453125 C 233.890625 81.640625 230.890625 86.570312 232.074219 91.464844 L 232.160156 91.785156 L 234.59375 106.1875 L 252.855469 101.839844 " fill-opacity="1" fill-rule="nonzero"/><path fill="#f7bda6" d="M 286.308594 131.777344 C 286.308594 135.523438 283.273438 138.5625 279.53125 138.5625 C 275.792969 138.5625 272.757812 135.523438 272.757812 131.777344 C 272.757812 128.03125 275.792969 125.007812 279.53125 125.007812 C 283.273438 125.007812 286.308594 128.03125 286.308594 131.777344 " fill-opacity="1" fill-rule="nonzero"/><g clip-path="url(#4d200e6559)"><path fill="#090503" d="M 201.703125 70.863281 L 180.75 70.863281 C 180.320312 70.863281 179.960938 70.503906 179.960938 70.070312 C 179.960938 69.636719 180.320312 69.277344 180.75 69.277344 L 201.703125 69.277344 C 202.132812 69.277344 202.488281 69.636719 202.488281 70.070312 C 202.523438 70.503906 202.167969 70.863281 201.703125 70.863281 Z M 201.703125 70.863281 " fill-opacity="1" fill-rule="nonzero"/></g><g clip-path="url(#aa08517c71)"><path fill="#090503" d="M 175.269531 70.863281 L 170.183594 70.863281 C 169.753906 70.863281 169.394531 70.503906 169.394531 70.070312 C 169.394531 69.636719 169.753906 69.277344 170.183594 69.277344 L 175.269531 69.277344 C 175.699219 69.277344 176.058594 69.636719 176.058594 70.070312 C 176.058594 70.503906 175.699219 70.863281 175.269531 70.863281 Z M 175.269531 70.863281 " fill-opacity="1" fill-rule="nonzero"/></g><g clip-path="url(#0b4888b00f)"><path fill="#090503" d="M 146.902344 70.863281 L 102.347656 70.863281 C 101.917969 70.863281 101.5625 70.503906 101.5625 70.070312 C 101.5625 69.636719 101.917969 69.277344 102.347656 69.277344 L 146.902344 69.277344 C 147.332031 69.277344 147.691406 69.636719 147.691406 70.070312 C 147.726562 70.503906 147.371094 70.863281 146.902344 70.863281 Z M 146.902344 70.863281 " fill-opacity="1" fill-rule="nonzero"/></g><g clip-path="url(#d67778132f)"><path fill="#090503" d="M 176.84375 58.648438 L 77.492188 58.648438 C 77.0625 58.648438 76.707031 58.289062 76.707031 57.855469 C 76.707031 57.425781 77.0625 57.0625 77.492188 57.0625 L 176.84375 57.0625 C 177.273438 57.0625 177.632812 57.425781 177.632812 57.855469 C 177.667969 58.289062 177.3125 58.648438 176.84375 58.648438 Z M 176.84375 58.648438 " fill-opacity="1" fill-rule="nonzero"/></g><path fill="#090503" d="M 154.03125 46.542969 L 117.640625 46.542969 C 117.210938 46.542969 116.855469 46.183594 116.855469 45.75 C 116.855469 45.320312 117.210938 44.957031 117.640625 44.957031 L 154.03125 44.957031 C 154.460938 44.957031 154.820312 45.320312 154.820312 45.75 C 154.820312 46.183594 154.460938 46.542969 154.03125 46.542969 Z M 154.03125 46.542969 " fill-opacity="1" fill-rule="nonzero"/><g clip-path="url(#2045acaf2e)"><path fill="#090503" d="M 179.28125 35.734375 L 159.4375 35.734375 C 159.007812 35.734375 158.652344 35.375 158.652344 34.941406 C 158.652344 34.507812 159.007812 34.148438 159.4375 34.148438 L 179.246094 34.148438 C 179.675781 34.148438 180.03125 34.507812 180.03125 34.941406 C 180.03125 35.375 179.710938 35.734375 179.28125 35.734375 Z M 179.28125 35.734375 " fill-opacity="1" fill-rule="nonzero"/></g><g clip-path="url(#0e885fa6b7)"><path fill="#090503" d="M 149.195312 35.734375 L 142.605469 35.734375 C 142.175781 35.734375 141.816406 35.375 141.816406 34.941406 C 141.816406 34.507812 142.175781 34.148438 142.605469 34.148438 L 149.230469 34.148438 C 149.660156 34.148438 150.019531 34.507812 150.019531 34.941406 C 150.019531 35.375 149.660156 35.734375 149.195312 35.734375 Z M 149.195312 35.734375 " fill-opacity="1" fill-rule="nonzero"/></g><g clip-path="url(#185a2b6051)"><path fill="#090503" d="M 130.859375 35.734375 L 79.929688 35.734375 C 79.5 35.734375 79.140625 35.375 79.140625 34.941406 C 79.140625 34.507812 79.464844 34.113281 79.929688 34.113281 L 130.859375 34.113281 C 131.289062 34.113281 131.644531 34.472656 131.644531 34.90625 C 131.644531 35.339844 131.289062 35.734375 130.859375 35.734375 Z M 130.859375 35.734375 " fill-opacity="1" fill-rule="nonzero"/></g><g clip-path="url(#7d479efcdc)"><path fill="#090503" d="M 104.246094 226.019531 L 86.785156 226.019531 C 86.425781 226.019531 86.128906 225.726562 86.128906 225.371094 C 86.128906 225.019531 86.425781 224.726562 86.785156 224.726562 L 104.246094 224.726562 C 104.605469 224.726562 104.90625 225.019531 104.90625 225.371094 C 104.933594 225.726562 104.636719 226.019531 104.246094 226.019531 Z M 104.246094 226.019531 " fill-opacity="1" fill-rule="nonzero"/></g><g clip-path="url(#9486550355)"><path fill="#090503" d="M 82.21875 226.019531 L 77.976562 226.019531 C 77.621094 226.019531 77.320312 225.726562 77.320312 225.371094 C 77.320312 225.019531 77.621094 224.726562 77.976562 224.726562 L 82.21875 224.726562 C 82.574219 224.726562 82.875 225.019531 82.875 225.371094 C 82.875 225.726562 82.574219 226.019531 82.21875 226.019531 Z M 82.21875 226.019531 " fill-opacity="1" fill-rule="nonzero"/></g><g clip-path="url(#55a7be4b79)"><path fill="#090503" d="M 58.574219 226.019531 L 21.441406 226.019531 C 21.082031 226.019531 20.78125 225.726562 20.78125 225.371094 C 20.78125 225.019531 21.082031 224.726562 21.441406 224.726562 L 58.574219 224.726562 C 58.933594 224.726562 59.230469 225.019531 59.230469 225.371094 C 59.261719 225.726562 58.960938 226.019531 58.574219 226.019531 Z M 58.574219 226.019531 " fill-opacity="1" fill-rule="nonzero"/></g><path fill="#090503" d="M 83.53125 216.050781 L 0.722656 216.050781 C 0.363281 216.050781 0.0664062 215.753906 0.0664062 215.402344 C 0.0664062 215.050781 0.363281 214.753906 0.722656 214.753906 L 83.53125 214.753906 C 83.890625 214.753906 84.1875 215.050781 84.1875 215.402344 C 84.21875 215.753906 83.917969 216.050781 83.53125 216.050781 Z M 83.53125 216.050781 " fill-opacity="1" fill-rule="nonzero"/><path fill="#090503" d="M 64.515625 206.167969 L 34.1875 206.167969 C 33.828125 206.167969 33.53125 205.871094 33.53125 205.519531 C 33.53125 205.167969 33.828125 204.871094 34.1875 204.871094 L 64.515625 204.871094 C 64.875 204.871094 65.171875 205.167969 65.171875 205.519531 C 65.171875 205.871094 64.875 206.167969 64.515625 206.167969 Z M 64.515625 206.167969 " fill-opacity="1" fill-rule="nonzero"/><g clip-path="url(#c32f8a5cb1)"><path fill="#090503" d="M 85.5625 197.34375 L 69.023438 197.34375 C 68.664062 197.34375 68.367188 197.050781 68.367188 196.695312 C 68.367188 196.34375 68.664062 196.050781 69.023438 196.050781 L 85.53125 196.050781 C 85.890625 196.050781 86.1875 196.34375 86.1875 196.695312 C 86.1875 197.050781 85.917969 197.34375 85.5625 197.34375 Z M 85.5625 197.34375 " fill-opacity="1" fill-rule="nonzero"/></g><g clip-path="url(#f26d327336)"><path fill="#090503" d="M 60.484375 197.34375 L 54.992188 197.34375 C 54.632812 197.34375 54.335938 197.050781 54.335938 196.695312 C 54.335938 196.34375 54.632812 196.050781 54.992188 196.050781 L 60.515625 196.050781 C 60.875 196.050781 61.171875 196.34375 61.171875 196.695312 C 61.171875 197.050781 60.875 197.34375 60.484375 197.34375 Z M 60.484375 197.34375 " fill-opacity="1" fill-rule="nonzero"/></g><g clip-path="url(#dbea4585ea)"><path fill="#090503" d="M 45.203125 197.34375 L 2.753906 197.34375 C 2.394531 197.34375 2.09375 197.050781 2.09375 196.695312 C 2.09375 196.34375 2.363281 196.019531 2.753906 196.019531 L 45.203125 196.019531 C 45.558594 196.019531 45.859375 196.3125 45.859375 196.667969 C 45.859375 197.019531 45.558594 197.34375 45.203125 197.34375 Z M 45.203125 197.34375 " fill-opacity="1" fill-rule="nonzero"/></g><path fill="#010306" d="M 589.03125 165.46875 C 565.59375 165.46875 564.582031 164.75 564.582031 167.359375 C 564.582031 169.941406 565.324219 169.222656 589.03125 169.222656 C 591.535156 169.222656 591.507812 165.46875 589.03125 165.46875 " fill-opacity="1" fill-rule="nonzero"/><path fill="#010306" d="M 463.925781 162.40625 C 487.339844 162.40625 488.378906 163.125 488.378906 160.539062 C 488.378906 157.929688 487.632812 158.648438 463.925781 158.648438 C 461.425781 158.648438 461.425781 162.40625 463.925781 162.40625 " fill-opacity="1" fill-rule="nonzero"/><path fill="#010306" d="M 556.570312 178.734375 C 556.570312 175.832031 560.882812 176.84375 443.199219 176.84375 C 440.726562 176.84375 440.726562 180.625 443.199219 180.625 C 561.519531 180.625 556.570312 181.558594 556.570312 178.734375 " fill-opacity="1" fill-rule="nonzero"/><path fill="#010306" d="M 581.023438 199.621094 C 462.730469 199.621094 467.652344 198.6875 467.652344 201.511719 C 467.652344 204.414062 463.367188 203.402344 581.023438 203.402344 C 583.523438 203.402344 583.523438 199.621094 581.023438 199.621094 " fill-opacity="1" fill-rule="nonzero"/><path fill="#010306" d="M 536.828125 157.847656 C 559.683594 157.847656 561.28125 158.59375 561.28125 155.957031 C 561.28125 153.375 560.535156 154.066406 536.828125 154.066406 C 534.328125 154.066406 534.328125 157.847656 536.828125 157.847656 " fill-opacity="1" fill-rule="nonzero"/><g clip-path="url(#a50ae0a9e0)"><path fill="#010306" d="M 716.347656 169.199219 C 707.140625 169.96875 631.3125 174.257812 636.445312 167.464844 C 676.753906 152.707031 690.351562 156.171875 716.640625 167.652344 C 717.382812 167.972656 717.25 169.117188 716.347656 169.199219 Z M 781.640625 184.328125 C 780.363281 174.207031 752.773438 170.101562 736.699219 170.101562 C 710.867188 170.101562 710.867188 152.015625 666.671875 156.757812 C 646.796875 158.886719 638.972656 167.199219 602.308594 175.058594 C 595.949219 176.417969 597.945312 178.015625 596.296875 181.609375 C 593.503906 187.738281 593.742188 192.132812 593.742188 194.292969 C 593.742188 197.859375 612.101562 199.566406 615.667969 199.886719 C 614.628906 189.441406 622.265625 182.332031 630.804688 182.332031 C 640.835938 182.332031 648.019531 191.945312 645.597656 201.324219 C 672.097656 201.882812 704.054688 201.109375 730.34375 199.753906 C 728.90625 191.09375 735.902344 182.332031 745.480469 182.332031 C 753.863281 182.332031 760.753906 189.203125 760.753906 197.648438 L 760.726562 197.703125 C 773.367188 196.582031 781.402344 195.332031 781.613281 194.210938 C 782.066406 191.308594 781.933594 186.433594 781.640625 184.328125 " fill-opacity="1" fill-rule="nonzero"/></g></svg>