<svg xmlns="http://www.w3.org/2000/svg" xmlns:xlink="http://www.w3.org/1999/xlink" width="1080" zoomAndPan="magnify" viewBox="0 0 810 675.000002" height="900" preserveAspectRatio="xMidYMid meet" version="1.0"><path fill="#5d6d7e" d="M 471.03125 441.726562 L 487.59375 458.296875 L 506.960938 477.558594 L 514.421875 485.074219 L 553.058594 446.410156 L 509.738281 403.023438 Z M 471.03125 441.726562 " fill-opacity="1" fill-rule="nonzero"/><path fill="#ff8e31" d="M 592.457031 446.15625 L 725.789062 579.480469 C 735.816406 589.480469 742.042969 603.367188 742 618.636719 C 742 633.933594 735.816406 647.804688 725.789062 657.84375 C 715.785156 667.835938 701.933594 674 686.636719 674 C 671.347656 674 657.511719 667.835938 647.480469 657.8125 L 514.15625 524.472656 Z M 592.457031 446.15625 " fill-opacity="1" fill-rule="nonzero"/><path fill="#fece59" d="M 574.054688 464.582031 L 584.890625 453.726562 L 718.234375 587.070312 C 726.652344 595.496094 731.285156 606.703125 731.277344 618.628906 C 731.277344 630.589844 726.632812 641.816406 718.234375 650.253906 C 716.703125 651.726562 714.738281 652.46875 712.804688 652.46875 C 710.824219 652.46875 708.875 651.726562 707.351562 650.234375 C 704.382812 647.222656 704.382812 642.40625 707.351562 639.417969 C 712.910156 633.878906 715.949219 626.457031 715.949219 618.609375 C 715.972656 610.792969 712.914062 603.425781 707.390625 597.914062 Z M 574.054688 464.582031 " fill-opacity="1" fill-rule="nonzero"/><path fill="#34495e" d="M 514.152344 524.472656 L 592.457031 446.148438 L 586.617188 440.292969 C 583.089844 436.757812 578.273438 434.605469 572.914062 434.605469 C 567.523438 434.605469 562.6875 436.746094 559.199219 440.269531 L 508.277344 491.214844 C 504.777344 494.6875 502.59375 499.519531 502.59375 504.917969 C 502.59375 510.234375 504.777344 515.128906 508.277344 518.578125 Z M 514.152344 524.472656 " fill-opacity="1" fill-rule="nonzero"/><path fill="#34495e" d="M 68 250.332031 C 68 112.101562 180.082031 0.00390625 318.339844 0.00390625 C 456.613281 0.00390625 568.6875 112.105469 568.6875 250.332031 C 568.6875 388.601562 456.597656 500.679688 318.339844 500.710938 C 180.082031 500.679688 68 388.597656 68 250.332031 Z M 68 250.332031 " fill-opacity="1" fill-rule="nonzero"/><path fill="#5d6d7e" d="M 318.339844 473.585938 C 441.601562 473.585938 541.578125 373.644531 541.578125 250.328125 C 541.578125 127.078125 441.605469 27.109375 318.339844 27.109375 C 195.058594 27.113281 95.09375 127.078125 95.09375 250.332031 C 95.09375 373.644531 195.058594 473.585938 318.339844 473.585938 Z M 318.339844 473.585938 " fill-opacity="1" fill-rule="nonzero"/><path fill="#cee2f2" d="M 318.339844 455.71875 C 431.746094 455.71875 523.707031 363.792969 523.707031 250.332031 C 523.707031 136.953125 431.742188 44.96875 318.339844 44.96875 C 204.941406 44.96875 112.960938 136.953125 112.960938 250.332031 C 112.960938 363.785156 204.914062 455.71875 318.339844 455.71875 Z M 318.339844 455.71875 " fill-opacity="1" fill-rule="nonzero"/><path fill="#ffffff" d="M 323.742188 78.6875 C 320.246094 73.496094 314.230469 70.246094 307.617188 70.625 C 279.269531 72.347656 252.476562 80.332031 227.992188 94.546875 C 219.375 99.585938 216.417969 110.699219 221.4375 119.359375 C 226.460938 127.910156 237.585938 130.957031 246.179688 125.867188 C 265.707031 114.601562 287.082031 108.199219 309.742188 106.820312 C 319.699219 106.300781 327.355469 97.714844 326.738281 87.765625 C 326.625 84.316406 325.46875 81.21875 323.742188 78.6875 Z M 323.742188 78.6875 " fill-opacity="1" fill-rule="nonzero"/><path fill="#ffffff" d="M 207.460938 138.226562 C 206.496094 136.78125 205.238281 135.441406 203.859375 134.296875 C 196.085938 127.9375 184.6875 129.175781 178.402344 136.945312 C 159.898438 159.65625 147.167969 186.90625 141.546875 215.910156 C 134.898438 250.355469 138.375 285.621094 151.582031 317.9375 C 155.429688 327.25 166.027344 331.625 175.265625 327.816406 C 184.535156 324.0625 188.949219 313.507812 185.152344 304.195312 C 174.621094 278.421875 171.890625 250.28125 177.238281 222.789062 C 181.613281 199.636719 191.78125 177.898438 206.539062 159.773438 C 211.671875 153.464844 211.808594 144.605469 207.460938 138.226562 Z M 207.460938 138.226562 " fill-opacity="1" fill-rule="nonzero"/></svg>