<svg xmlns="http://www.w3.org/2000/svg" xmlns:xlink="http://www.w3.org/1999/xlink" width="1080" zoomAndPan="magnify" viewBox="0 0 810 675.000002" height="900" preserveAspectRatio="xMidYMid meet" version="1.0"><defs><clipPath id="eebd7c147d"><path d="M 68 5.113281 L 674 5.113281 L 674 408 L 68 408 Z M 68 5.113281 " clip-rule="nonzero"/></clipPath><clipPath id="3ef9d49f79"><path d="M 335 354 L 730.765625 354 L 730.765625 668.628906 L 335 668.628906 Z M 335 354 " clip-rule="nonzero"/></clipPath></defs><g clip-path="url(#eebd7c147d)"><path fill="#96ddf8" d="M 646.011719 5.113281 L 95.929688 5.113281 C 80.648438 5.113281 68.238281 17.519531 68.238281 32.800781 L 68.238281 379.453125 C 68.238281 394.734375 80.648438 407.140625 95.929688 407.140625 L 335.242188 407.140625 L 335.242188 382.066406 C 335.242188 366.78125 347.652344 354.371094 362.941406 354.371094 L 673.707031 354.371094 L 673.707031 32.800781 C 673.707031 17.519531 661.296875 5.113281 646.011719 5.113281 " fill-opacity="1" fill-rule="nonzero"/></g><path fill="#ffffff" d="M 513.945312 49.261719 C 540.351562 49.261719 561.757812 70.664062 561.757812 97.0625 C 561.757812 123.464844 540.351562 144.871094 513.945312 144.871094 C 487.539062 144.871094 466.136719 123.464844 466.136719 97.0625 C 466.136719 70.664062 487.539062 49.261719 513.945312 49.261719 " fill-opacity="1" fill-rule="nonzero"/><path fill="#6bc7ef" d="M 581.613281 49.261719 C 608.019531 49.261719 629.425781 70.664062 629.425781 97.0625 C 629.425781 123.464844 608.019531 144.871094 581.613281 144.871094 C 555.207031 144.871094 533.800781 123.464844 533.800781 97.0625 C 533.800781 70.664062 555.207031 49.261719 581.613281 49.261719 " fill-opacity="1" fill-rule="nonzero"/><path fill="#f5f5f5" d="M 112.519531 83.222656 L 407.742188 83.222656 L 407.742188 111.042969 L 112.519531 111.042969 L 112.519531 83.222656 " fill-opacity="1" fill-rule="nonzero"/><path fill="#f5f5f5" d="M 112.519531 192.152344 L 296.320312 192.152344 L 296.320312 219.972656 L 112.519531 219.972656 L 112.519531 192.152344 " fill-opacity="1" fill-rule="nonzero"/><path fill="#3d5369" d="M 112.519531 305.523438 L 218.855469 305.523438 L 218.855469 333.347656 L 112.519531 333.347656 L 112.519531 305.523438 " fill-opacity="1" fill-rule="nonzero"/><path fill="#3d5369" d="M 249.292969 305.523438 L 355.621094 305.523438 L 355.621094 333.347656 L 249.292969 333.347656 L 249.292969 305.523438 " fill-opacity="1" fill-rule="nonzero"/><path fill="#3d5369" d="M 386.1875 305.523438 L 492.523438 305.523438 L 492.523438 333.347656 L 386.1875 333.347656 L 386.1875 305.523438 " fill-opacity="1" fill-rule="nonzero"/><path fill="#3d5369" d="M 523.089844 305.523438 L 629.425781 305.523438 L 629.425781 333.347656 L 523.089844 333.347656 L 523.089844 305.523438 " fill-opacity="1" fill-rule="nonzero"/><g clip-path="url(#3ef9d49f79)"><path fill="#fbce40" d="M 702.835938 354.371094 L 362.941406 354.371094 C 347.652344 354.371094 335.242188 366.78125 335.242188 382.066406 L 335.242188 640.941406 C 335.242188 656.222656 347.652344 668.628906 362.941406 668.628906 L 702.835938 668.628906 C 718.121094 668.628906 730.53125 656.222656 730.53125 640.941406 L 730.53125 382.066406 C 730.53125 366.78125 718.121094 354.371094 702.835938 354.371094 " fill-opacity="1" fill-rule="nonzero"/></g><path fill="#f2564e" d="M 532.886719 155.578125 C 450.589844 155.578125 383.707031 222.453125 383.707031 304.738281 L 383.707031 354.371094 L 441.839844 354.371094 L 441.839844 304.738281 C 441.839844 254.585938 482.726562 213.703125 532.886719 213.703125 C 583.050781 213.703125 623.933594 254.585938 623.933594 304.738281 L 623.933594 354.371094 L 682.0625 354.371094 L 682.0625 304.738281 C 682.0625 222.453125 615.183594 155.578125 532.886719 155.578125 " fill-opacity="1" fill-rule="nonzero"/><path fill="#3d5369" d="M 576.253906 484.464844 C 576.253906 460.5625 556.792969 441.101562 532.886719 441.101562 C 508.980469 441.101562 489.519531 460.5625 489.519531 484.464844 C 489.519531 500.660156 498.402344 514.765625 511.59375 522.210938 L 511.59375 560.613281 C 511.59375 572.367188 521.128906 581.90625 532.886719 581.90625 C 544.640625 581.90625 554.179688 572.367188 554.179688 560.613281 L 554.179688 522.210938 C 567.375 514.765625 576.253906 500.660156 576.253906 484.464844 " fill-opacity="1" fill-rule="nonzero"/></svg>