<svg xmlns="http://www.w3.org/2000/svg" viewBox="0 0 64 64"><defs><style>.cls-1{fill:#fff}.cls-2{fill:#fff}.cls-3{fill:#fff}</style></defs><g id="Female"><path class="cls-1" d="M16 21h32v30H16z"/><path class="cls-2" d="m37 45 16.17 5.15A10 10 0 0 1 60 58l1 6H3l1-6a10 10 0 0 1 6.84-7.88L27 45z"/><path class="cls-3" d="M32 48a5 5 0 0 1-5-5v-7h10v7a5 5 0 0 1-5 5z"/><path class="cls-2" d="M43 14v14a11 11 0 0 1-22 0V14z"/><path class="cls-1" d="m30.4 18.63 5.17-2.78a4 4 0 0 1 5.37 1.54L43 21h5v-3a16 16 0 0 0-32 0v3c5.48 0 9.29.38 14.4-2.37z"/><path class="cls-3" d="M18 31h3V21h-3a5 5 0 0 0 0 10zM43 31h3a5 5 0 0 0 0-10h-3z"/><path d="m63 61.61-.84-4.22A12 12 0 0 0 54 48.31L50 47V31.74a7 7 0 0 0 0-11.48V18a18 18 0 0 0-36 0v2.27a7 7 0 0 0 0 11.47V47l-4 1.27a12 12 0 0 0-8.13 9.08L1 61.61a2 2 0 1 0 4 .78l.84-4.22a8 8 0 0 1 5.42-6.05l15.24-4.85a7.06 7.06 0 0 0 3.5 2.44V62a2 2 0 0 0 4 0V49.71a7.06 7.06 0 0 0 3.54-2.44l15.24 4.85a8 8 0 0 1 5.42 6.05l.8 4.22a2 2 0 0 0 4-.78zM45 23h1a3 3 0 0 1 0 6h-1zM25.74 34.45C22.4 31.23 23 27.79 23 22.89c5.46-.49 8.06-2.34 13.51-5.28a2 2 0 0 1 2.69.77c.45.79.09.17 1.8 3.15 0 6.7 0 6.75-.06 7.47H35a2 2 0 0 0 0 4h4.48a9 9 0 0 1-13.74 1.45zM35 43a3 3 0 0 1-6 0v-2.35a12.94 12.94 0 0 0 6 0zM15 26a3 3 0 0 1 3-3h1v6h-1a3 3 0 0 1-3-3zm3-8a14 14 0 0 1 28 0v1h-1.84l-1.49-2.61a6 6 0 0 0-8.05-2.3C25.51 19 25.67 19 18 19zm0 27.76V33h2a13 13 0 0 0 5 6v4.57zm21-2.24v-4.57a13 13 0 0 0 5-6h2v12.81z" style="fill:black"/></g></svg>