<?xml version="1.0" standalone="no"?>
<!DOCTYPE svg PUBLIC "-//W3C//DTD SVG 20010904//EN"
 "http://www.w3.org/TR/2001/REC-SVG-20010904/DTD/svg10.dtd">
<svg version="1.0" xmlns="http://www.w3.org/2000/svg"
 width="160.000000pt" height="160.000000pt" viewBox="0 0 160.000000 160.000000"
 preserveAspectRatio="xMidYMid meet">

<g transform="translate(0.000000,160.000000) scale(0.100000,-0.100000)"
fill="#000000" stroke="none">
<path d="M685 1576 c-111 -27 -226 -109 -278 -199 -28 -47 -57 -137 -57 -176
0 -18 -9 -31 -30 -43 -17 -10 -37 -33 -45 -52 -19 -46 -19 -176 -1 -221 19
-45 71 -78 111 -71 68 12 66 14 86 -41 11 -29 40 -74 65 -101 32 -37 44 -58
44 -81 l0 -31 -102 0 c-57 0 -123 -5 -147 -11 -117 -27 -228 -115 -283 -226
-35 -72 -59 -204 -41 -231 9 -16 69 -17 793 -17 724 0 784 1 793 17 18 27 -6
159 -41 231 -55 111 -166 199 -283 226 -24 6 -88 11 -141 11 l-98 0 0 38 c0
30 8 45 41 80 23 24 50 42 62 42 31 0 85 36 99 65 6 14 26 34 45 45 45 27 63
73 63 165 0 90 -18 139 -60 163 -21 12 -30 25 -30 43 0 39 -29 129 -57 176
-33 57 -122 136 -186 166 -98 46 -218 58 -322 33z m195 -46 c126 -24 229 -99
280 -204 31 -65 50 -156 32 -156 -6 0 -17 -3 -25 -6 -11 -4 -16 5 -22 33 -10
58 -64 150 -109 189 -91 78 -204 107 -312 81 -139 -35 -245 -141 -269 -271 -6
-27 -11 -36 -22 -32 -8 3 -19 6 -25 6 -16 0 0 88 27 147 71 158 259 248 445
213z m45 -135 c67 -30 130 -96 155 -162 11 -30 20 -58 20 -63 0 -32 -189 7
-292 59 l-78 40 -51 -35 c-51 -34 -172 -78 -177 -64 -8 21 42 120 80 159 97
98 220 122 343 66z m3 -266 c41 -10 97 -19 124 -19 l48 0 0 -135 c0 -100 -4
-145 -16 -175 l-16 -40 -65 0 c-59 0 -66 2 -90 30 -50 60 -143 25 -143 -54 0
-26 7 -40 31 -60 17 -14 37 -26 45 -26 23 0 71 28 77 45 5 11 21 15 58 15 l52
0 -23 -25 c-13 -14 -49 -38 -79 -53 -46 -22 -69 -27 -131 -27 -125 1 -214 56
-270 167 -29 59 -30 65 -30 199 l0 139 28 6 c55 11 142 47 173 70 l32 23 59
-30 c33 -17 94 -39 136 -50z m-504 -24 c21 -21 30 -76 23 -147 -6 -69 -22 -91
-67 -91 -45 0 -61 22 -67 91 -7 71 2 126 23 147 20 19 68 19 88 0z m840 0 c8
-9 18 -32 22 -51 10 -53 -2 -154 -20 -172 -19 -20 -72 -20 -92 -1 -31 32 -30
192 2 224 20 19 68 19 88 0z m-86 -284 c11 -6 7 -13 -14 -30 -32 -25 -38 -23
-25 13 11 28 18 31 39 17z m-303 -81 c0 -18 -6 -26 -23 -28 -24 -4 -38 18 -28
44 3 9 15 14 28 12 17 -2 23 -10 23 -28z m-70 -190 c40 0 88 8 122 20 l56 19
-5 -44 c-6 -51 -44 -107 -88 -130 -46 -24 -140 -20 -181 8 -41 28 -79 91 -79
134 l0 31 55 -19 c32 -11 81 -19 120 -19z m-211 -65 c13 -52 112 -135 161
-135 13 0 15 -18 15 -115 l0 -115 -357 2 -358 3 4 50 c10 146 125 282 270 321
25 7 94 13 152 13 106 1 107 1 113 -24z m674 11 c150 -40 263 -172 273 -321
l4 -50 -357 -3 -358 -2 0 114 0 113 38 7 c49 7 126 73 144 121 l12 35 96 0
c52 0 119 -7 148 -14z"/>
</g>
</svg>
