<svg xmlns="http://www.w3.org/2000/svg" xmlns:xlink="http://www.w3.org/1999/xlink" width="200" zoomAndPan="magnify" viewBox="0 0 150 149.999998" height="200" preserveAspectRatio="xMidYMid meet" version="1.0"><defs><filter x="0%" y="0%" width="100%" height="100%" id="35b79d55be"><feColorMatrix values="0 0 0 0 1 0 0 0 0 1 0 0 0 0 1 0 0 0 1 0" color-interpolation-filters="sRGB"/></filter><mask id="d635f82624"><g filter="url(#35b79d55be)"><rect x="-15" width="180" fill="#000000" y="-15" height="179.999997" fill-opacity="0.6196"/></g></mask><clipPath id="8fc9105152"><path d="M 1.160156 0.558594 L 148.910156 0.558594 L 148.910156 141.199219 L 1.160156 141.199219 Z M 1.160156 0.558594 " clip-rule="nonzero"/></clipPath><clipPath id="dbc3449fc3"><rect x="0" width="150" y="0" height="142"/></clipPath></defs><g mask="url(#d635f82624)"><g transform="matrix(1, 0, 0, 1, 0, 4)"><g clip-path="url(#dbc3449fc3)"><g clip-path="url(#8fc9105152)"><path fill="#ffd51b" d="M 148.097656 53.902344 C 147.699219 52.753906 146.691406 51.925781 145.488281 51.765625 L 99.167969 45.636719 L 77.574219 2.433594 C 77.035156 1.355469 75.921875 0.671875 74.714844 0.671875 C 73.503906 0.671875 72.398438 1.355469 71.855469 2.441406 L 50.257812 45.636719 L 3.941406 51.765625 C 2.738281 51.925781 1.722656 52.753906 1.332031 53.902344 C 0.941406 55.050781 1.234375 56.324219 2.101562 57.183594 L 36.070312 91.085938 L 26.8125 137.285156 C 26.578125 138.484375 27.039062 139.703125 28.011719 140.449219 C 28.984375 141.199219 30.300781 141.3125 31.382812 140.769531 L 74.722656 119.144531 L 118.0625 140.769531 C 118.515625 140.992188 119 141.109375 119.492188 141.109375 C 120.179688 141.109375 120.867188 140.886719 121.4375 140.449219 C 122.402344 139.710938 122.871094 138.484375 122.632812 137.285156 L 113.378906 91.085938 L 147.347656 57.183594 C 148.191406 56.328125 148.488281 55.050781 148.097656 53.902344 Z M 68.074219 68.859375 L 58.480469 94.394531 C 58.015625 95.640625 56.820312 96.460938 55.488281 96.460938 C 54.15625 96.460938 52.960938 95.640625 52.496094 94.394531 L 42.902344 68.859375 C 42.273438 67.207031 43.113281 65.367188 44.769531 64.75 C 46.410156 64.144531 48.265625 64.964844 48.886719 66.613281 L 55.488281 84.179688 L 62.089844 66.613281 C 62.710938 64.960938 64.558594 64.136719 66.207031 64.75 C 67.863281 65.367188 68.695312 67.199219 68.074219 68.859375 Z M 77.875 93.265625 C 77.875 95.027344 76.441406 96.457031 74.675781 96.457031 C 72.910156 96.457031 71.476562 95.027344 71.476562 93.265625 L 71.476562 67.730469 C 71.476562 65.96875 72.910156 64.539062 74.675781 64.539062 C 76.441406 64.539062 77.875 65.96875 77.875 67.730469 Z M 93.863281 83.6875 L 90.667969 83.6875 L 90.667969 93.265625 C 90.667969 95.027344 89.234375 96.457031 87.46875 96.457031 C 85.703125 96.457031 84.269531 95.027344 84.269531 93.265625 L 84.269531 67.730469 C 84.269531 65.96875 85.703125 64.539062 87.46875 64.539062 L 93.863281 64.539062 C 99.152344 64.539062 103.457031 68.835938 103.457031 74.113281 C 103.457031 79.398438 99.152344 83.6875 93.863281 83.6875 Z M 93.863281 70.921875 L 90.667969 70.921875 L 90.667969 77.304688 L 93.863281 77.304688 C 95.625 77.304688 97.0625 75.875 97.0625 74.113281 C 97.0625 72.351562 95.625 70.921875 93.863281 70.921875 Z M 93.863281 70.921875 " fill-opacity="1" fill-rule="nonzero"/></g></g></g></g></svg>