<svg xmlns="http://www.w3.org/2000/svg" xmlns:xlink="http://www.w3.org/1999/xlink" width="500" zoomAndPan="magnify" viewBox="0 0 375 225" height="300" preserveAspectRatio="xMidYMid meet" version="1.0"><defs><g/><clipPath id="ff67187e55"><path d="M 14.765625 7 L 106.265625 7 L 106.265625 146.820312 L 14.765625 146.820312 Z M 14.765625 7 " clip-rule="nonzero"/></clipPath><clipPath id="e5184b76da"><path d="M 245.585938 6.570312 L 366.335938 6.570312 L 366.335938 140.820312 L 245.585938 140.820312 Z M 245.585938 6.570312 " clip-rule="nonzero"/></clipPath><clipPath id="25b4d73b2d"><path d="M 130.175781 59 L 166 59 L 166 95 L 130.175781 95 Z M 130.175781 59 " clip-rule="nonzero"/></clipPath><clipPath id="53aee97ca2"><path d="M 130.175781 7 L 221.675781 7 L 221.675781 146.820312 L 130.175781 146.820312 Z M 130.175781 7 " clip-rule="nonzero"/></clipPath><clipPath id="62f2370678"><path d="M 281.71875 39.253906 L 351 39.253906 L 351 109 L 281.71875 109 Z M 281.71875 39.253906 " clip-rule="nonzero"/></clipPath><clipPath id="76df84beb5"><path d="M 334 92 L 366.46875 92 L 366.46875 124.003906 L 334 124.003906 Z M 334 92 " clip-rule="nonzero"/></clipPath></defs><path fill="#fdfcfb" d="M 32.699219 94.34375 C 42.351562 94.34375 50.175781 86.519531 50.175781 76.863281 C 50.175781 67.210938 42.351562 59.382812 32.699219 59.382812 C 23.042969 59.382812 15.222656 67.210938 15.222656 76.863281 C 15.222656 86.519531 23.042969 94.34375 32.699219 94.34375 " fill-opacity="1" fill-rule="nonzero"/><g clip-path="url(#ff67187e55)"><path fill="#fdfcfb" d="M 72.519531 88.300781 C 77.164062 91.441406 80.222656 96.761719 80.222656 102.792969 C 80.222656 112.449219 72.398438 120.273438 62.746094 120.273438 L 14.765625 120 L 14.765625 146.175781 L 62.746094 146.324219 C 86.78125 146.324219 106.265625 126.835938 106.265625 102.792969 C 106.265625 93.066406 103.074219 84.082031 97.683594 76.832031 L 98.257812 76.035156 C 103.339844 68.914062 106.265625 60.105469 106.265625 50.6875 C 106.265625 26.652344 86.78125 7.164062 62.746094 7.164062 L 14.765625 7.066406 L 14.765625 32.753906 L 62.746094 33.214844 C 72.398438 33.214844 80.222656 41.035156 80.222656 50.6875 C 80.222656 56.707031 77.183594 62.015625 72.554688 65.15625 L 54.992188 65.15625 L 54.992188 88.253906 L 72.519531 88.300781 " fill-opacity="1" fill-rule="nonzero"/></g><g clip-path="url(#e5184b76da)"><path fill="#fdfcfb" d="M 352.210938 102.910156 L 351.691406 103.410156 C 341.703125 113.042969 328.230469 118.792969 315.652344 118.792969 C 289.785156 118.792969 269.527344 98.742188 269.527344 73.140625 C 269.527344 47.644531 289.785156 27.671875 315.652344 27.671875 C 328.652344 27.671875 342.113281 33.832031 351.664062 44.152344 L 352.210938 44.746094 L 366.035156 27.484375 L 365.585938 27.042969 C 352.601562 14.21875 333.796875 6.570312 315.28125 6.570312 C 296.324219 6.570312 278.753906 13.394531 265.796875 25.785156 C 252.8125 38.207031 245.660156 55.089844 245.660156 73.324219 C 245.660156 91.746094 252.726562 108.808594 265.558594 121.367188 C 278.371094 133.917969 295.765625 140.824219 314.527344 140.824219 C 332.808594 140.824219 351.964844 132.683594 365.773438 119.042969 L 366.246094 118.578125 Z M 352.210938 102.910156 " fill-opacity="1" fill-rule="nonzero"/></g><path fill="#fdfcfb" d="M 340.273438 73.695312 C 340.273438 74.492188 340.234375 75.289062 340.15625 76.082031 C 340.078125 76.875 339.960938 77.664062 339.808594 78.445312 C 339.652344 79.226562 339.457031 80 339.226562 80.761719 C 338.996094 81.523438 338.730469 82.273438 338.425781 83.011719 C 338.121094 83.746094 337.78125 84.46875 337.40625 85.171875 C 337.03125 85.875 336.621094 86.558594 336.179688 87.21875 C 335.738281 87.882812 335.265625 88.523438 334.761719 89.136719 C 334.253906 89.753906 333.722656 90.34375 333.160156 90.90625 C 332.597656 91.472656 332.007812 92.007812 331.394531 92.511719 C 330.777344 93.019531 330.140625 93.492188 329.476562 93.933594 C 328.816406 94.378906 328.132812 94.789062 327.433594 95.164062 C 326.730469 95.539062 326.011719 95.878906 325.277344 96.183594 C 324.542969 96.488281 323.792969 96.757812 323.035156 96.988281 C 322.273438 97.21875 321.5 97.414062 320.722656 97.570312 C 319.941406 97.726562 319.15625 97.84375 318.363281 97.917969 C 317.570312 98 316.777344 98.039062 315.980469 98.039062 C 315.1875 98.039062 314.390625 98 313.601562 97.917969 C 312.808594 97.839844 312.023438 97.726562 311.242188 97.570312 C 310.460938 97.414062 309.691406 97.21875 308.929688 96.988281 C 308.167969 96.757812 307.421875 96.488281 306.6875 96.183594 C 305.949219 95.878906 305.230469 95.539062 304.53125 95.164062 C 303.828125 94.789062 303.148438 94.378906 302.484375 93.933594 C 301.824219 93.492188 301.1875 93.019531 300.570312 92.511719 C 299.957031 92.007812 299.367188 91.472656 298.804688 90.90625 C 298.242188 90.34375 297.707031 89.753906 297.203125 89.136719 C 296.699219 88.523438 296.226562 87.882812 295.785156 87.21875 C 295.339844 86.558594 294.933594 85.875 294.558594 85.171875 C 294.183594 84.46875 293.84375 83.746094 293.539062 83.011719 C 293.234375 82.273438 292.964844 81.523438 292.734375 80.761719 C 292.503906 80 292.3125 79.226562 292.15625 78.445312 C 292 77.664062 291.882812 76.875 291.808594 76.082031 C 291.730469 75.289062 291.691406 74.492188 291.691406 73.695312 C 291.691406 72.898438 291.730469 72.105469 291.808594 71.3125 C 291.882812 70.519531 292 69.730469 292.15625 68.949219 C 292.3125 68.167969 292.503906 67.394531 292.734375 66.632812 C 292.964844 65.867188 293.234375 65.117188 293.539062 64.382812 C 293.84375 63.644531 294.183594 62.925781 294.558594 62.222656 C 294.933594 61.519531 295.339844 60.835938 295.785156 60.175781 C 296.226562 59.511719 296.699219 58.871094 297.203125 58.253906 C 297.707031 57.640625 298.242188 57.050781 298.804688 56.484375 C 299.367188 55.921875 299.957031 55.386719 300.570312 54.882812 C 301.1875 54.375 301.824219 53.902344 302.484375 53.457031 C 303.148438 53.015625 303.828125 52.605469 304.53125 52.230469 C 305.230469 51.855469 305.949219 51.515625 306.6875 51.210938 C 307.421875 50.90625 308.167969 50.636719 308.929688 50.40625 C 309.691406 50.171875 310.460938 49.980469 311.242188 49.824219 C 312.023438 49.667969 312.808594 49.550781 313.601562 49.472656 C 314.390625 49.394531 315.1875 49.355469 315.980469 49.355469 C 316.777344 49.355469 317.570312 49.394531 318.363281 49.472656 C 319.15625 49.550781 319.941406 49.667969 320.722656 49.824219 C 321.5 49.980469 322.273438 50.171875 323.035156 50.40625 C 323.792969 50.636719 324.542969 50.90625 325.277344 51.210938 C 326.011719 51.515625 326.730469 51.855469 327.433594 52.230469 C 328.132812 52.605469 328.816406 53.015625 329.476562 53.457031 C 330.140625 53.902344 330.777344 54.375 331.394531 54.882812 C 332.007812 55.386719 332.597656 55.921875 333.160156 56.484375 C 333.722656 57.050781 334.253906 57.640625 334.761719 58.253906 C 335.265625 58.871094 335.738281 59.511719 336.179688 60.175781 C 336.621094 60.835938 337.03125 61.519531 337.40625 62.222656 C 337.78125 62.925781 338.121094 63.644531 338.425781 64.382812 C 338.730469 65.117188 338.996094 65.867188 339.226562 66.632812 C 339.457031 67.394531 339.652344 68.167969 339.808594 68.949219 C 339.960938 69.730469 340.078125 70.519531 340.15625 71.3125 C 340.234375 72.105469 340.273438 72.898438 340.273438 73.695312 Z M 340.273438 73.695312 " fill-opacity="1" fill-rule="nonzero"/><g clip-path="url(#25b4d73b2d)"><path fill="#fdfcfb" d="M 148.109375 94.34375 C 157.757812 94.34375 165.585938 86.519531 165.585938 76.863281 C 165.585938 67.210938 157.757812 59.382812 148.109375 59.382812 C 138.453125 59.382812 130.628906 67.210938 130.628906 76.863281 C 130.628906 86.519531 138.453125 94.34375 148.109375 94.34375 " fill-opacity="1" fill-rule="nonzero"/></g><g clip-path="url(#53aee97ca2)"><path fill="#fdfcfb" d="M 187.929688 88.300781 C 192.574219 91.441406 195.632812 96.761719 195.632812 102.792969 C 195.632812 112.449219 187.808594 120.273438 178.15625 120.273438 L 130.175781 120 L 130.175781 146.175781 L 178.15625 146.324219 C 202.191406 146.324219 221.675781 126.835938 221.675781 102.792969 C 221.675781 93.066406 218.484375 84.082031 213.089844 76.832031 L 213.667969 76.035156 C 218.746094 68.914062 221.675781 60.105469 221.675781 50.6875 C 221.675781 26.652344 202.191406 7.164062 178.15625 7.164062 L 130.175781 7.066406 L 130.175781 32.753906 L 178.15625 33.214844 C 187.808594 33.214844 195.632812 41.035156 195.632812 50.6875 C 195.632812 56.707031 192.59375 62.015625 187.960938 65.15625 L 170.402344 65.15625 L 170.402344 88.253906 L 187.929688 88.300781 " fill-opacity="1" fill-rule="nonzero"/></g><g clip-path="url(#62f2370678)"><path fill="#fdfcfb" d="M 316.136719 47.855469 C 301.878906 47.855469 290.324219 59.414062 290.324219 73.667969 C 290.324219 87.925781 301.878906 99.480469 316.136719 99.480469 C 330.390625 99.480469 341.949219 87.925781 341.949219 73.667969 C 341.949219 59.414062 330.390625 47.855469 316.136719 47.855469 Z M 281.71875 73.667969 C 281.71875 54.660156 297.128906 39.253906 316.136719 39.253906 C 335.144531 39.253906 350.550781 54.660156 350.550781 73.667969 C 350.550781 92.675781 335.144531 108.085938 316.136719 108.085938 C 297.128906 108.085938 281.71875 92.675781 281.71875 73.667969 Z M 281.71875 73.667969 " fill-opacity="1" fill-rule="evenodd"/></g><path fill="#fdfcfb" d="M 331.191406 73.667969 C 331.191406 65.351562 324.453125 58.609375 316.136719 58.609375 L 316.136719 50.007812 C 329.203125 50.007812 339.796875 60.601562 339.796875 73.667969 Z M 331.191406 73.667969 " fill-opacity="1" fill-rule="evenodd"/><g clip-path="url(#76df84beb5)"><path fill="#fdfcfb" d="M 340.6875 92.136719 L 366.5 117.949219 L 360.417969 124.03125 L 334.605469 98.21875 Z M 340.6875 92.136719 " fill-opacity="1" fill-rule="evenodd"/></g><g fill="#fdfcfb" fill-opacity="1"><g transform="translate(9.843073, 208.500001)"><g><path d="M 2.71875 0 L 2.71875 -41.0625 L 8.828125 -41.0625 C 11.148438 -41.0625 12.847656 -40.546875 13.921875 -39.515625 C 15.003906 -38.492188 15.566406 -36.800781 15.609375 -34.4375 C 15.609375 -32.726562 15.609375 -31.234375 15.609375 -29.953125 C 15.609375 -28.671875 15.585938 -27.429688 15.546875 -26.234375 C 15.484375 -24.796875 15.210938 -23.671875 14.734375 -22.859375 C 14.253906 -22.054688 13.5 -21.46875 12.46875 -21.09375 L 12.46875 -20.171875 C 14.488281 -19.484375 15.535156 -17.753906 15.609375 -14.984375 C 15.640625 -13.484375 15.65625 -12.085938 15.65625 -10.796875 C 15.65625 -9.515625 15.640625 -8.125 15.609375 -6.625 C 15.535156 -4.257812 14.976562 -2.5625 13.9375 -1.53125 C 12.894531 -0.507812 11.191406 0 8.828125 0 Z M 6.109375 -22.171875 L 8.78125 -22.171875 C 10.96875 -22.171875 12.097656 -23.539062 12.171875 -26.28125 C 12.265625 -29.050781 12.265625 -31.820312 12.171875 -34.59375 C 12.097656 -36.851562 10.984375 -37.984375 8.828125 -37.984375 L 6.109375 -37.984375 Z M 6.109375 -3.078125 L 8.828125 -3.078125 C 11.015625 -3.078125 12.144531 -4.273438 12.21875 -6.671875 C 12.320312 -9.410156 12.320312 -12.148438 12.21875 -14.890625 C 12.1875 -16.421875 11.882812 -17.507812 11.3125 -18.15625 C 10.75 -18.8125 9.851562 -19.140625 8.625 -19.140625 L 6.109375 -19.140625 Z M 6.109375 -3.078125 "/></g></g></g><g fill="#fdfcfb" fill-opacity="1"><g transform="translate(36.529707, 208.500001)"><g><path d="M 2.71875 0 L 2.71875 -41.0625 L 6.109375 -41.0625 L 6.109375 0 Z M 2.71875 0 "/></g></g></g><g fill="#fdfcfb" fill-opacity="1"><g transform="translate(54.389925, 208.500001)"><g><path d="M 9.546875 0.359375 C 7.179688 0.359375 5.484375 -0.160156 4.453125 -1.203125 C 3.429688 -2.242188 2.890625 -3.984375 2.828125 -6.421875 C 2.648438 -15.828125 2.648438 -25.1875 2.828125 -34.5 C 2.890625 -36.988281 3.429688 -38.765625 4.453125 -39.828125 C 5.484375 -40.890625 7.179688 -41.421875 9.546875 -41.421875 C 11.804688 -41.421875 13.445312 -40.898438 14.46875 -39.859375 C 15.5 -38.816406 16.066406 -37.097656 16.171875 -34.703125 C 16.273438 -32.066406 16.273438 -29.445312 16.171875 -26.84375 L 12.78125 -26.84375 C 12.882812 -29.613281 12.882812 -32.40625 12.78125 -35.21875 C 12.675781 -37.40625 11.597656 -38.5 9.546875 -38.5 C 7.421875 -38.5 6.328125 -37.40625 6.265625 -35.21875 C 6.023438 -25.425781 6.023438 -15.65625 6.265625 -5.90625 C 6.265625 -4.738281 6.53125 -3.890625 7.0625 -3.359375 C 7.59375 -2.828125 8.421875 -2.5625 9.546875 -2.5625 C 11.804688 -2.5625 12.96875 -3.675781 13.03125 -5.90625 C 13.101562 -8.675781 13.101562 -11.460938 13.03125 -14.265625 L 9.59375 -14.265625 L 9.59375 -17.296875 L 16.375 -17.296875 C 16.40625 -15.960938 16.421875 -14.414062 16.421875 -12.65625 C 16.421875 -10.894531 16.40625 -8.816406 16.375 -6.421875 C 16.269531 -3.984375 15.695312 -2.242188 14.65625 -1.203125 C 13.613281 -0.160156 11.910156 0.359375 9.546875 0.359375 Z M 9.546875 0.359375 "/></g></g></g><g fill="#fdfcfb" fill-opacity="1"><g transform="translate(81.538405, 208.500001)"><g/></g></g><g fill="#fdfcfb" fill-opacity="1"><g transform="translate(101.194696, 208.500001)"><g><path d="M 2.71875 0 L 2.71875 -41.0625 L 8.828125 -41.0625 C 11.148438 -41.0625 12.847656 -40.546875 13.921875 -39.515625 C 15.003906 -38.492188 15.566406 -36.800781 15.609375 -34.4375 C 15.609375 -32.726562 15.609375 -31.234375 15.609375 -29.953125 C 15.609375 -28.671875 15.585938 -27.429688 15.546875 -26.234375 C 15.484375 -24.796875 15.210938 -23.671875 14.734375 -22.859375 C 14.253906 -22.054688 13.5 -21.46875 12.46875 -21.09375 L 12.46875 -20.171875 C 14.488281 -19.484375 15.535156 -17.753906 15.609375 -14.984375 C 15.640625 -13.484375 15.65625 -12.085938 15.65625 -10.796875 C 15.65625 -9.515625 15.640625 -8.125 15.609375 -6.625 C 15.535156 -4.257812 14.976562 -2.5625 13.9375 -1.53125 C 12.894531 -0.507812 11.191406 0 8.828125 0 Z M 6.109375 -22.171875 L 8.78125 -22.171875 C 10.96875 -22.171875 12.097656 -23.539062 12.171875 -26.28125 C 12.265625 -29.050781 12.265625 -31.820312 12.171875 -34.59375 C 12.097656 -36.851562 10.984375 -37.984375 8.828125 -37.984375 L 6.109375 -37.984375 Z M 6.109375 -3.078125 L 8.828125 -3.078125 C 11.015625 -3.078125 12.144531 -4.273438 12.21875 -6.671875 C 12.320312 -9.410156 12.320312 -12.148438 12.21875 -14.890625 C 12.1875 -16.421875 11.882812 -17.507812 11.3125 -18.15625 C 10.75 -18.8125 9.851562 -19.140625 8.625 -19.140625 L 6.109375 -19.140625 Z M 6.109375 -3.078125 "/></g></g></g><g fill="#fdfcfb" fill-opacity="1"><g transform="translate(127.881333, 208.500001)"><g><path d="M 9.59375 0.359375 C 7.238281 0.359375 5.535156 -0.148438 4.484375 -1.171875 C 3.441406 -2.203125 2.90625 -3.914062 2.875 -6.3125 C 2.769531 -11.207031 2.71875 -15.9375 2.71875 -20.5 C 2.71875 -25.070312 2.769531 -29.820312 2.875 -34.75 C 2.90625 -37.144531 3.441406 -38.851562 4.484375 -39.875 C 5.535156 -40.90625 7.238281 -41.421875 9.59375 -41.421875 C 11.988281 -41.421875 13.695312 -40.90625 14.71875 -39.875 C 15.75 -38.851562 16.300781 -37.144531 16.375 -34.75 C 16.4375 -29.820312 16.46875 -25.070312 16.46875 -20.5 C 16.46875 -15.9375 16.4375 -11.207031 16.375 -6.3125 C 16.300781 -3.914062 15.75 -2.203125 14.71875 -1.171875 C 13.695312 -0.148438 11.988281 0.359375 9.59375 0.359375 Z M 9.59375 -2.5625 C 10.789062 -2.5625 11.644531 -2.800781 12.15625 -3.28125 C 12.675781 -3.757812 12.9375 -4.597656 12.9375 -5.796875 C 13.101562 -10.828125 13.175781 -15.769531 13.15625 -20.625 C 13.144531 -25.488281 13.070312 -30.367188 12.9375 -35.265625 C 12.9375 -36.460938 12.675781 -37.300781 12.15625 -37.78125 C 11.644531 -38.257812 10.789062 -38.5 9.59375 -38.5 C 8.4375 -38.5 7.597656 -38.257812 7.078125 -37.78125 C 6.566406 -37.300781 6.296875 -36.460938 6.265625 -35.265625 C 6.128906 -30.367188 6.0625 -25.488281 6.0625 -20.625 C 6.0625 -15.769531 6.128906 -10.828125 6.265625 -5.796875 C 6.296875 -4.597656 6.566406 -3.757812 7.078125 -3.28125 C 7.597656 -2.800781 8.4375 -2.5625 9.59375 -2.5625 Z M 9.59375 -2.5625 "/></g></g></g><g fill="#fdfcfb" fill-opacity="1"><g transform="translate(156.107463, 208.500001)"><g><path d="M 6.984375 0 L 6.984375 -10.734375 L 6.625 -12.625 L 1.328125 -41.0625 L 4.875 -41.0625 L 6.671875 -29.46875 L 8.265625 -17.703125 L 9.140625 -17.703125 L 10.671875 -29.46875 L 12.46875 -41.0625 L 15.96875 -41.0625 L 10.734375 -12.625 L 10.375 -10.734375 L 10.375 0 Z M 6.984375 0 "/></g></g></g><g fill="#fdfcfb" fill-opacity="1"><g transform="translate(182.486208, 208.500001)"><g/></g></g><g fill="#fdfcfb" fill-opacity="1"><g transform="translate(202.142488, 208.500001)"><g><path d="M 9.4375 0.359375 C 7.113281 0.359375 5.4375 -0.160156 4.40625 -1.203125 C 3.382812 -2.242188 2.859375 -3.960938 2.828125 -6.359375 C 2.753906 -11.191406 2.71875 -15.90625 2.71875 -20.5 C 2.71875 -25.101562 2.753906 -29.816406 2.828125 -34.640625 C 2.859375 -36.867188 3.382812 -38.546875 4.40625 -39.671875 C 5.4375 -40.804688 7.113281 -41.375 9.4375 -41.375 C 11.769531 -41.375 13.457031 -40.847656 14.5 -39.796875 C 15.539062 -38.753906 16.097656 -37.035156 16.171875 -34.640625 C 16.203125 -33.992188 16.21875 -33.171875 16.21875 -32.171875 C 16.21875 -31.179688 16.207031 -30.195312 16.1875 -29.21875 C 16.175781 -28.25 16.171875 -27.441406 16.171875 -26.796875 L 12.734375 -26.796875 C 12.765625 -28.097656 12.785156 -29.488281 12.796875 -30.96875 C 12.816406 -32.457031 12.8125 -33.851562 12.78125 -35.15625 C 12.75 -36.351562 12.472656 -37.207031 11.953125 -37.71875 C 11.441406 -38.238281 10.601562 -38.5 9.4375 -38.5 C 8.3125 -38.5 7.5 -38.238281 7 -37.71875 C 6.507812 -37.207031 6.242188 -36.351562 6.203125 -35.15625 C 6.109375 -30.09375 6.0625 -25.21875 6.0625 -20.53125 C 6.0625 -15.84375 6.109375 -10.945312 6.203125 -5.84375 C 6.242188 -4.65625 6.519531 -3.800781 7.03125 -3.28125 C 7.539062 -2.769531 8.34375 -2.515625 9.4375 -2.515625 C 10.675781 -2.515625 11.566406 -2.769531 12.109375 -3.28125 C 12.660156 -3.800781 12.953125 -4.65625 12.984375 -5.84375 C 13.015625 -7.25 13.019531 -8.738281 13 -10.3125 C 12.988281 -11.882812 12.96875 -13.375 12.9375 -14.78125 L 16.375 -14.78125 C 16.40625 -13.34375 16.421875 -11.9375 16.421875 -10.5625 C 16.421875 -9.195312 16.40625 -7.796875 16.375 -6.359375 C 16.300781 -3.960938 15.734375 -2.242188 14.671875 -1.203125 C 13.617188 -0.160156 11.875 0.359375 9.4375 0.359375 Z M 9.4375 0.359375 "/></g></g></g><g fill="#fdfcfb" fill-opacity="1"><g transform="translate(229.598877, 208.500001)"><g><path d="M 2.71875 0 L 2.71875 -41.0625 L 6.109375 -41.0625 L 6.109375 -22.171875 L 12.671875 -22.171875 L 12.671875 -41.0625 L 16.0625 -41.0625 L 16.0625 0 L 12.671875 0 L 12.671875 -19.140625 L 6.109375 -19.140625 L 6.109375 0 Z M 2.71875 0 "/></g></g></g><g fill="#fdfcfb" fill-opacity="1"><g transform="translate(257.414473, 208.500001)"><g><path d="M 9.59375 0.359375 C 7.238281 0.359375 5.535156 -0.148438 4.484375 -1.171875 C 3.441406 -2.203125 2.90625 -3.914062 2.875 -6.3125 C 2.769531 -11.207031 2.71875 -15.9375 2.71875 -20.5 C 2.71875 -25.070312 2.769531 -29.820312 2.875 -34.75 C 2.90625 -37.144531 3.441406 -38.851562 4.484375 -39.875 C 5.535156 -40.90625 7.238281 -41.421875 9.59375 -41.421875 C 11.988281 -41.421875 13.695312 -40.90625 14.71875 -39.875 C 15.75 -38.851562 16.300781 -37.144531 16.375 -34.75 C 16.4375 -29.820312 16.46875 -25.070312 16.46875 -20.5 C 16.46875 -15.9375 16.4375 -11.207031 16.375 -6.3125 C 16.300781 -3.914062 15.75 -2.203125 14.71875 -1.171875 C 13.695312 -0.148438 11.988281 0.359375 9.59375 0.359375 Z M 9.59375 -2.5625 C 10.789062 -2.5625 11.644531 -2.800781 12.15625 -3.28125 C 12.675781 -3.757812 12.9375 -4.597656 12.9375 -5.796875 C 13.101562 -10.828125 13.175781 -15.769531 13.15625 -20.625 C 13.144531 -25.488281 13.070312 -30.367188 12.9375 -35.265625 C 12.9375 -36.460938 12.675781 -37.300781 12.15625 -37.78125 C 11.644531 -38.257812 10.789062 -38.5 9.59375 -38.5 C 8.4375 -38.5 7.597656 -38.257812 7.078125 -37.78125 C 6.566406 -37.300781 6.296875 -36.460938 6.265625 -35.265625 C 6.128906 -30.367188 6.0625 -25.488281 6.0625 -20.625 C 6.0625 -15.769531 6.128906 -10.828125 6.265625 -5.796875 C 6.296875 -4.597656 6.566406 -3.757812 7.078125 -3.28125 C 7.597656 -2.800781 8.4375 -2.5625 9.59375 -2.5625 Z M 9.59375 -2.5625 "/></g></g></g><g fill="#fdfcfb" fill-opacity="1"><g transform="translate(285.640592, 208.500001)"><g><path d="M 2.71875 0 L 2.71875 -41.0625 L 6.109375 -41.0625 L 6.109375 0 Z M 2.71875 0 "/></g></g></g><g fill="#fdfcfb" fill-opacity="1"><g transform="translate(303.500813, 208.500001)"><g><path d="M 9.4375 0.359375 C 7.113281 0.359375 5.4375 -0.160156 4.40625 -1.203125 C 3.382812 -2.242188 2.859375 -3.960938 2.828125 -6.359375 C 2.753906 -11.191406 2.71875 -15.90625 2.71875 -20.5 C 2.71875 -25.101562 2.753906 -29.816406 2.828125 -34.640625 C 2.859375 -36.867188 3.382812 -38.546875 4.40625 -39.671875 C 5.4375 -40.804688 7.113281 -41.375 9.4375 -41.375 C 11.769531 -41.375 13.457031 -40.847656 14.5 -39.796875 C 15.539062 -38.753906 16.097656 -37.035156 16.171875 -34.640625 C 16.203125 -33.992188 16.21875 -33.171875 16.21875 -32.171875 C 16.21875 -31.179688 16.207031 -30.195312 16.1875 -29.21875 C 16.175781 -28.25 16.171875 -27.441406 16.171875 -26.796875 L 12.734375 -26.796875 C 12.765625 -28.097656 12.785156 -29.488281 12.796875 -30.96875 C 12.816406 -32.457031 12.8125 -33.851562 12.78125 -35.15625 C 12.75 -36.351562 12.472656 -37.207031 11.953125 -37.71875 C 11.441406 -38.238281 10.601562 -38.5 9.4375 -38.5 C 8.3125 -38.5 7.5 -38.238281 7 -37.71875 C 6.507812 -37.207031 6.242188 -36.351562 6.203125 -35.15625 C 6.109375 -30.09375 6.0625 -25.21875 6.0625 -20.53125 C 6.0625 -15.84375 6.109375 -10.945312 6.203125 -5.84375 C 6.242188 -4.65625 6.519531 -3.800781 7.03125 -3.28125 C 7.539062 -2.769531 8.34375 -2.515625 9.4375 -2.515625 C 10.675781 -2.515625 11.566406 -2.769531 12.109375 -3.28125 C 12.660156 -3.800781 12.953125 -4.65625 12.984375 -5.84375 C 13.015625 -7.25 13.019531 -8.738281 13 -10.3125 C 12.988281 -11.882812 12.96875 -13.375 12.9375 -14.78125 L 16.375 -14.78125 C 16.40625 -13.34375 16.421875 -11.9375 16.421875 -10.5625 C 16.421875 -9.195312 16.40625 -7.796875 16.375 -6.359375 C 16.300781 -3.960938 15.734375 -2.242188 14.671875 -1.203125 C 13.617188 -0.160156 11.875 0.359375 9.4375 0.359375 Z M 9.4375 0.359375 "/></g></g></g><g fill="#fdfcfb" fill-opacity="1"><g transform="translate(330.957203, 208.500001)"><g><path d="M 2.71875 0 L 2.71875 -41.0625 L 14.265625 -41.0625 L 14.265625 -37.984375 L 6.109375 -37.984375 L 6.109375 -22.171875 L 13.75 -22.171875 L 13.75 -19.140625 L 6.109375 -19.140625 L 6.109375 -3.078125 L 14.265625 -3.078125 L 14.265625 0 Z M 2.71875 0 "/></g></g></g><g fill="#fdfcfb" fill-opacity="1"><g transform="translate(355.944621, 208.500001)"><g/></g></g></svg>